<svg width="208" height="105" fill="none" xmlns="http://www.w3.org/2000/svg"><path d="M147.015 52.058c0 23.748-19.252 43-43 43-4.902 0-9.612-.82-14-2.33m55.831-50.67a42.667 42.667 0 00-1.907-6m-4.24-8c-7.724-11.462-20.824-19-35.684-19-23.749 0-43 19.251-43 43 0 8.46 2.443 16.348 6.661 23m13.339 13.338a43.212 43.212 0 01-8.285-6.838" stroke="#DBDEE5" stroke-width="2" stroke-linecap="round"/><circle cx="103.515" cy="52.558" r="31.5" stroke="#5452CE" stroke-width="2"/><circle cx="103.499" cy="52.5" r="27.5" fill="#E5E5FF"/><path d="M112.015 45.667l3.687-3.61 5.313 5.205-16.5 16.147-4.75 4.649-2.043-2m9.484-15.684l-7.442 7.284-7.436-7.284-5.313 5.202 5.088 4.982m3.412 3.34l-1.369-1.34" stroke="#5452CE" stroke-width="2" stroke-linecap="round" stroke-linejoin="round"/><path d="M30.56 16.005h2v-7h7v-2h-7v-7h-2v7h-7v2h7v7zm43 88h2v-7h7l.001-2h-7v-7h-2v7h-7v2h7v7zm-66-.002h2v-7h7v-2h-7v-7h-2v7h-7v2h7v7zm22 0h2v-7h7v-2h-7v-7h-2v7h-7v2h7v7zm0-22h2v-7h7v-2h-7v-7h-2v7h-7v2h7v7zm22.5 0h2v-7h7v-2h-7v-7h-2v7h-7v2h7v7zm0-66h2v-7h7v-2h-7v-7h-2v7h-7v2h7v7zm0 22h2v-7h7v-2h-7v-7h-2v7h-7v2h7v7zm21.5-22h2v-7h7v-2h-7v-7h-2v7h-7v2h7v7zM177.442 16h-2V9h-7V7h7V0h2v7h7v2h-7v7zm-43.001 88h-2v-7h-7v-2h7v-7h2v7h7v2h-7v7zm65.998 0h-2v-7h-7v-2h7v-7h2v7h7v2h-7v7zm-22 0h-2v-7h-7v-2h7v-7h2v7h7v2h-7v7zm0-22h-2v-7h-7v-2h7v-7h2v7h7v2h-7v7zm-22.5 0h-2v-7h-7v-2h7v-7h2v7h7v2h-7v7zm.001-66h-2V9h-7V7h7V0h2v7h7v2h-7v7zm0 22h-2.001v-7h-7v-2h7v-7h2.001v7h7v2h-7v7zm-21.501-22h-2V9h-7V7h7V0h2v7h7v2h-7v7z" fill="#DBDEE5"/></svg>