<svg width="208" height="105" fill="none" xmlns="http://www.w3.org/2000/svg"><path d="M147.015 52.058c0 23.748-19.252 43-43 43-4.902 0-9.612-.82-14-2.33m55.831-50.67a42.663 42.663 0 00-1.906-6m-4.241-8c-7.723-11.462-20.823-19-35.684-19-23.748 0-43 19.251-43 43 0 8.46 2.443 16.348 6.662 23m13.338 13.338a43.206 43.206 0 01-8.285-6.838" stroke="#DBDEE5" stroke-width="2" stroke-linecap="round"/><circle cx="103.515" cy="52.558" r="31.5" stroke="#DE5846" stroke-width="2"/><circle cx="103.501" cy="52.5" r="27.5" fill="#FFE0DA"/><path d="M103.501 59.325l6.45 6.463a4.112 4.112 0 002.92 1.212 4.116 4.116 0 002.921-1.212 4.145 4.145 0 000-5.852l-6.451-6.462 6.399-6.412a4.141 4.141 0 000-5.85 4.125 4.125 0 00-5.841 0l-.786.788m-5.612 5.623l-6.4-6.411a4.123 4.123 0 00-5.838 0 4.142 4.142 0 000 5.85l6.398 6.412-6.45 6.462a4.144 4.144 0 000 5.852 4.123 4.123 0 005.839 0l.786-.788m9.036-20.755l-1.686 1.689M101.33 61.5l-1.6 1.603" stroke="#DE5846" stroke-width="2" stroke-linecap="round"/><path d="M30.561 16.005h2v-7h7v-2h-7v-7h-2v7h-7v2h7v7zm43 88h2v-7h7v-2h-7v-7h-2v7h-7v2h7v7zm-66.001-.002h2v-7h7v-2h-7v-7h-2v7h-7v2h7v7zm22 0h2v-7h7v-2h-7v-7h-2v7h-7v2h7v7zm0-22h2v-7h7v-2h-7v-7h-2v7h-7v2h7v7zm22.5 0h2v-7h7v-2h-7v-7h-2v7h-7v2h7v7zm0-66h2v-7h7v-2h-7v-7h-2v7h-7v2h7v7zm0 22h2v-7h7v-2h-7v-7h-2v7h-7v2h7v7zm21.5-22h2v-7h7v-2h-7v-7h-2v7h-7v2h7v7zM177.443 16h-2V9h-7V7h7V0h2v7h7v2h-7v7zm-43.002 88h-2v-7h-7v-2h7v-7h2v7h7v2h-7v7zm65.999 0h-2v-7h-7v-2h7v-7h2v7h7v2h-7v7zm-22 0h-2v-7h-7v-2h7v-7h2v7h7v2h-7v7zm0-22h-2v-7h-7v-2h7v-7h2v7h7v2h-7v7zm-22.5 0h-2v-7h-7v-2h7v-7h2v7h7v2h-7v7zm0-66h-2V9h-7V7h7V0h2v7h7v2h-7v7zm0 22h-2v-7h-7v-2h7v-7h2v7h7v2h-7v7zm-21.5-22h-2V9h-7V7h7V0h2v7h7v2h-7v7z" fill="#DBDEE5"/></svg>