<svg xmlns="http://www.w3.org/2000/svg" width="578" height="207"><style>.B{stroke-width:2}.C{fill:none}.D{stroke:#212225}.E{fill-rule:evenodd}</style><defs><filter id="A"><feFlood flood-color="#dbdee5" flood-opacity="1"/><feComposite operator="atop" in2="SourceGraphic"/><feBlend in2="SourceGraphic"/></filter></defs><g filter="url(#A)"><g class="B C D"><path d="M479.018 110.998l.003-34.244c0-1.628-.754-2.683-2.088-3.443l-30.318-16.928c-.714-.448-3.105-.664-4.517.16l-24.66 14.252c-2.438 1.4-1.387 2.633.037 3.396s24.45 14.973 25.885 15.772 4.99.595 6.022 0L479 73"/><path d="M421 77l20-12c3.17-2.065 6.284-1.08 8 0s23 13 23 13m-28-13V55"/></g><g stroke="#dbdee5" class="B C"><path d="M439 131v-26c0-6.18-1.76-7.79-4-9-2.253-1.216-23.746-14.91-27.983-17.728-5.11-3.397-4.18-10.012.983-13.272 2.624-1.657 25.11-14.456 29-17s11.244-.952 13 0l36 20c2.8 1.893 3 3.84 3 7v32c0 6.856-2.09 6.364-4 8s-34.8 20.892-38 23-9.436 1.47-12 0l-51-30c-4.373-2.88-6-6.465-6-12V84"/><path d="M378 84.654V50c0-11.046 8.954-20 20-20h92c11.046 0 20 8.954 20 20v93c0 11.046-8.954 20-20 20h-92c-11.046 0-20-8.954-20-20v-11.027"/><path d="M399.66 115.777a20.866 20.866 0 01-2.175 6.196C393.936 128.54 386.99 133 379 133c-11.598 0-21-9.402-21-21 0-9.436 6.224-17.42 14.8-20.067A21.001 21.001 0 01379 91m-19 22h-33m-4-6a5 5 0 110 10 5 5 0 110-10z"/></g><path d="M153.408 91.2l-20.782 33.78c-1.11 1.82-.316 2.758.77 1.534s39.876-42.82 40.795-43.76 1.425-1.035 2.31 0 37.468 40.088 38.486 41.457 2.452 1.41 1.54 0-39.15-63.32-40.025-65.257-2.026-2.192-3.08 0-13.03 22.042-14.625 24.567-3.58 2.21-4.618 1.536-32.17-19.45-33.098-19.962S118 64.94 118 67.4v56.812c0 .918.457 3.64 2.31 4.607s51.896 30.775 53.11 31.477 4.208 1.108 6.158 0L232 130c2.376-1.5 3-3.664 3-5.778V118c0-5.85 3.22-7 7-7" class="B C D"/><path stroke="#262629" d="M171 112l-12.12.012c-2.53 0-1.9-1.725-1.46-2.146s3.864-3.73 4.375-4.29S163.254 105 164 105h9c1.986 0 2-1.4 2-2v-2c0-.88 1.532-1 2-1h3c1.137 0 1.188-1.15.754-1.58S177.55 94.767 177 94c-.816-1.136-2.895-1.47-4 0-.274.364-3.912 4.42-3.912 4.42S168.43 100 170 100h2" class="B C"/><path stroke="#dbdee5" d="M178 105h8c1.535 0 2.154.073 3.15 1.105l3.838 3.834c.57.53.792 2.06-.99 2.06h-15c-1.067 0-2 .163-2 2v36c0 2.034 2.61 4.833 4.938 3.65S225.727 126.892 227 126s2-3.28 2-5V71c0-1.34-1.04-3.688-3-5s-44.94-26.425-46-27-4.908-1.222-7 0l-35 21c-4.688 2.956-11.446-1.575-6-5s34.418-20.902 38-23 9.967-2.606 14 0 45.315 25.373 48 27c5.332 3.23 5 7.51 5 11v28" class="B C"/><g class="D B"><path fill-opacity="0" fill="#c9292c" d="M292.734 94.144l15.12 15.11a3.88 3.88 0 010 5.494l-15.12 15.11a3.89 3.89 0 01-5.499 0l-15.12-15.11a3.883 3.883 0 010-5.494l15.12-15.11a3.89 3.89 0 015.499 0z" class="E"/><path d="M271 113h-30" class="C"/></g><path fill="#dbdee5" d="M577 183v2h-20v21h-2v-21h-16v-2h16v-38h-9v-2h9v-12h2v12h7v2h-7v38h20zM555 73v-4h-4v-2h4v-4h2v4h4v2h-4v4h-2zm2-20h-2V25h-29v-2h29V8h2v15h7v2h-7v28zm-28 132h-4v4h-2v-4h-4v-2h4v-4h2v4h4v2zm-153 4h-2v-4h-4v-2h4v-4h2v4h4v2h-4v4zm-19 17h-2v-21h-38v21h-2v-21h-38v21h-2v-21h-27v-2h27v-38h-17v-2h17v-9h2v9h19v2h-19v38h38v-29h2v29h38v-9h2v9h3v2h-3v21zM317 85h-2V65h-23v-2h23V25h-38v14h-2V25h-18v-2h18V4h2v19h38v-3h2v3h8v2h-8v38h13v2h-13v20zm0-75h-2V6h-4V4h4V0h2v4h4v2h-4v4zm-73 139h-2v-4h-4v-2h4v-4h2v4h4v2h-4v4zm-1-119h-2v-4h-4v-2h4v-4h2v4h4v2h-4v4zm-5 155h-4v4h-2v-4h-4v-2h4v-4h2v4h4v2zm-81 21h-2v-21h-38v21h-2v-21H77v21h-2v-21H37v21h-2v-21H19v-2h16v-9h2v9h38v-38H65v-2h10v-9h2v9h17v2H77v38h38v-29h2v29h38v-9h2v9h9v2h-9v21zM77 63h18v2H77v16h-2V65h-9v-2h9V25H37v16h-2V25H25v-2h10V9h2v14h38V9h2v14h32v2H77v38zM11 29H9v-4H5v-2h4v-4h2v4h4v2h-4v4zM6 179v4h4v2H6v4H4v-4H0v-2h4v-4h2z" class="E"/></g></svg>