<svg version="1.1" id="Слой_1" xmlns="http://www.w3.org/2000/svg" x="0" y="0" viewBox="0 0 1129 250" xml:space="preserve"><style>.st0{fill:#5452ce}.st1,.st2{stroke-width:2}.st1{fill:none;stroke:#212225}.st2{stroke:#dbdee5}.st2,.st3{fill:none}.st4{fill:#dbdee5}.st5{fill:#212225}</style><g id="illustration" transform="translate(-396 -385)"><g id="Группа_27"><g id="Группа_7"><path id="Фигура_829" class="st0" d="M1389.2 499c2.6 1.3 5.6 1.3 8.1 0 2.5-1.4 18.2-10.6 19.7-11.4s1.1-1.8 0-2.5-20.2-11.4-21.6-12-3.8-1.6-4.9-.8-19.2 12-19.7 12.2-1.7 2.5 0 3.3 16.4 10 18.4 11.2z"/><path id="v" class="st1" d="M1426 519v-34.2c0-1.5-.8-2.8-2.1-3.4-9-5.1-29.6-16.5-30.3-16.9-1.5-.6-3.1-.5-4.5.2-1.4.8-13.7 8-24.7 14.3-2.4 1.4-1.4 2.6 0 3.4s24.4 15 25.9 15.8 5 .6 6 0c4.4-2.5 29.6-17 29.6-17"/><path id="Фигура_830" class="st1" d="M1368 486s16.8-10.9 20-13c2.4-1.6 5.6-1.6 8 0 1.7 1.1 23 13 23 13"/><path id="Фигура_831" class="st1" d="M1391 473v-10"/><path id="Фигура_832" class="st2" d="M1386 539v-26c0-6.2-1.8-7.8-4-9s-30.4-18.1-34-20-2.7-5.1 0-7 32.1-18.5 36-21 11.2-1 13 0 33.2 18.1 36 20 3 3.8 3 7v32c0 6.9-2.1 6.4-4 8s-34.8 20.9-38 23-9.4 1.5-12 0-73-43-73-43c-4.4-2.9-6-6.5-6-12v-12"/><path id="Прямоугольник_скругл._углы_802" class="st2" d="M1303 479.7V445c0-11 9-20 20-20h122c11 0 20 9 20 20v122c0 11-9 20-20 20h-122c-11 0-20-9-20-20v-40"/></g><path id="Эллипс_1_копия_5" class="st2" d="M1324.7 510.8c-2.1 11.4-13 19-24.4 16.9-11.4-2.1-19-13-16.9-24.4 1.8-10 10.5-17.3 20.7-17.3"/><path id="Фигура_833" class="st2" d="M1285 508h-43"/><path id="Фигура_833_копия_2" class="st2" d="M943 508h-51"/><path id="Фигура_833_копия_3" class="st2" d="M833 508h-52"/><path id="Фигура_833_копия" class="st2" d="M723 508h-72"/><g id="Эллипс_1_копия_9"><path class="st3" d="M1162 507c0-16.6 13.4-30 30-30s30 13.4 30 30-13.4 30-30 30-30-13.4-30-30zm-110 0c0-16.6 13.4-30 30-30s30 13.4 30 30-13.4 30-30 30-30-13.4-30-30zm-110 0c0-16.6 13.4-30 30-30s30 13.4 30 30-13.4 30-30 30-30-13.4-30-30zm-110 0c0-16.6 13.4-30 30-30s30 13.4 30 30-13.4 30-30 30-30-13.4-30-30zm-110 0c0-16.6 13.4-30 30-30s30 13.4 30 30-13.4 30-30 30-30-13.4-30-30z"/><path class="st4" d="M752 479c-3.8 0-7.4.7-10.9 2.2-3.3 1.4-6.3 3.4-8.9 6-2.6 2.6-4.6 5.6-6 8.9-1.5 3.5-2.2 7.1-2.2 10.9 0 3.8.7 7.4 2.2 10.9 1.4 3.3 3.4 6.3 6 8.9 2.6 2.6 5.6 4.6 8.9 6 3.5 1.5 7.1 2.2 10.9 2.2 3.8 0 7.4-.7 10.9-2.2 3.3-1.4 6.3-3.4 8.9-6 2.6-2.6 4.6-5.6 6-8.9 1.5-3.5 2.2-7.1 2.2-10.9 0-3.8-.7-7.4-2.2-10.9-1.4-3.3-3.4-6.3-6-8.9-2.6-2.6-5.6-4.6-8.9-6-3.5-1.5-7.1-2.2-10.9-2.2m110 0c-3.8 0-7.4.7-10.9 2.2-3.3 1.4-6.3 3.4-8.9 6-2.6 2.6-4.6 5.6-6 8.9-1.5 3.5-2.2 7.1-2.2 10.9 0 3.8.7 7.4 2.2 10.9 1.4 3.3 3.4 6.3 6 8.9 2.6 2.6 5.6 4.6 8.9 6 3.5 1.5 7.1 2.2 10.9 2.2 3.8 0 7.4-.7 10.9-2.2 3.3-1.4 6.3-3.4 8.9-6 2.6-2.6 4.6-5.6 6-8.9 1.5-3.5 2.2-7.1 2.2-10.9 0-3.8-.7-7.4-2.2-10.9-1.4-3.3-3.4-6.3-6-8.9-2.6-2.6-5.6-4.6-8.9-6-3.5-1.5-7.1-2.2-10.9-2.2m110 0c-3.8 0-7.4.7-10.9 2.2-3.3 1.4-6.3 3.4-8.9 6-2.6 2.6-4.6 5.6-6 8.9-1.5 3.5-2.2 7.1-2.2 10.9 0 3.8.7 7.4 2.2 10.9 1.4 3.3 3.4 6.3 6 8.9 2.6 2.6 5.6 4.6 8.9 6 3.5 1.5 7.1 2.2 10.9 2.2 3.8 0 7.4-.7 10.9-2.2 3.3-1.4 6.3-3.4 8.9-6 2.6-2.6 4.6-5.6 6-8.9 1.5-3.5 2.2-7.1 2.2-10.9 0-3.8-.7-7.4-2.2-10.9-1.4-3.3-3.4-6.3-6-8.9-2.6-2.6-5.6-4.6-8.9-6-3.5-1.5-7.1-2.2-10.9-2.2m110 0c-3.8 0-7.4.7-10.9 2.2-3.3 1.4-6.3 3.4-8.9 6-2.6 2.6-4.6 5.6-6 8.9-1.5 3.5-2.2 7.1-2.2 10.9 0 3.8.7 7.4 2.2 10.9 1.4 3.3 3.4 6.3 6 8.9 2.6 2.6 5.6 4.6 8.9 6 3.5 1.5 7.1 2.2 10.9 2.2 3.8 0 7.4-.7 10.9-2.2 3.3-1.4 6.3-3.4 8.9-6 2.6-2.6 4.6-5.6 6-8.9 1.5-3.5 2.2-7.1 2.2-10.9 0-3.8-.7-7.4-2.2-10.9-1.4-3.3-3.4-6.3-6-8.9-2.6-2.6-5.6-4.6-8.9-6-3.5-1.5-7.1-2.2-10.9-2.2m110 0c-3.8 0-7.4.7-10.9 2.2-3.3 1.4-6.3 3.4-8.9 6-2.6 2.6-4.6 5.6-6 8.9-1.5 3.5-2.2 7.1-2.2 10.9 0 3.8.7 7.4 2.2 10.9 1.4 3.3 3.4 6.3 6 8.9 2.6 2.6 5.6 4.6 8.9 6 3.5 1.5 7.1 2.2 10.9 2.2s7.4-.7 10.9-2.2c3.3-1.4 6.3-3.4 8.9-6 2.6-2.6 4.6-5.6 6-8.9 1.5-3.5 2.2-7.1 2.2-10.9 0-3.8-.7-7.4-2.2-10.9-1.4-3.3-3.4-6.3-6-8.9-2.6-2.6-5.6-4.6-8.9-6-3.5-1.5-7.1-2.2-10.9-2.2m-440-2c16.6 0 30 13.4 30 30s-13.4 30-30 30-30-13.4-30-30 13.4-30 30-30zm110 0c16.6 0 30 13.4 30 30s-13.4 30-30 30-30-13.4-30-30 13.4-30 30-30zm110 0c16.6 0 30 13.4 30 30s-13.4 30-30 30-30-13.4-30-30 13.4-30 30-30zm110 0c16.6 0 30 13.4 30 30s-13.4 30-30 30-30-13.4-30-30 13.4-30 30-30zm110 0c16.6 0 30 13.4 30 30s-13.4 30-30 30-30-13.4-30-30 13.4-30 30-30z"/></g><g id="Эллипс_1_копия_10" transform="translate(1182 497)"><circle class="st3" cx="10" cy="10" r="10"/><circle class="st2" cx="10" cy="10" r="9"/></g><g id="Эллипс_1_копия_12" transform="translate(1072 497)"><circle class="st3" cx="10" cy="10" r="10"/><circle class="st2" cx="10" cy="10" r="9"/></g><path id="Эллипс_1_копия_11" class="st2" d="M1246 508h-6c-4.1-.1-7.6-3-8.5-7.1-3.2-19.2-19.5-33.9-39.5-33.9-19.3 0-35.8 13.8-39.3 32.8-.4 2.3-1.5 6.2-8.7 6.2h-15c-4.9 0-7.1 4.9-7.4 6.8-3.2 21.9-23.5 37-45.4 33.8-18.2-2.7-32.3-17.4-34-35.8-.1-1.3-.5-3.8-5.2-3.8h-36"/><g id="check_"><path class="st0" d="M751 516.4l-.7-.7-6-5.8-.8-.7.8-.7 2.5-2.4.7-.7.7.7 2.8 2.7 6.8-6.5.7-.7.7.7 2.5 2.4.8.7-.8.7-10 9.6-.7.7z"/><path class="st5" d="M758.5 503l-7.5 7.2-3.5-3.4-2.5 2.4 6 5.8 10-9.6-2.5-2.4m0-2.8l1.4 1.3 2.5 2.4 1.5 1.4-1.5 1.4-10 9.6-1.4 1.3-1.4-1.3-6-5.8-1.5-1.4 1.5-1.4 2.5-2.4 1.4-1.3 1.4 1.3 2.1 2 6.1-5.9 1.4-1.2z"/></g><g id="check_копия"><path class="st0" d="M861 516.4l-.7-.7-6-5.8-.8-.7.8-.7 2.5-2.4.7-.7.7.7 2.8 2.7 6.8-6.5.7-.7.7.7 2.5 2.4.8.7-.8.7-10 9.6-.7.7z"/><path class="st5" d="M868.5 503l-7.5 7.2-3.5-3.4-2.5 2.4 6 5.8 10-9.6-2.5-2.4m0-2.8l1.4 1.3 2.5 2.4 1.5 1.4-1.5 1.4-10 9.6-1.4 1.3-1.4-1.3-6-5.8-1.5-1.4 1.5-1.4 2.5-2.4 1.4-1.3 1.4 1.3 2.1 2 6.1-5.9 1.4-1.2z"/></g><g id="check_копия_2"><path class="st0" d="M972 516.4l-.7-.7-6-5.8-.8-.7.8-.7 2.5-2.4.7-.7.7.7 2.8 2.7 6.8-6.5.7-.7.7.7 2.5 2.4.8.7-.8.7-10 9.6-.7.7z"/><path class="st5" d="M979.5 503l-7.5 7.2-3.5-3.4-2.5 2.4 6 5.8 10-9.6-2.5-2.4m0-2.8l1.4 1.3 2.5 2.4 1.5 1.4-1.5 1.4-10 9.6-1.4 1.3-1.4-1.3-6-5.8-1.5-1.4 1.5-1.4 2.5-2.4 1.4-1.3 1.4 1.3 2.1 2 6.1-5.9 1.4-1.2z"/></g></g><g id="Группа_1"><g id="block"><path id="Фигура_674" class="st2" d="M475.9 559.9s-13.3 21.6-14 22.8-.2 1.9.5 1 26.9-28.9 27.6-29.5 1-.7 1.6 0 25.3 27 26 28 1.7 1 1 0-26.4-42.7-27-44-1.4-1.5-2.1 0-8.8 14.9-9.9 16.6-2.4 1.5-3.1 1-21.7-13.1-22.4-13.5c-.7-.3-1.6 0-2 .7-.1.3-.2.5-.1.8v38.3c0 .6.3 2.5 1.6 3.1s35 20.8 35.9 21.2c1.3.6 2.8.6 4.2 0 1.3-.7 35.9-20.9 36.4-21.2.7-.9 1.1-2 1-3.1v-38.8c0-1.5.2-2.4-1-3.1s-34.2-19.1-35.3-19.7-4.8-2.5-4.8-6.5"/><path id="Фигура_676" class="st2" d="M494 573h4c1 0 2.5.1 3.1.8s2.2 2.2 2.6 2.6.2 1.5-1.6 1.5h-8.8c-.7 0-1.6-.2-1.6 1v19.8c0 1.2 1 2.2 2.2 2.2.3 0 .6-.1.9-.2 1.6-.8 28.3-16.6 29-17s1-1.9 1-3.1v-35.1c.1-1.4-.5-2.7-1.6-3.6-1.3-.9-27.2-15.1-28-15.5s-4.3-.8-5.7 0-20.2 11.7-21.2 12.4-2.7 3.4-.5 4.6 10.4 6.2 10.4 6.2"/><path id="Фигура_675" d="M488.6 578h-9.3c-1.8 0-1.3-1.3-1-1.6l3.1-3.1c.4-.4 2.1-.3 2.6-.3h5c.6 0 1.7-.9 1.7-1.3v-1.6c.1-.6.5-1 1-1h2.6c.3.1.6-.2.7-.5 0-.2 0-.4-.2-.5-.3-.3-2.7-3.1-3.1-3.7s-1.3-.3-1.6 0-3.6 3.7-3.6 3.7-.6 1 .5 1h2.6" fill="none" stroke="#262629" stroke-width="2"/></g><path id="Прямоугольник_скругл._углы_718" class="st2" d="M490 514v-69c0-11 9-20 20-20h122c11 0 20 9 20 20v122c0 11-9 20-20 20h-87"/><g id="icon_plus_копия"><g id="Прямоугольник_скругл._углы_967_копия_4"><path class="st3" d="M10 0h55c5.5 0 10 4.5 10 10v55c0 5.5-4.5 10-10 10H10C4.5 75 0 70.5 0 65V10C0 4.5 4.5 0 10 0z" transform="translate(534 469)"/><path class="st1" d="M10 1h55c5 0 9 4 9 9v55c0 5-4 9-9 9H10c-5 0-9-4-9-9V10c0-5 4-9 9-9z" transform="translate(534 469)"/></g><g id="Прямоугольник_скругл._углы_967_копия"><path class="st0" d="M572 518c-1.7 0-3-1.3-3-3v-5h-5c-1.7 0-3-1.3-3-3s1.3-3 3-3h5v-5c0-1.7 1.3-3 3-3s3 1.3 3 3v5h5c1.7 0 3 1.3 3 3s-1.3 3-3 3h-5v5c0 1.7-1.3 3-3 3z"/><path class="st5" d="M572 517c1.1 0 2-.9 2-2v-6h6c1.1 0 2-.9 2-2s-.9-2-2-2h-6v-6c0-1.1-.9-2-2-2s-2 .9-2 2v6h-6c-1.1 0-2 .9-2 2s.9 2 2 2h6v6c0 1.1.9 2 2 2m0 2c-2.2 0-4-1.8-4-4v-4h-4c-2.2 0-4-1.8-4-4s1.8-4 4-4h4v-4c0-2.2 1.8-4 4-4s4 1.8 4 4v4h4c2.2 0 4 1.8 4 4s-1.8 4-4 4h-4v4c0 2.2-1.8 4-4 4z"/></g></g></g><path id="Прямоугольник_1_копия_14" class="st4" d="M423 635v-25h-27v-2h27v-15h2v15h26v2h-26v25h-2zm1080-4v-21h-16v-2h16v-38h-9v-2h9v-12h2v12h7v2h-7v38h20v2h-20v21h-2zm-200 0v-21h-38v21h-2v-21h-38v21h-2v-21h-27v-2h27v-38h-17v-2h17v-9h2v9h19v2h-19v38h38v-29h2v29h38v-9h2v9h3v2h-3v21h-2zm-200 0v-21h-38v21h-2v-21h-38v21h-2v-21h-38v21h-2v-21h-16v-2h16v-9h2v9h38v-38h-10v-2h10v-9h2v9h17v2h-17v38h38v-29h2v29h38v-9h2v9h9v2h-9v21h-2zm-240 0v-21h-38v21h-2v-21h-38v21h-2v-21h-38v21h-2v-21h-38v21h-2v-21h-21v-2h21v-38h-11v-2h11v-9h2v9h13v2h-13v38h38v-9h2v9h38v-38h-7v-2h7v-9h2v9h17v2h-17v38h38v-29h2v29h38v-9h2v9h8v2h-8v21h-2zm608-17v-4h-4v-2h4v-4h2v4h4v2h-4v4h-2zm-149 0v-4h-4v-2h4v-4h2v4h4v2h-4v4h-2zm-142 0v-4h-4v-2h4v-4h2v4h4v2h-4v4h-2zm-228 0v-4h-4v-2h4v-4h2v4h4v2h-4v4h-2zm-286 0v-4h-4v-2h4v-4h2v4h4v2h-4v4h-2zm77-25v-4h-4v-2h4v-4h2v4h4v2h-4v4h-2zm-320-5v-4h-4v-2h4v-4h2v4h4v2h-4v4h-2zm767-10v-4h-4v-2h4v-4h2v4h4v2h-4v4h-2zm-767-76v-48h-19v-2h19v-38h-11v-2h11v-22h2v22h38v-22h2v22h12v2h-12v38h4v2h-4v8h-2v-8h-38v48h-2zm40-50v-38h-38v38h38zm800 22v-20h-23v-2h23v-38h-38v14h-2v-14h-18v-2h18v-19h2v19h38v-3h2v3h8v2h-8v38h13v2h-13v20h-2zm-240-4v-16h-9v-2h9v-38h-38v16h-2v-16h-38v38h11v2h-11v16h-2v-16h-16v-2h16v-38h-38v36h-2v-36h-38v16h-2v-16h-10v-2h10v-14h2v14h38v-14h2v14h38v-14h2v14h38v-14h2v14h38v-14h2v14h32v2h-32v38h18v2h-18v16h-2zm480-8v-4h-4v-2h4v-4h2v4h4v2h-4v4h-2zm-800-1v-7h-20v-2h20v-38h-9v-2h9v-6h2v6h15v2h-15v38h4v2h-4v7h-2zm800-19v-28h-29v-2h29v-15h2v15h7v2h-7v28h-2zm-314-23v-4h-4v-2h4v-4h2v4h4v2h-4v4h-2zm-352-1v-4h-4v-2h4v-4h2v4h4v2h-4v4h-2zm-346 0v-4h-4v-2h4v-4h2v4h4v2h-4v4h-2zm772-19v-4h-4v-2h4v-4h2v4h4v2h-4v4h-2z"/></g></svg>