<svg xmlns="http://www.w3.org/2000/svg" xmlns:xlink="http://www.w3.org/1999/xlink" viewBox="0 0 142 142"><defs><path id="a" d="M0 0h142v142H0z"/></defs><clipPath id="b"><use xlink:href="#a"/></clipPath><g clip-path="url(#b)"><path d="M10 0h122c5.5 0 10 4.5 10 10v122c0 5.5-4.5 10-10 10H10c-5.5 0-10-4.5-10-10V10C0 4.5 4.5 0 10 0z" fill="#f7fafb"/><g fill="none" stroke="#dbdee5" stroke-width="2" stroke-linecap="round"><path d="M55.6 67.5L41.8 90c-.7 1.2-.2 1.8.5 1s26.6-28.5 27.2-29.2.9-.7 1.5 0 25 26.7 25.6 27.6 1.6.9 1 0S71.6 47.3 71 46s-1.3-1.5-2.1 0-8.7 14.7-9.7 16.4c-1.1 1.7-2.4 1.5-3.1 1S34.7 50.4 34 50.1s-1.6 0-1.9.7c-.1.2-.1.5-.1.8v37.9c0 .6.3 2.4 1.5 3.1l35.4 21c1.3.6 2.8.6 4.1 0 1.3-.7 35.4-20.7 35.9-21 .8-.6 1.2-1.6 1.1-2.6V51c0-1.5.1-2.2-1.1-3S75.2 29.2 74.1 28.6a6.83 6.83 0 00-5.6 0C66.8 29.5 43 43 43 43"/><path d="M67 87h-9c-1.9 0-2.5-.9-1.7-1.8l3.3-3.4c.5-.6 1.3-.9 2.1-.8H68c1.2 0 2-.4 2-1.6V78a1.08 1.08 0 011-1h2c.9 0 1.3-.7 1-1s-2.8-3.1-3.2-3.7c-.6-.6-1.5-.6-2.1 0-.5.6-2.2 2.3-3 3.1s-.9 1.6.3 1.6h1.3m7.2 4H79c1.1.1 2 .7 2.7 1.5.7.7 1.8 1.7 2.3 2.5s-.2 2-2 2h-9c-.8 0-3 .2-3 3.4V105c0 1.5 2.1 4.1 4.8 2.7S101.6 92 103.3 91s1.7-2.6 1.7-3.8V54.8c.1-1.5-.5-2.9-1.7-3.8-1.4-.9-28.1-16.1-28.9-16.5s-4.6-.9-6.1 0L47.7 46.9C43.8 49.3 39.5 45 43 43m-17 66v-5m78-78h4m8 78v5m-8 7h-4m12-83v5m-78 78h-4m-8-78v-5m8-7h4"/></g><path d="M115 120a4.95 4.95 0 100-10 4.95 4.95 0 100 10m-88 0a4.95 4.95 0 100-10 4.95 4.95 0 100 10m88-88a4.95 4.95 0 005-5 4.95 4.95 0 10-10 0 4.95 4.95 0 005 5m-88 0a4.95 4.95 0 005-5 4.95 4.95 0 00-5-5 4.95 4.95 0 00-5 5 4.95 4.95 0 005 5m88 90c-3.9 0-7-3.1-7-7s3.1-7 7-7 7 3.1 7 7-3.1 7-7 7zm-88 0c-3.9 0-7-3.1-7-7s3.1-7 7-7 7 3.1 7 7-3.1 7-7 7zm88-88c-3.9 0-7-3.1-7-7s3.1-7 7-7 7 3.1 7 7-3.1 7-7 7zm-88 0c-3.9 0-7-3.1-7-7s3.1-7 7-7 7 3.1 7 7-3.1 7-7 7z" fill="#dbdee5"/></g></svg>