<svg viewBox="0 0 44 44" fill="none" xmlns="http://www.w3.org/2000/svg"><rect width="44" height="44" rx="12" fill="#5452CE"/><g clip-path="url(#clip0_2444_2394)"><path d="M7.334 20.859a14.514 14.514 0 013.256-9.18c.017-.021.034 0 .017.024a13.765 13.765 0 00-1.67 12.518c.862 2.397 3.59 4.251 6.127 4.251 5.42 0 6.936-5.266 6.936-6.022 0 1.396 1.652 6.022 6.64 6.022 2.252 0 5.381-1.218 6.495-4.629a13.773 13.773 0 00-2.253-12.755c-.008-.01.005-.02.015-.01a14.66 14.66 0 013.281 13.213 14.66 14.66 0 01-3.24 6.216 14.611 14.611 0 01-19.253 2.39 14.646 14.646 0 01-4.656-5.235 14.67 14.67 0 01-1.695-6.803zm14.655-6.216l-9.864 10.088L21.99 9.129l9.885 15.602-9.885-10.088zm-4.586 6.966l1.666-1.73h5.862l1.665 1.73h-9.193zm2.899-2.97l1.709-1.753 1.708 1.753h-3.417z" fill="#fff"/></g><defs><clipPath id="clip0_2444_2394"><path fill="#fff" transform="translate(7.334 7.333)" d="M0 0h29.333v29.333H0z"/></clipPath></defs></svg>