<svg xmlns="http://www.w3.org/2000/svg" viewBox="0 0 23 23"><path fill-rule="evenodd" fill="#C1CADA" d="M20.526 5.615a11.09 11.09 0 00-4.004-4.104C14.836.502 12.996-.002 11-.002c-1.996 0-3.837.504-5.522 1.513a11.082 11.082 0 00-4.004 4.104C.49 7.343-.002 9.23-.002 11.276c0 2.457.7 4.667 2.099 6.63 1.399 1.962 3.206 3.321 5.422 4.074.258.049.449.015.573-.102a.584.584 0 00.186-.441l-.007-.793c-.005-.499-.007-.935-.007-1.306l-.33.058a4.12 4.12 0 01-.795.051 5.948 5.948 0 01-.996-.102 2.208 2.208 0 01-.959-.44 1.875 1.875 0 01-.631-.904l-.143-.338a3.705 3.705 0 00-.451-.748c-.205-.274-.413-.46-.623-.558l-.1-.073a1.15 1.15 0 01-.187-.177.799.799 0 01-.128-.206c-.029-.068-.005-.125.071-.169.077-.044.215-.066.416-.066l.286.044c.191.039.427.157.709.353.282.196.513.45.695.763.22.402.484.708.795.918.31.211.623.316.938.316.315 0 .587-.025.817-.074a2.78 2.78 0 00.644-.22c.086-.656.32-1.16.702-1.512a9.672 9.672 0 01-1.468-.265 5.717 5.717 0 01-1.347-.573 3.88 3.88 0 01-1.153-.984c-.305-.391-.556-.905-.752-1.541-.196-.637-.294-1.371-.294-2.203 0-1.185.378-2.193 1.132-3.025-.353-.891-.32-1.889.1-2.996.277-.088.688-.022 1.232.198.545.221.943.409 1.197.566.253.156.456.289.608.396A9.964 9.964 0 0111 5.446c.945 0 1.862.127 2.751.381l.544-.352c.372-.235.812-.45 1.318-.646s.893-.25 1.16-.162c.43 1.107.468 2.105.115 2.996.754.832 1.132 1.841 1.132 3.025 0 .832-.099 1.569-.294 2.21-.196.641-.449 1.155-.759 1.542a4.03 4.03 0 01-1.161.976 5.728 5.728 0 01-1.346.573 9.572 9.572 0 01-1.468.265c.496.44.744 1.135.744 2.085v3.098c0 .176.06.323.179.44.12.118.308.152.566.103 2.216-.754 4.023-2.112 5.422-4.075s2.099-4.172 2.099-6.63c-.001-2.045-.493-3.932-1.476-5.66z"/></svg>