<svg version="1.0" xmlns="http://www.w3.org/2000/svg" width="933.333" height="933.333" viewBox="0 0 700 700"><path d="M347.7 45.3c-.5 1.3-42.4 67.9-49.2 78.2-1.8 2.7-14 22.1-27.2 43-50.5 80.1-103.6 164.1-105.8 167.5-2.4 3.8-14.3 22.6-16 25.3-.5.9-6.4 10.1-12.9 20.4-6.6 10.4-14.2 22.4-16.9 26.8l-4.8 8 9.3-9.6c5.1-5.3 25.4-26.1 45.1-46.2 19.7-20.1 39.6-40.5 44.4-45.4 4.7-4.8 24.6-25.2 44.2-45.2 19.6-20 40-40.9 45.5-46.5 5.4-5.5 18-18.4 27.9-28.5l18-18.3 14.4 14.8c8 8.2 31.2 31.9 51.7 52.7 20.4 20.9 42.4 43.3 48.9 50 13.2 13.5 75 76.5 101.7 103.7 9.5 9.6 16.9 16.8 16.4 16-.8-1.5-59.4-94.4-66.9-106-2.3-3.6-9.7-15.3-16.5-26-12.9-20.4-21.5-34.1-28.5-45-5.4-8.4-25.2-39.7-28.5-45-1.4-2.2-4.7-7.5-7.5-11.8-4.4-6.9-15.6-24.6-41.3-65.2-4.7-7.4-10.1-16-12-19-2-3-5-7.8-6.7-10.5-1.7-2.8-7.4-11.6-12.6-19.7-5.2-8.1-10-15.9-10.7-17.3-1.4-2.8-2.7-3.2-3.5-1.2z"/><path d="M613.1 96c10.9 14.2 23.6 35.3 32 52.8 7.6 16.1 8.2 17.3 13.4 31.1 6.4 17.2 14.2 47.6 16 62.6.3 2.7.8 6.1 1 7.5.3 1.4.7 5 1 8 .3 3 .7 7.7 1 10.5.8 7 .8 39.7.1 47.5-.9 9.2-1.7 16.1-2.1 19-.2 1.4-.7 4.5-1 7-.3 2.5-1.2 7.9-2.1 12-.9 4.1-1.8 8.6-2 10-1 5.2-6.1 24.2-7.4 27.5-.4 1.1-1.8 4.9-3.1 8.5-2 5.8-6.2 15-11.4 25-6.9 13.1-24 32.8-38.1 43.9-20.5 15.9-51.7 29.5-75.4 32.8-1.9.3-5.5.9-8 1.3-8.4 1.6-40.5.5-51.5-1.8-42.4-8.6-74.9-30.8-99.8-68-13-19.5-25.4-51.5-25.8-66.9 0-1.5-1.2 1.4-2.5 6.6-1.3 5.1-3.6 12.1-4.9 15.5-1.4 3.5-2.5 6.6-2.5 7 0 1.6-12.1 25-16.5 31.7-12.9 20-25.1 32.9-47 49.7-4.9 3.8-21.8 12.8-30.8 16.3-5.6 2.3-20.3 6.6-25.2 7.5-17.8 3-21.3 3.2-37.5 3-14.7-.3-19.2-.7-28.5-2.9-14.4-3.4-25.3-7.5-38.4-14.3-14-7.3-15.9-8.5-27.3-17.2-18.1-13.8-35.1-33.9-44.5-52.7-4.1-8.1-10.8-26.7-13.8-38.5-2-7.6-1.8-6.8-4.5-19.5-2.1-9.9-2.5-12-3.5-20.1-.3-2.3-.8-5.1-1-6.2-1.1-6.1-2-22.9-2-39.2 0-16.9 1.1-38.4 1.9-39.9.2-.3.6-3 1-5.9 2.4-20.6 9.2-47.2 17.8-70.2 8.2-22 20.1-45.5 32.9-64.8 10.3-15.5 2.6-6.4-11.9 14-2.6 3.7-5.4 7.9-6.3 9.5-.9 1.5-3.7 5.9-6.1 9.8-10.2 16.3-23.2 44.7-30.7 67-6.6 19.9-12.9 46.5-14.6 62-.3 2.7-.8 6-1 7.3C.6 293-.1 335.9 1.4 351c.4 4.1.9 9.3 1.1 11.5.7 7 1.6 12.6 3.1 20.9C8.5 398.5 8.4 398 11 408c3.9 15.6 10.7 36.1 14.9 45.5.5 1.1 1.8 4 2.8 6.5 2.4 6 13.3 27.9 17.9 36 24.9 43.9 63.3 85.2 106.4 114.6 25 17.1 55.6 32.2 86 42.4 12.2 4 40.4 11.3 48.5 12.4 2.2.3 5.1.8 6.5 1 1.4.2 4.6.7 7.1 1 2.5.4 5.7.9 7 1.1 10.9 1.8 52.1 2.7 65.9 1.4 13.8-1.4 19.1-1.9 22.9-2.5 52.9-7.7 101.3-26.2 145.6-55.7 7.8-5.2 22.8-16.2 26.1-19.2.6-.6 4.8-4.1 9.2-8 49-42.1 88.3-104.3 106.2-167.8 2.1-7.5 2.4-9.1 3.5-14 .2-1.2 1.1-5.4 1.9-9.2 1.7-7.5 2.1-9.6 3.6-19.3 4.2-25.3 4.9-67.1 1.6-93.2-.6-4.8-1.8-13.5-2.2-15.5-.2-1-.6-3.7-.9-6-1-6.3-7.1-31-10.3-41.5-6.7-21.4-17.3-46.4-27.7-65.2-10.7-19.2-29.8-46.5-39.9-57.2l-3.9-4.1 3.4 4.5z"/><path d="M344.1 233.8c-2.4 2.6-11.3 11.8-19.9 20.4L308.7 270h40.8c22.5 0 40.5-.3 40.1-.8-.5-.4-9.4-9.6-19.9-20.5-10.5-10.8-19.5-19.7-20.1-19.7-.6.1-3.1 2.2-5.5 4.8zM269.5 310c-16 16.3-28.5 29.4-28.5 30.1 0 .3 49.1.6 109 .5h109.1l-7.9-8c-4.4-4.5-13.4-13.7-20-20.6l-12-12.5h-69.7l-69.6-.1-10.4 10.6z"/></svg>