<svg xmlns="http://www.w3.org/2000/svg" viewBox="0 0 42 36.09"><path d="M14.63 1a2.09 2.09 0 00-1.77-1H2.1A2.1 2.1 0 000 2.1a2.12 2.12 0 00.32 1.12l2.77 4.07 13.85-3z" fill="#c9f4ff"/><path d="M17 4.37a2.11 2.11 0 00-1.78-1H4.5a2.09 2.09 0 00-1.84 3.24l3.09 4.9 14.31-2.24z" fill="#51b9ff"/><path d="M5.62 11.31a2.14 2.14 0 01-.19-1.88 2.11 2.11 0 012-1.34h10.72a2.1 2.1 0 011.78 1l9.63 15.27a2.12 2.12 0 01.32 1.12 2.15 2.15 0 01-.32 1.12l-5.38 8.53a2.11 2.11 0 01-3.56 0zm27.12 4.88a2.11 2.11 0 003.56 0l1.85-2.93 3.53-5.6A2.12 2.12 0 0042 6.54a2.15 2.15 0 00-.32-1.12L38.88 1a2.11 2.11 0 00-1.78-1H26.34a2.1 2.1 0 00-2.1 2.1 2 2 0 00.33 1.12z" fill="#007bfc"/></svg>