<svg xmlns="http://www.w3.org/2000/svg" width="273" height="148.565"><g data-name="шьфп копия 10"><path data-name="Прямоугольник 1 копия 15" d="M200 139.283v-13h-38v8h-2v-8h-29v-2h29v-9h2v9h38v-7h2v7h38v-38h-11v-2h11v-4h2v4h11v2h-11v38h21v2h-21v5h-2v-5h-38v13zm67-49v-4h-4v-2h4v-4h2v4h4v2h-4v4z" fill="#dbdee5"/><path data-name="Прямоугольник 1 копия 34" d="M43 69.256v15h24.548v2H43v38h6v2h-6v4h-2v-4H0v-2h41v-38H10v-2h31v-15zm70 51v4h4v2h-4v4h-2v-4h-4v-2h4v-4z" fill="#dbdee5"/><g data-name="Группа 106"><g data-name="Сгруппировать 831"><g data-name="Группа 107"><path data-name="Прямоугольник, скругл. углы1232" d="M175.766 26.275h9.189a26.953 26.953 0 0126.953 26.953v37.734a5.391 5.391 0 01-5.391 5.391H91.158m-5.391-35.507v-7.617a26.953 26.953 0 0126.953-26.954" fill="none" stroke="#212225" stroke-linecap="round" stroke-width="2"/><path data-name="Прямоугольник, скругл. углы1232 копия" d="M112.72 26.275h0a26.953 26.953 0 0126.953 26.953v37.734" fill="none" stroke="#212225" stroke-linecap="round" stroke-width="2"/><path data-name="Прямоугольник, скругл. углы1235" d="M138.326 96.353a3.504 3.504 0 010 7.008H65.009a3.504 3.504 0 010-7.008h17.128" fill="none" stroke="#212225" stroke-linecap="round" stroke-width="2"/><path data-name="Прямоугольник, скругл. углы1235 копия" d="M103.286 96.353a3.504 3.504 0 010 7.008" fill="none" stroke="#212225" stroke-linecap="round" stroke-width="2"/><path data-name="Прямоугольник, скругл. углы1232 копия 2" d="M116.949 34.428a19.564 19.564 0 0119.624 19.5V88.68a3.913 3.913 0 01-3.925 3.9h-12.966l-7-24.559h8.634l4.986-.86-3.6-17.4c0-1.346-25.233 1.5-24.922 0a19.537 19.537 0 0119.169-15.333z" fill="#e4eff8"/><path data-name="Прямоугольник, скругл. углы1232 копия 4" d="M112.518 29.89h0a23.98 23.98 0 0124.054 23.906v34.007a4.8 4.8 0 01-4.81 4.78h-18.22" fill="none" stroke="#5452ce" stroke-linecap="round" stroke-width="2"/><path data-name="Прямоугольник, скругл. углы1232 копия 4" d="M112.965 29.891h0a23.98 23.98 0 00-24.054 23.906v8.774" fill="none" stroke="#5452ce" stroke-linecap="round" stroke-width="2"/><g data-name="Группа 108" fill="none" stroke="#dbdee5" stroke-linecap="round" stroke-width="2"><path data-name="Фигура 1237" d="M145.064 99.478v38.813"/><path data-name="Фигура 1237 копия 2" d="M182.798 99.478v28.031"/><path data-name="Фигура 1237 копия 3" d="M161.236 99.478v48.086"/></g><path data-name="Эллипс 1257" d="M161.127 48.375a6.47 6.47 0 11-6.887 1.1c1.143-1.018 1.066-2.73 1.066-3.792V3.634c0-3.03 6.469-4.162 6.469.539v35.039" fill="none" stroke="#dbdee5" stroke-linecap="round" stroke-width="2"/><g data-name="Эллипс 1257 копия" transform="translate(155.845 51.681)" fill="none" stroke="#212225" stroke-linecap="round" stroke-width="2"><circle cx="2.658" cy="2.658" r="2.658" stroke="none"/><circle cx="2.658" cy="2.658" r="1.658"/></g><path data-name="Фигура 1259" d="M163.392 4.712h14.555a1.773 1.773 0 011.078 3.234c-1.217.771-3.944 2.442-4.312 2.7a.9.9 0 00.176 1.561c.778.38 2.823 1.492 4.136 2.213 1.93.9 1.59 3.234-.926 3.234h-9.316" fill="none" stroke="#5452ce" stroke-linecap="round" stroke-width="2"/><path data-name="Контур 688" d="M145.582 26.275h-12.3" fill="none" stroke="#212225" stroke-linecap="round" stroke-width="2"/><path data-name="Контур 689" d="M129.371 67.807s-46.463.075-48.438 0-2.4 1.037-1.874 2.422 5.627 18.711 6.658 21.873 2.262 4.243 6.087 4.243h9.532" fill="none" stroke="#212225" stroke-linecap="round" stroke-width="2"/><path data-name="Контур 690" d="M100.975 67.374s-4.331-14.957-4.685-15.883-.067-1.674 1.256-1.623 29.223 0 29.223 0" fill="none" stroke="#212225" stroke-linecap="round" stroke-width="2"/><g data-name="Контур 691" fill="#fff"><path d="M90.64 78.299l-3.84.1-.101.002-.098.023a.629.629 0 01-.753-.471l-.01-.044-.013-.04-1.428-4.405a.629.629 0 01.403-.698l3.842-.099.1-.003.098-.022a.63.63 0 01.754.47l.01.042.012.041 1.428 4.406a.629.629 0 01-.403.699z"/><path d="M85.54 73.746l1.184 3.654 3.177-.082-1.183-3.653-3.177.081m-.89-1.977l3.965-.102a1.628 1.628 0 011.952 1.22l1.444 4.457a1.629 1.629 0 01-1.22 1.952l-3.966.101a1.627 1.627 0 01-1.952-1.22l-1.444-4.456a1.628 1.628 0 011.22-1.952z" fill="#212225"/></g><g data-name="Контур 692" fill="#fff"><path d="M107.03 58.517l-3.84.099-.101.003-.098.022a.629.629 0 01-.753-.47l-.01-.044-.013-.04-1.428-4.405a.629.629 0 01.403-.698l3.842-.1.1-.002.098-.022a.63.63 0 01.754.47l.01.042.012.041 1.428 4.406a.629.629 0 01-.403.699z"/><path d="M101.93 53.964l1.184 3.654 3.177-.082-1.183-3.653-3.177.081m-.89-1.977l3.965-.102a1.628 1.628 0 011.953 1.22l1.443 4.457a1.629 1.629 0 01-1.22 1.952l-3.966.1a1.627 1.627 0 01-1.952-1.218l-1.444-4.457a1.628 1.628 0 011.22-1.952z" fill="#212225"/></g></g></g></g></g></svg>