<svg xmlns="http://www.w3.org/2000/svg" width="301" height="111"><path data-name="Прямоугольник 538 копия 4" d="M258 111V97h-38v14h-2V97h-21v-2h21V84h2v11h38V57h-36v-2h36V17h-38v10h-2V17h-31v-2h31V0h2v15h38V0h2v15h41v2h-41v38h21v2h-21v38h11v2h-11v14zm-180 0V97H40v14h-2V97h-8v-2h8V58H20v-2h18V17H0v-2h38V0h2v15h38V0h2v15h30v2H80v10h-2V17H40v39h35v2H40v37h38V84h2v11h20v2H80v14zm207-10v-4h-4v-2h4v-4h2v4h4v2h-4v4zM78 78v-4h-4v-2h4v-4h2v4h4v2h-4v4zM4 62v-4H0v-2h4v-4h2v4h4v2H6v4zm214-15v-4h-4v-2h4v-4h2v4h4v2h-4v4z" fill="#dbdee5"/><g data-name="Группа 90" stroke-width="2"><path data-name="Прямоугольник, скругл. углы 662" d="M119.713 82.344H97.294a5.837 5.837 0 01-5.837-5.837V47.322a5.837 5.837 0 015.837-5.837h80.89m21.485 0h3.274a5.837 5.837 0 015.837 5.837v29.185a5.837 5.837 0 01-5.837 5.837h-11.169" fill="none" stroke="#dbdee5" stroke-linecap="round"/><path data-name="Forma 1" d="M123.165 78.55c5.23 9 14.259 17.067 29.353 22.3a3.185 3.185 0 002.088 0c38.162-13.221 37.564-44.551 37.128-67.427-.047-2.458-.092-4.78-.092-7.027a3.187 3.187 0 00-3.188-3.187c-13.635 0-24.016-3.917-32.669-12.327a3.188 3.188 0 00-4.445 0c-8.652 8.41-19.032 12.327-32.666 12.327a3.187 3.187 0 00-3.188 3.187c0 2.247-.044 5.737-.091 8.2" fill="none" stroke="#212225" stroke-linecap="round"/><path data-name="Forma 1 копия" d="M133.009 79.875c4.006 4.736 10.191 9.116 19.1 12.219a2.459 2.459 0 001.62 0c29.611-10.315 29.147-34.759 28.808-52.607-.036-1.918-.071-3.73-.071-5.482a2.48 2.48 0 00-2.474-2.486c-10.58 0-18.635-3.056-25.349-9.617a2.464 2.464 0 00-3.449 0c-6.714 6.561-14.767 9.617-25.346 9.617a2.48 2.48 0 00-2.474 2.486c0 1.753-.034.915-.071 2.833" fill="none" stroke="#5452ce" stroke-linecap="round"/><g data-name="Сгруппировать 890"><path data-name="Прямоугольник, скругл. углы 3 копия 2" d="M132.271 72.927a5 5 0 01-5.019-4.985V55.115a5 5 0 015.019-4.988h8.6a5 5 0 015.019 4.988v12.827a5 5 0 01-5.019 4.988zm24 0a5 5 0 01-5.019-4.985V55.115a5 5 0 015.019-4.988h8.6a5 5 0 015.019 4.988v12.827a5 5 0 01-5.019 4.988z" fill="none" stroke="#dbdee5"/><path data-name="Прямоугольник, скругл. углы 3 копия 3" d="M107.894 72.927a5 5 0 01-5.019-4.985V55.115a5 5 0 015.019-4.988h8.6a5 5 0 015.019 4.988v12.827a5 5 0 01-5.019 4.988z" fill="#e6f2ff" stroke="#5452ce"/><path data-name="Shape 1749" d="M116.439 57.787l-5.369 7.612a.753.753 0 01-.63.354.865.865 0 01-.64-.31l-1.362-1.814" fill="none" stroke="#5452ce" stroke-linecap="round" stroke-linejoin="round"/></g></g></svg>