<svg width="208" height="105" fill="none" xmlns="http://www.w3.org/2000/svg"><path d="M122.686 15A40.839 40.839 0 00105 11c-22.643 0-41 18.355-41 41 0 22.643 18.357 41 41 41 22.644 0 41-18.357 41-41a40.85 40.85 0 00-3.911-17.5m-3.843-6.5c.7.968 1.36 1.97 1.975 3" stroke="#5452CE" stroke-width="2" stroke-linecap="round"/><path d="M70.95 37.5A36.88 36.88 0 0068 52c0 20.434 16.566 37 37 37 9.785 0 18.682-3.799 25.299-10M73.866 32a37.203 37.203 0 018.634-9.376M88.25 19c5.03-2.558 10.721-4 16.75-4 20.435 0 37 16.566 37 37 0 4.764-.9 9.318-2.54 13.5m-3.325 6.5a37.187 37.187 0 01-2.15 3" stroke="#5452CE" stroke-width="2" stroke-linecap="round"/><path d="M108.06 64.89a3.619 3.619 0 01-7.237 0V51.033a3.618 3.618 0 117.237 0v13.855zm0-25.403a3.619 3.619 0 11-7.237 0 3.619 3.619 0 017.237 0z" fill="#F7FAFB" stroke="#212225" stroke-width="2"/><path d="M30.561 16.005h2v-7h7v-2h-7v-7h-2v7h-7v2h7v7zm43 88h2v-7h7v-2h-7v-7h-2v7h-7v2h7v7zm-66.001-.002h2v-7h7v-2h-7v-7h-2v7h-7v2h7v7zm22 0h2v-7h7v-2h-7v-7h-2v7h-7v2h7v7zm0-22h2v-7h7v-2h-7v-7h-2v7h-7v2h7v7zm22.5 0h2v-7h7v-2h-7v-7h-2v7h-7v2h7v7zm0-66h2v-7h7v-2h-7v-7h-2v7h-7v2h7v7zm0 22h2v-7h7v-2h-7v-7h-2v7h-7v2h7v7zm21.5-22h2v-7h7v-2h-7v-7h-2v7h-7v2h7v7z" fill="#DBDEE5"/><path d="M30.561 16.004h2v-7h7v-2h-7v-7h-2v7h-7v2h7v7zm43 88h2v-7h7v-2h-7v-7h-2v7h-7v2h7v7zm-66.001-.002h2v-7h7v-2h-7v-7h-2v7h-7v2h7v7zm22 0h2v-7h7v-2h-7v-7h-2v7h-7v2h7v7zm0-22h2v-7h7v-2h-7v-7h-2v7h-7v2h7v7zm22.5 0h2v-7h7v-2h-7v-7h-2v7h-7v2h7v7zm0-66h2v-7h7v-2h-7v-7h-2v7h-7v2h7v7zm0 22h2v-7h7v-2h-7v-7h-2v7h-7v2h7v7zm21.5-22h2v-7h7v-2h-7v-7h-2v7h-7v2h7v7zM177.443 16h-2V9h-7V7h7V0h2v7h7v2h-7v7zm-43.002 88h-2v-7h-7v-2h7v-7h2v7h7v2h-7v7zm65.999 0h-2v-7h-7v-2h7v-7h2v7h7v2h-7v7zm-22 0h-2v-7h-7v-2h7v-7h2v7h7v2h-7v7zm0-22h-2v-7h-7v-2h7v-7h2v7h7v2h-7v7zm-22.5 0h-2v-7h-7v-2h7v-7h2v7h7v2h-7v7zm0-66h-2V9h-7V7h7V0h2v7h7v2h-7v7zm0 22h-2v-7h-7v-2h7v-7h2v7h7v2h-7v7zm-21.5-22h-2V9h-7V7h7V0h2v7h7v2h-7v7z" fill="#DBDEE5"/></svg>