<svg width="405" height="140" fill="none" xmlns="http://www.w3.org/2000/svg"><path fill-rule="evenodd" clip-rule="evenodd" d="M6.614 135.241v-24.968l-.06-42.59.06-40.635v-5.2h2.095V66.58h39.813V43.694h2.095V66.58h45.051v2.081h-45.05v39.532h24.096v2.08H50.617v10.404h-2.095v-10.404H8.709v24.968H6.614zm41.908-27.048V68.661H8.709v39.532h39.813zm344.693 27.048v-24.968h-39.812v12.484h-2.096v-12.484h-16.763v-2.08h16.763V93.629h2.096v14.564h39.812V68.661h-16.763v-2.08h16.763V27.048h-20.954v-2.081h20.954v-3.121h2.096V135.24h-2.096zm2.096-66.58v39.532-39.532z" fill="#DBDEE5"/><path d="M309.399 40.572V27.048h-10.477v-2.08h10.477V0h2.095v24.968h39.813V14.564h2.095v10.404h24.097v2.08h-24.097v12.484h-2.095V27.048h-39.813v13.524h-2.095z" fill="#DBDEE5"/><path d="M87.287 30.17v-4.162h-4.191v-2.08h4.19v-4.162h2.096v4.161h4.191v2.081h-4.19v4.161h-2.096zm182.3 22.886v-4.161h-4.191v-2.08h4.191v-4.162h2.095v4.161h4.191v2.08h-4.191v4.162h-2.095zm-218.97 84.265v-4.161h-4.191v-2.081h4.19v-4.161h2.096v4.161h4.191v2.081h-4.19v4.161h-2.096z" fill="#5452CE"/><path d="M256.29 116.509l24.295-9.65-7.289-10.454-18.627 19.299 1.621.805z" fill="#D6D5FF"/><path d="M314.429 125.748l-3.067-6.431-2.014-3.807a4.767 4.767 0 00-4.464-2.219c-3.182.176-12.148 6.434-12.148 6.434s14.216 4.955 18.125 6.022c3.909 1.068 3.568.001 3.568.001v0z" stroke="#5452CE" stroke-width="2" stroke-linecap="round"/><path d="M281.394 106.859s-21.752 8.01-24.295 8.843c-2.543.832-3.797.274-4.049-1.609-.253-1.883-2.112-19.558-2.43-22.515-.317-2.958-1.928-3.309-3.239-4.021-1.312-.713-20.042-10.243-22.676-11.258-2.634-1.016-2.718-4.523 0-4.825 2.719-.303 138.435-19.57 142.534-20.1 4.098-.53 4.123 1.986 2.429 4.02-1.694 2.035-50.613 67.266-51.831 68.349-1.217 1.083-2.953 3.097-5.669 2.413-2.715-.685-16.944-5.098-18.626-5.63a9.757 9.757 0 01-4.859-3.216c-1.188-1.629-15.387-20.91-15.387-20.91" stroke="#5452CE" stroke-width="2"/><path d="M253.844 115.508a12.046 12.046 0 003.765-3.054c4.692-5.075 13.068-14.14 14.068-15.245a15.21 15.21 0 014.859-3.217c1.617-.684 93.942-41.815 93.942-41.815M249.806 89.165l119.05-36.182" stroke="#5452CE" stroke-width="2"/><ellipse cx="181.489" cy="75.216" rx="27.98" ry="27.782" stroke="#212225" stroke-width="2"/><path d="M181.07 119.313c-22.214.001-41.12-16.076-44.537-37.876-3.416-21.807 9.677-42.827 30.846-49.53 21.169-6.704 44.1 2.909 54.027 22.647" stroke="#5452CE" stroke-width="2" stroke-linecap="round"/><path d="M254.919 115.475c-10.228 7.357-40.651-11.624-40.959-22.116-.308-10.492 15.54-8.622 11.21 2.973-4.329 11.596-22.55 22.964-44.841 22.964" stroke="#5452CE" stroke-width="2" stroke-linecap="round"/><path d="M251.157 121.275c0 5.745-4.691 10.403-10.477 10.403H119.223c-5.786 0-10.477-4.658-10.477-10.403V29.571c0-5.745 4.691-10.403 10.477-10.403H240.68c5.786 0 10.477 4.658 10.477 10.403v28.01" stroke="#DBDEE5" stroke-width="2" stroke-linecap="round"/><path d="M139.623 9.363c0-1.165.953-2.121 2.143-2.121v-2c-2.281 0-4.143 1.838-4.143 4.12h2zm2.143-2.121c1.191 0 2.144.956 2.144 2.12h2c0-2.282-1.862-4.12-4.144-4.12v2zm2.144 2.12a2.132 2.132 0 01-2.144 2.122v2c2.282 0 4.144-1.838 4.144-4.121h-2zm-2.144 2.122a2.132 2.132 0 01-2.143-2.121h-2c0 2.283 1.862 4.12 4.143 4.12v-2zm-15.763-2.121c0-1.165.953-2.121 2.143-2.121v-2c-2.281 0-4.143 1.838-4.143 4.12h2zm2.143-2.121c1.191 0 2.143.956 2.143 2.12h2c0-2.282-1.861-4.12-4.143-4.12v2zm2.143 2.12a2.132 2.132 0 01-2.143 2.122v2c2.282 0 4.143-1.838 4.143-4.121h-2zm-2.143 2.122a2.132 2.132 0 01-2.143-2.121h-2c0 2.283 1.862 4.12 4.143 4.12v-2zm-14.715-2.121c0-1.165.953-2.121 2.143-2.121v-2c-2.281 0-4.143 1.838-4.143 4.12h2zm2.143-2.121c1.19 0 2.143.956 2.143 2.12h2c0-2.282-1.862-4.12-4.143-4.12v2zm2.143 2.12a2.132 2.132 0 01-2.143 2.122v2c2.281 0 4.143-1.838 4.143-4.121h-2zm-2.143 2.122a2.132 2.132 0 01-2.143-2.121h-2c0 2.283 1.862 4.12 4.143 4.12v-2z" fill="#DBDEE5"/><path d="M179.901 87.82l-7.512-7.458a3.314 3.314 0 01.001-4.71 3.371 3.371 0 014.743 0l4.78 4.745 8.949-11.848a3.37 3.37 0 014.696-.664 3.315 3.315 0 01.67 4.663l-11.271 14.917a3.37 3.37 0 01-5.056.356z" fill="#D6D5FF" stroke="#5452CE" stroke-width="2" stroke-linejoin="round"/><path d="M179.892 72.946l3.319-4.398a3.373 3.373 0 013.607-1.204M175.746 88.61a3.37 3.37 0 01-3.495-.785l-7.512-7.459a3.311 3.311 0 01-.475-4.134 3.365 3.365 0 013.957-1.365" stroke="#5452CE" stroke-width="2" stroke-linecap="round" stroke-linejoin="round"/><path d="M.5 66.585h6.736v2.095H.5v-2.095zm391.443 0H404.5v2.095h-12.557v-2.095zm0-41.605h10.247v2.095h-10.247V24.98zM3.022 108.189h3.95v2.107h-3.95v-2.107zm391.248 0h6.114v2.107h-6.114v-2.107z" fill="#DBDEE5"/></svg>