<svg version="1.1" id="Слой_1" xmlns="http://www.w3.org/2000/svg" x="0" y="0" viewBox="0 0 56 63" xml:space="preserve"><style>.st0{fill:none}</style><g id="Group_3" transform="translate(-526.999 -4807.982)"><g id="Фигура_11_копия_12"><path class="st0" d="M583 4825.2c.1-1-.5-2-1.4-2.5-1-.6-23.6-13.5-25-14.2-.9-.7-2.2-.7-3.1-.1-1 .6-24.1 13.8-24.9 14.2-1 .5-1.7 1.6-1.6 2.7v28.3c0 1.1.6 2.1 1.5 2.6 1 .6 24.3 13.9 25.3 14.4.8.4 1.7.4 2.5 0 .5-.2 24.5-14 25.1-14.3.9-.5 1.6-1.4 1.6-2.5v-28.6z"/><path d="M554.9 4810c-.1 0-.2.1-.4.2-.7.4-11.5 6.6-22 12.6-1.6.9-2.7 1.6-2.9 1.7-.2.1-.4.2-.5.4-.1.1-.1.4-.1.6v28.3c0 .2.1.6.5.9l25.2 14.4c.1 0 .2.1.3.1.2 0 .4-.1.4-.1 1.1-.6 24-13.7 25-14.3.4-.2.6-.5.6-.8v-28.6c0-.5 0-.5-.5-.8-.8-.5-23.5-13.4-24.9-14.2-.4-.4-.7-.4-.7-.4m0-2c.5 0 1 .2 1.7.5 1.3.7 23.9 13.6 25 14.2 1 .6 1.4 1.3 1.4 2.5v28.6c0 1.4-1 2.2-1.6 2.5-.6.4-24.6 14.1-25.1 14.3-.3.1-.8.3-1.3.3-.4 0-.8-.1-1.2-.3-.9-.5-24.2-13.8-25.3-14.4-1-.6-1.5-1.7-1.5-2.6v-28.3c0-1.6.8-2.2 1.6-2.7s23.9-13.7 24.9-14.2c.5-.3.9-.4 1.4-.4z" fill="#212225"/></g><g id="Фигура_11_копия_13"><path class="st0" d="M574 4829.8c.1-.7-.3-1.4-1-1.7-.7-.4-16-9.2-17-9.7-.6-.5-1.5-.5-2.1-.1-.7.4-16.3 9.4-16.9 9.7-.7.3-1.1 1.1-1.1 1.8v19.4c0 .7.4 1.4 1 1.8.7.4 16.5 9.5 17.1 9.8.5.3 1.2.3 1.7 0 .3-.2 16.6-9.5 17-9.8.6-.3 1.1-1 1.1-1.7l.2-19.5z"/><path d="M555 4820c-.7.4-7.9 4.6-14.9 8.6-1.1.6-1.9 1.1-2 1.1 0 0-.1 0-.1.1v19.5c.9.5 15.7 9 17 9.7 1.3-.7 16.1-9.2 16.9-9.7l.1-.1v-19.5c-.6-.3-15.9-9.2-16.8-9.6-.1 0-.2 0-.2-.1m-.1-2c.3 0 .7.1 1.2.4.9.5 16.3 9.3 17 9.7.7.4 1 .9 1 1.7v19.5c0 .9-.7 1.5-1.1 1.7-.4.2-16.7 9.6-17 9.8-.2.1-.5.2-.9.2-.3 0-.6-.1-.8-.2-.6-.3-16.4-9.4-17.1-9.8-.7-.4-1-1.2-1-1.8v-19.3c0-1.1.5-1.5 1.1-1.8.5-.3 16.2-9.3 16.9-9.7.1-.3.4-.4.7-.4z" fill="#dbdee5"/></g><g id="Фигура_11_копия_14"><path d="M555 4852s-.1 0 0 0c-.4-.2-10.2-5.8-10.8-6.2-.1-.1-.2-.2-.2-.3v-12.3l.2-.1c.1-.1.9-.5 2-1.1 4.1-2.3 8.4-4.8 8.7-5h.1s.1 0 .3.1c.6.3 10.3 5.8 10.6 6.1.1 0 .1.1.1.1v12.4c0 .1-.2.2-.2.2-.1 0-10 5.7-10.7 6.1h-.1z" fill="#e5e5ff"/><path d="M555 4828.1c-1.2.7-4.9 2.8-8.3 4.8-.7.4-1.3.7-1.6.9v11.3c1.6.9 8.3 4.7 10 5.7 1.7-1 8.4-4.8 10-5.7v-11.4c-1.8-.8-8.7-4.8-10.1-5.6m-.1-2.1c.2 0 .4.1.7.2.6.3 10.3 5.8 10.7 6.1.4.3.6.6.6 1.1v12.3c0 .6-.4.9-.7 1.1-.3.2-10.5 6-10.7 6.1-.1.1-.3.1-.6.1-.2 0-.4 0-.5-.1-.4-.2-10.4-5.9-10.8-6.2-.4-.3-.6-.7-.6-1.1v-12.1c0-.6.3-1 .7-1.2.3-.2 10.3-5.9 10.7-6.1.2-.1.3-.2.5-.2z" fill="#5452ce"/></g></g></svg>