<svg version="1.1" id="Слой_1" xmlns="http://www.w3.org/2000/svg" x="0" y="0" viewBox="0 0 58 80" xml:space="preserve"><style>.st1{fill:none}.st2{fill:#dbdee5}.st3{fill:none;stroke:#dbdee5;stroke-width:2;stroke-linecap:round}</style><g id="Premium" transform="translate(-911.999 -3241.007)"><path id="Фигура_11_копия_12" d="M936.3 3252.2c-6.6 3.8-21.1 12-21.7 12.4-1 .5-1.7 1.6-1.6 2.7v28.3c0 1.1.6 2.1 1.5 2.6.8.5 14.7 8.4 21.6 12.3m10.2-.1c7-4 20.6-11.8 21.1-12 .9-.5 1.6-1.4 1.6-2.5v-28.6c.1-1-.5-2-1.4-2.5-.8-.5-16.1-9.2-22.4-12.8" fill="none" stroke="#dbdee5" stroke-width="2"/><g id="Фигура_11_копия_13"><path class="st1" d="M960 3271.8c.1-.7-.3-1.4-1-1.7-.7-.4-16-9.2-17-9.7-.6-.5-1.5-.5-2.1-.1-.7.4-16.3 9.4-16.9 9.7-.7.3-1.1 1.1-1.1 1.8v19.4c0 .7.4 1.4 1 1.8.7.4 16.5 9.5 17.1 9.8.5.3 1.2.3 1.7 0 .3-.2 16.6-9.5 17-9.8.6-.3 1.1-1 1.1-1.7l.2-19.5z"/><path class="st2" d="M941 3262c-.7.4-7.8 4.5-14.7 8.4-1.2.7-2.1 1.2-2.2 1.3 0 0-.1 0-.1.1v19.5c.9.5 15.7 9 17 9.7 1.3-.7 16.1-9.2 16.9-9.7l.1-.1v-19.5c-.6-.3-15.9-9.2-16.8-9.6-.1 0-.2 0-.2-.1m-.1-2c.3 0 .7.1 1.2.4.9.5 16.3 9.3 17 9.7.7.4 1 .9 1 1.7v19.5c0 .9-.7 1.5-1.1 1.7-.4.2-16.7 9.6-17 9.8-.2.1-.5.2-.9.2-.3 0-.6-.1-.8-.2-.6-.3-16.4-9.4-17.1-9.8-.7-.4-1-1.2-1-1.8v-19.3c0-1.1.5-1.5 1.1-1.8.5-.3 16.2-9.3 16.9-9.7.1-.3.4-.4.7-.4z"/></g><path id="Фигура_1236" class="st3" d="M923.5 3271.4L941 3282l9-5"/><path id="Фигура_1237" class="st3" d="M941 3282v13"/><g id="Прямоугольник_скругл._углы_983"><path class="st1" d="M941.9 3241.4l6.7 6.7c.5.5.5 1.3 0 1.8l-6.7 6.7c-.5.5-1.3.5-1.8 0l-6.7-6.7c-.5-.5-.5-1.3 0-1.8l6.7-6.7c.5-.5 1.3-.5 1.8 0z"/><path class="st2" d="M941 3243.3l-5.7 5.7 5.7 5.7 5.7-5.7-5.7-5.7m0-2.3c.3 0 .7.1.9.4l6.7 6.7c.5.5.5 1.3 0 1.8l-6.7 6.7c-.3.3-.6.4-.9.4-.3 0-.7-.1-.9-.4l-6.7-6.7c-.5-.5-.5-1.3 0-1.8l6.7-6.7c.2-.3.6-.4.9-.4z"/></g><g id="Прямоугольник_скругл._углы_983_копия"><path class="st1" d="M941.9 3305.4l6.7 6.7c.5.5.5 1.3 0 1.8l-6.7 6.7c-.5.5-1.3.5-1.8 0l-6.7-6.7c-.5-.5-.5-1.3 0-1.8l6.7-6.7c.5-.5 1.3-.5 1.8 0z"/><path class="st2" d="M941 3307.3l-5.7 5.7 5.7 5.7 5.7-5.7-5.7-5.7m0-2.3c.3 0 .7.1.9.4l6.7 6.7c.5.5.5 1.3 0 1.8l-6.7 6.7c-.3.3-.6.4-.9.4-.3 0-.7-.1-.9-.4l-6.7-6.7c-.5-.5-.5-1.3 0-1.8l6.7-6.7c.2-.3.6-.4.9-.4z"/></g></g></svg>