<svg fill="none" xmlns="http://www.w3.org/2000/svg" viewBox="0 0 44 44"><circle cx="22" cy="22" r="21" stroke="#212225" stroke-width="2"/><g clip-path="url(#clip0_1787_67824)" stroke="#212225" stroke-width="2"><path d="M30.89 21.98c0 4.8-3.9 8.7-8.7 8.7-4.8 0-8.7-3.9-8.7-8.7 0-4.8 3.9-8.7 8.7-8.7m9.3 16.8l-2.7-2m-3.4-14.1c2.4 1 4.2 2.9 5 5.4m-12.7.17l4.4 2.4m0 0l2.147-1.074" stroke-linecap="round"/><path d="M26.69 19.75c0-.2-.1-.3-.2-.4-.2-.1-3.8-2.2-4-2.3-.1-.1-.3-.1-.5 0s-3.8 2.2-4 2.3c-.2.1-.3.2-.3.4v4.5c0 .2.1.3.2.4.2.1 3.9 2.2 4 2.3.1.1.3.1.4 0 .1 0 3.9-2.2 4-2.3.2-.1.4-.2.4-.4v-4.5z" stroke-miterlimit="10"/><path d="M22.09 24.35v-2.4" stroke-linecap="round"/></g><defs><clipPath id="clip0_1787_67824"><path fill="#fff" transform="translate(12.49 12)" d="M0 0h20v20H0z"/></clipPath></defs></svg>