<svg xmlns="http://www.w3.org/2000/svg" xmlns:xlink="http://www.w3.org/1999/xlink" viewBox="0 0 25 25"><defs><path id="a" d="M0 0h25v25H0z"/></defs><clipPath id="b"><use xlink:href="#a"/></clipPath><g clip-path="url(#b)"><path d="M22.2 7c-1-1.7-2.4-3.2-4.1-4.2a10.92 10.92 0 00-11.3 0c-1.7 1-3.1 2.5-4 4.2-2.2 4-2 8.9.6 12.6 1.4 1.9 3.3 3.4 5.5 4.2.2.1.4 0 .6-.1.1-.1.2-.3.2-.5v-2.1l-.3.1c-.3 0-.5.1-.8.1s-.7 0-1-.1c-.4-.1-.7-.2-1-.5-.4-.3-.6-.7-.7-1l-.1-.3c-.1-.3-.3-.5-.5-.8l-.9-.9c-.1-.1-.1-.1-.1-.2s0-.1.1-.2.3-.1.4-.1h.3c.3.1.5.2.7.4.3.2.5.5.7.8a2.36 2.36 0 00.8.9 1.69 1.69 0 001 .3c.3 0 .6 0 .8-.1.2 0 .4-.1.7-.2 0-.6.3-1.1.7-1.5-.5-.1-1-.1-1.5-.3-.5 0-1-.2-1.4-.5-.5-.3-.9-.6-1.2-1-.3-.5-.6-1-.8-1.6-.2-.7-.3-1.5-.3-2.3 0-1.1.4-2.2 1.2-3.1-.4-.9-.3-2 .1-3 .4 0 .9 0 1.2.2l1.2.6c.3.2.5.3.7.4a10.64 10.64 0 015.6 0l.6-.4c.4-.3.9-.5 1.3-.7.4-.1.8-.2 1.2-.1.4 1 .5 2.1.1 3.1.8.8 1.2 2 1.2 3.1 0 .8-.1 1.5-.3 2.3-.2.5-.4 1-.8 1.5-.3.4-.7.7-1.2 1-.4.3-.9.4-1.4.6l-1.5.3c.6.6.8 1.3.8 2.1v3.2c0 .2.1.3.2.5.2.1.4.2.6.1 2.2-.8 4.2-2.2 5.5-4.2 2.6-3.8 2.9-8.6.6-12.6z" fill="#212225"/></g></svg>