<svg xmlns="http://www.w3.org/2000/svg" xmlns:xlink="http://www.w3.org/1999/xlink" viewBox="0 0 246 147"><defs><path id="a" d="M0 0h246v147H0z"/></defs><clipPath id="b"><use xlink:href="#a"/></clipPath><g clip-path="url(#b)"><g fill="none" stroke-width="2"><path d="M85 108v15a.94.94 0 001 1h7a.94.94 0 001-1v-5a.94.94 0 001 1h7a.94.94 0 001-1v-5a.94.94 0 001 1h7a.94.94 0 001-1v-5 10a.94.94 0 001 1h7a.94.94 0 001-1v-10 15a.94.94 0 001 1h7a.94.94 0 001-1v-5a.94.94 0 001 1h7a.94.94 0 001-1v-5a.94.94 0 001 1h7a.94.94 0 001-1v-5 10a.94.94 0 001 1h5a.94.94 0 001-1v-10" stroke="#212225" stroke-linecap="round"/><path d="M154.2 49H177c5.5 0 10 4.5 10 10v39a4.95 4.95 0 01-5 5H57a4.95 4.95 0 01-5-5V59c0-5.5 4.5-10 10-10h23M52 67h135" stroke="#dbdde5"/></g><path d="M77.4 63.2c-3.7 0-3.7-6.9-2-6.9l9.2-.4v7.2l-7.2.1zm77.6-.7v-5.9l7.6.1c1.6 0 3.5 6 0 6s-7.6-.2-7.6-.2z" fill="#212225"/><path d="M154.1 56h7.4c1.9 0 3.5 1.6 3.5 3.5s-1.6 3.5-3.5 3.5h-84c-1.9 0-3.5-1.6-3.5-3.5s1.6-3.5 3.5-3.5h7.4" fill="none" stroke="#212225" stroke-width="2"/><circle cx="171" cy="85" r="6" fill="#5452CE"/><g fill="none" stroke-width="2"><circle cx="171" cy="85" r="5" stroke="#212225"/><g stroke="#dbdde5"><circle cx="151" cy="85" r="5"/><circle cx="131" cy="85" r="5"/><path d="M68 80h45c1.7 0 3 1.3 3 3v4c0 1.7-1.3 3-3 3H68c-1.7 0-3-1.3-3-3v-4c0-1.7 1.3-3 3-3z"/></g><path d="M84 63V18c0-2.2 1.8-4 4-4h63c2.2 0 4 1.8 4 4v45" stroke="#212225"/></g><path d="M126 41.6c0-3.2 2-5.4 5-5.4 2.9 0 4.9 1.9 4.9 5.3v.8h-6.8v.1c-.1 1.1.7 2 1.7 2.1h.3c.8.1 1.5-.4 1.8-1.1l3 .1c-.4 2-2.1 3.4-4.8 3.4-3.1.1-5.1-1.9-5.1-5.3zm3.2-1.1h3.8c0-1-.8-1.8-1.7-1.8h-.1c-1.1-.1-1.9.7-2 1.8zm-13.3 6.3V36.4h3.2v10.4h-3.2zm-10.9 0V32.9h9.2v2.7h-6v2.9h5.4v2.7h-5.4v5.6H105zm16.2 0V32.9h3.2v13.9h-3.2zm-5.4-13.2c0-.9.7-1.7 1.6-1.7s1.7.7 1.7 1.6-.7 1.7-1.6 1.7h-.1c-.8 0-1.6-.7-1.6-1.6zM181 146v-12h-7v-2h7v-11h2v11h16v2h-16v12h-2zm-120 0v-12H45v-2h16v-11h2v11h7v2h-7v12h-2zm160-32V94h-10v-2h10v-3h2v3h5v2h-5v20h-2zm-200 0V94h-5v-2h5v-3h2v3h10v2H23v20h-2zm200-48V54h-10v-2h10V14h-38v12h-2V14h-3v-2h3V1h2v11h38V1h2v11h10v2h-10v38h20v2h-20v12h-2zM21 66V54H1v-2h20V14H11v-2h10V1h2v11h38V1h2v11h3v2h-3v12h-2V14H23v38h10v2H23v12h-2z" fill="#dbdde5"/></g></svg>