<svg xmlns="http://www.w3.org/2000/svg" width="354.219" height="145.001"><g data-name="Expired Link"><path data-name="Прямоугольник, скругл. углы 1" d="M72.273 107.613h-4.055a6 6 0 00-6 6v5a6 6 0 006 6h78a6 6 0 006-6v-5a6 6 0 00-6-6H82.244c-4.95 0-5.656-2.919-4.626-7.229s15.3-56.956 17.6-66.771c3.659-15.584 23.048-14.65 26 1s16 67 16 67" fill="none" stroke="#212225" stroke-linecap="round" stroke-width="2"/><path data-name="Фигура 1" d="M126.218 90.613h-38a2.18 2.18 0 01-2-3c.559-1.861 1.784-6.09 2-7a2.909 2.909 0 013-2h33c1.318 0 1.856 1.547 2 2 .255.8 1.664 5.386 2 7s-.214 3-2 3z" fill="none" stroke="#dde0e6" stroke-width="2"/><path data-name="Фигура 1 копия" d="M119.218 62.613h-23a2.18 2.18 0 01-2-3c.559-1.861 1.784-6.09 2-7a2.909 2.909 0 013-2h18c1.318 0 1.856 1.547 2 2a67.389 67.389 0 012 7c.189 1.591-.214 3-2 3z" fill="none" stroke="#dde0e6" stroke-width="2"/><path data-name="Прямоугольник 1 копия 13" d="M326.218 145.001v-19h-38v19h-2v-19h-28v-2h28v-16h2v16h38v-39h-4v-2h4v-38h-4v-2h4v-23h2v23h6v2h-6v38h26v2h-26v39h26v2h-26v19zm-19-56v-4h-4v-2h4v-4h2v4h4v2h-4v4zm19-79v-4h-4v-2h4v-4h2v4h4v2h-4v4zm-298.22-10v19h38v-19h2v19h17v2h-17v39h-2v-39h-38v39h4v2h-4v38h4v2h-4v23h-2v-23h-6v-2h6v-38h-26v-2h26v-39h-26v-2h26v-19zm19 56v4h4v2h-4v4h-2v-4h-4v-2h4v-4zm-19 79v4h4v2h-4v4h-2v-4h-4v-2h4v-4z" fill="#dbdee5"/><path data-name="Контур 643" d="M116.101 124.613h37.854" fill="none" stroke="#212225" stroke-linecap="round" stroke-width="2"/><path data-name="Контур 644" d="M41.101 124.613h48.266" fill="none" stroke="#212225" stroke-linecap="round" stroke-width="2"/><g data-name="Сгруппировать 1000"><path data-name="Фигура 1" d="M165.035 124.613h62c11.755 0 31.2-15.121 18-37s-36.877-61.063-44-73-25.344-14.5-35 0c-6.518 9.785-20.273 31.515-31.75 50.105" fill="none" stroke="#fc9f0f" stroke-width="2"/><path data-name="Фигура 2" d="M165.035 113.613h63c7.155 0 14.6-9.67 9-19s-41.917-69.989-45-75-12.417-8.432-18 1c-3.557 6.008-18.9 29.889-31.19 49.245" fill="none" stroke="#fc9f0f" stroke-width="2"/><path data-name="Эллипс 1" d="M165.096 124.613a5.5 5.5 0 010-11" fill="none" stroke="#fc9f0f" stroke-width="2"/><path data-name="Эллипс 1 копия" d="M142.977 69.645a5.015 5.015 0 01-8.66-5" fill="none" stroke="#fc9f0f" stroke-width="2"/><g data-name="Interface-Essential / Synchronize / synchronize-arrow-clock"><g stroke="#fc9f0f" stroke-linecap="round" stroke-linejoin="round" stroke-width="2" data-name="Group 599"><path data-name="Shape 2559" d="M185.152 96.126a20.869 20.869 0 10-20.869-20.869v1.606" fill="none"/><path data-name="Shape 2560" d="M157.862 70.443l6.421 6.421 6.424-6.421" fill="none"/><path data-name="Объединение 3" d="M184.399 79.443h-.727a1.464 1.464 0 01-1.461-1.464v-14.7a1.465 1.465 0 011.461-1.465h.727a1.465 1.465 0 011.461 1.465v12.5h10.533a1.461 1.461 0 011.455 1.465v.739a1.46 1.46 0 01-1.455 1.464z" fill="#ffe6b8"/></g></g></g></g></svg>