<svg viewBox="0 0 208 105" fill="none" xmlns="http://www.w3.org/2000/svg"><path d="M133.032 68.12l11.586-11.586a6.048 6.048 0 000-8.553L109.336 12.7a6.048 6.048 0 00-8.553 0L65.501 47.981a6.048 6.048 0 000 8.553l35.282 35.282a6.048 6.048 0 008.553 0l12.356-12.355m6.804-6.804l-2.683 2.683" stroke="#FC9F0F" stroke-width="2" stroke-linecap="round" stroke-linejoin="round"/><path d="M91.074 15.994l7.57-7.571a9.072 9.072 0 0112.831 0l37.42 37.42a9.072 9.072 0 010 12.83l-37.42 37.42a9.072 9.072 0 01-12.83 0l-37.42-37.42a9.072 9.072 0 010-12.83L74.82 32.248m13.23-13.23l-9.828 9.828" stroke="#FC9F0F" stroke-width="2" stroke-linecap="round" stroke-linejoin="round"/><path d="M102.06 39.626a3.618 3.618 0 117.237 0v13.856a3.619 3.619 0 01-7.237 0V39.626zm0 25.402a3.618 3.618 0 117.237 0 3.618 3.618 0 01-7.237 0z" fill="#F7FAFB" stroke="#212225" stroke-width="2"/><path d="M30.561 16.005h2v-7h7v-2h-7v-7h-2v7h-7v2h7v7zm43 88h2v-7h7v-2h-7v-7h-2v7h-7v2h7v7zm-66.001-.002h2v-7h7v-2h-7v-7h-2v7h-7v2h7v7zm22 0h2v-7h7v-2h-7v-7h-2v7h-7v2h7v7zm0-22h2v-7h7v-2h-7v-7h-2v7h-7v2h7v7zm22.5 0h2v-7h7v-2h-7v-7h-2v7h-7v2h7v7zm0-66h2v-7h7v-2h-7v-7h-2v7h-7v2h7v7zm0 22h2v-7h7v-2h-7v-7h-2v7h-7v2h7v7zm21.5-22h2v-7h7v-2h-7v-7h-2v7h-7v2h7v7z" fill="#DBDEE5"/><path d="M30.561 16.004h2v-7h7v-2h-7v-7h-2v7h-7v2h7v7zm43 88h2v-7h7v-2h-7v-7h-2v7h-7v2h7v7zm-66.001-.002h2v-7h7v-2h-7v-7h-2v7h-7v2h7v7zm22 0h2v-7h7v-2h-7v-7h-2v7h-7v2h7v7zm0-22h2v-7h7v-2h-7v-7h-2v7h-7v2h7v7zm22.5 0h2v-7h7v-2h-7v-7h-2v7h-7v2h7v7zm0-66h2v-7h7v-2h-7v-7h-2v7h-7v2h7v7zm0 22h2v-7h7v-2h-7v-7h-2v7h-7v2h7v7zm21.5-22h2v-7h7v-2h-7v-7h-2v7h-7v2h7v7zM177.443 16h-2V9h-7V7h7V0h2v7h7v2h-7v7zm-43.002 88h-2v-7h-7v-2h7v-7h2v7h7v2h-7v7zm65.999 0h-2v-7h-7v-2h7v-7h2v7h7v2h-7v7zm-22 0h-2v-7h-7v-2h7v-7h2v7h7v2h-7v7zm0-22h-2v-7h-7v-2h7v-7h2v7h7v2h-7v7zm-22.5 0h-2v-7h-7v-2h7v-7h2v7h7v2h-7v7zm0-66h-2V9h-7V7h7V0h2v7h7v2h-7v7zm0 22h-2v-7h-7v-2h7v-7h2v7h7v2h-7v7zm-21.5-22h-2V9h-7V7h7V0h2v7h7v2h-7v7z" fill="#DBDEE5"/></svg>