<svg version="1.1" id="Слой_1" xmlns="http://www.w3.org/2000/svg" x="0" y="0" viewBox="0 0 755 53" xml:space="preserve"><path id="_placeholder" d="M34 42c0-6.1 4.9-11 11-11s11 4.9 11 11-4.9 11-11 11-11-4.9-11-11zm-2.9 8H10C4.5 50 0 45.5 0 40V10C0 4.5 4.5 0 10 0h30c5.5 0 10 4.5 10 10v16.8C41.6 24 32.6 28.6 29.8 37c-1.4 4.3-.9 9.1 1.3 13zm262.4-8c-1.4 0-2.5-1.1-2.5-2.5s1.1-2.5 2.5-2.5h82c1.4 0 2.5 1.1 2.5 2.5s-1.1 2.5-2.5 2.5h-82zm-102 0c-1.4 0-2.5-1.1-2.5-2.5s1.1-2.5 2.5-2.5h92c1.4 0 2.5 1.1 2.5 2.5s-1.1 2.5-2.5 2.5h-92zm-52 0c-1.4 0-2.5-1.1-2.5-2.5s1.1-2.5 2.5-2.5h42c1.4 0 2.5 1.1 2.5 2.5s-1.1 2.5-2.5 2.5h-42zm-61 0c-1.4 0-2.5-1.1-2.5-2.5s1.1-2.5 2.5-2.5h51c1.4 0 2.5 1.1 2.5 2.5s-1.1 2.5-2.5 2.5h-51zm623-14c-1.4 0-2.5-1.1-2.5-2.5s1.1-2.5 2.5-2.5h51c1.4 0 2.5 1.1 2.5 2.5s-1.1 2.5-2.5 2.5h-51zm-52 0c-1.4 0-2.5-1.1-2.5-2.5s1.1-2.5 2.5-2.5h42c1.4 0 2.5 1.1 2.5 2.5s-1.1 2.5-2.5 2.5h-42zm-102 0c-1.4 0-2.5-1.1-2.5-2.5s1.1-2.5 2.5-2.5h92c1.4 0 2.5 1.1 2.5 2.5s-1.1 2.5-2.5 2.5h-92zm-92 0c-1.4 0-2.5-1.1-2.5-2.5s1.1-2.5 2.5-2.5h82c1.4 0 2.5 1.1 2.5 2.5s-1.1 2.5-2.5 2.5h-82zm-162 0c-1.4 0-2.5-1.1-2.5-2.5s1.1-2.5 2.5-2.5h152c1.4 0 2.5 1.1 2.5 2.5s-1.1 2.5-2.5 2.5h-152zm-61 0c-1.4 0-2.5-1.1-2.5-2.5s1.1-2.5 2.5-2.5h51c1.4 0 2.5 1.1 2.5 2.5s-1.1 2.5-2.5 2.5h-51zm-52 0c-1.4 0-2.5-1.1-2.5-2.5s1.1-2.5 2.5-2.5h42c1.4 0 2.5 1.1 2.5 2.5s-1.1 2.5-2.5 2.5h-42zm-102 0c-1.4 0-2.5-1.1-2.5-2.5s1.1-2.5 2.5-2.5h92c1.4 0 2.5 1.1 2.5 2.5s-1.1 2.5-2.5 2.5h-92zm52-18c-1.4 0-2.5-1.1-2.5-2.5s1.1-2.5 2.5-2.5h13c1.4 0 2.5 1.1 2.5 2.5s-1.1 2.5-2.5 2.5h-13zm-52 0C77.1 10 76 8.9 76 7.5S77.1 5 78.5 5h42c1.4 0 2.5 1.1 2.5 2.5s-1.1 2.5-2.5 2.5h-42z" fill="#eef3f5"/></svg>