<svg xmlns="http://www.w3.org/2000/svg" xmlns:xlink="http://www.w3.org/1999/xlink" viewBox="0 0 1280 61"><defs><path id="a" d="M0 0h1280v61H0z"/></defs><clipPath id="b"><use xlink:href="#a" overflow="visible"/></clipPath><g clip-path="url(#b)"><path d="M1 61v-1h1277v1H1zm1197-16c-2.2 0-4-1.8-4-4V4c0-2.2 1.8-4 4-4h78c2.2 0 4 1.8 4 4v37c0 2.2-1.8 4-4 4h-78zM5 45c-2.8 0-5-2.2-5-5V5c0-2.8 2.2-5 5-5h35c2.8 0 5 2.2 5 5v35c0 2.8-2.2 5-5 5H5zm1055-18c-1.7 0-3-1.3-3-3s1.3-3 3-3h90c1.7 0 3 1.3 3 3s-1.3 3-3 3h-90zm-500 0c-1.7 0-3-1.3-3-3s1.3-3 3-3h90c1.7 0 3 1.3 3 3s-1.3 3-3 3h-90zm-260 0c-1.7 0-3-1.3-3-3s1.3-3 3-3h90c1.7 0 3 1.3 3 3s-1.3 3-3 3h-90zM66 27c-1.7 0-3-1.3-3-3s1.3-3 3-3h70c1.7 0 3 1.3 3 3s-1.3 3-3 3H66z" fill="#eef3f5"/></g></svg>