<svg version="1.1" id="Слой_1" xmlns="http://www.w3.org/2000/svg" xmlns:xlink="http://www.w3.org/1999/xlink" x="0" y="0" viewBox="0 0 142 142" xml:space="preserve"><style>.st3{fill:none}</style><defs><path id="SVGID_1_" d="M71 0c39.2 0 71 31.8 71 71s-31.8 71-71 71S0 110.2 0 71 31.8 0 71 0z"/></defs><clipPath id="SVGID_2_"><use xlink:href="#SVGID_1_" overflow="visible"/></clipPath><g id="User" clip-path="url(#SVGID_2_)"><path id="Прямоугольник_скругл._углы_771" d="M10 0h122c5.5 0 10 4.5 10 10v122c0 5.5-4.5 10-10 10H10c-5.5 0-10-4.5-10-10V10C0 4.5 4.5 0 10 0z" fill="#f7fafb"/><g id="User-2"><g id="block_копия"><path id="Прямоугольник_скругл._углы_771_копия_6" d="M35.5 98.7c-2.1-2.7-3.9-5.6-5.4-8.8m-.2-37.1c1.4-3.3 3.3-6.3 5.4-9.1m8.5-8.6c3-2.3 6.2-4.1 9.7-5.6m36.3.6c3.3 1.5 6.4 3.4 9.2 5.7m8.3 8.7c2.1 2.9 3.9 6.1 5.3 9.5m-.4 35.1c-1.3 3.1-3 6-5 8.6m-8.4 8.7c-3 2.3-6.2 4.3-9.6 5.8m-34.6.7c-3.6-1.4-7-3.3-10.1-5.6" fill="none" stroke="#dcdfe6" stroke-width="2" stroke-linecap="round"/><g id="a_копия"><path class="st3" d="M66.4 119c-2.7-2.7-2.7-7.2 0-9.9s7.2-2.7 9.9 0 2.7 7.2 0 9.9c-1.3 1.3-3.1 2-4.9 2-1.9.1-3.7-.7-5-2zm43.2-42.2c-2.7-2.7-2.7-7.2 0-9.9s7.2-2.7 9.9 0 2.7 7.2 0 9.9c-1.3 1.3-3.1 2-4.9 2-1.9 0-3.7-.7-5-2zm-86.4 0c-2.7-2.7-2.7-7.2 0-9.9s7.2-2.7 9.9 0 2.7 7.2 0 9.9c-1.3 1.3-3.1 2-4.9 2-1.9 0-3.7-.7-5-2zm43.2-44.2c-2.7-2.7-2.7-7.2 0-9.9s7.2-2.7 9.9 0 2.7 7.2 0 9.9c-1.3 1.3-3.1 2.1-4.9 2.1-1.9-.1-3.7-.8-5-2.1z"/><path d="M71.4 119.1c1.3 0 2.6-.5 3.5-1.5.9-.9 1.5-2.2 1.5-3.5s-.5-2.6-1.5-3.5c-.9-.9-2.2-1.5-3.5-1.5s-2.6.5-3.5 1.5c-.9.9-1.5 2.2-1.5 3.5s.5 2.6 1.5 3.5c.9.9 2.1 1.5 3.5 1.5m43.2-42.3c1.3 0 2.6-.5 3.5-1.5.9-.9 1.5-2.2 1.5-3.5s-.5-2.6-1.5-3.5c-.9-.9-2.2-1.5-3.5-1.5s-2.6.5-3.5 1.5c-.9.9-1.5 2.2-1.5 3.5s.5 2.6 1.5 3.5c.9 1 2.1 1.5 3.5 1.5m-86.5 0c1.3 0 2.6-.5 3.5-1.5 1.9-1.9 1.9-5.1 0-7.1-.9-.9-2.2-1.5-3.5-1.5s-2.6.5-3.5 1.5c-.9.9-1.5 2.2-1.5 3.5s.5 2.6 1.5 3.5c.9 1.1 2.2 1.6 3.5 1.6m43.3-44.2c1.3 0 2.6-.5 3.5-1.5 1.9-1.9 1.9-5.1 0-7.1-.9-.9-2.2-1.5-3.5-1.5s-2.6.5-3.5 1.5c-1.9 1.9-1.9 5.1 0 7.1.9 1 2.1 1.5 3.5 1.5m0 88.5c-1.8 0-3.6-.7-5-2.1-2.7-2.7-2.7-7.2 0-9.9 1.4-1.4 3.2-2.1 5-2.1s3.6.7 4.9 2.1c2.7 2.7 2.7 7.2 0 9.9-1.4 1.4-3.1 2.1-4.9 2.1zm43.2-42.3c-1.8 0-3.6-.7-4.9-2.1-2.7-2.7-2.7-7.2 0-9.9 1.4-1.4 3.2-2.1 4.9-2.1 1.8 0 3.6.7 4.9 2.1 2.7 2.7 2.7 7.2 0 9.9-1.3 1.5-3.1 2.1-4.9 2.1zm-86.5 0c-1.8 0-3.6-.7-5-2.1-2.7-2.7-2.7-7.2 0-9.9 1.4-1.4 3.2-2.1 4.9-2.1 1.8 0 3.6.7 5 2.1 2.7 2.7 2.7 7.2 0 9.9-1.3 1.5-3.1 2.1-4.9 2.1zm43.3-44.2c-1.8 0-3.6-.7-5-2-2.7-2.7-2.7-7.2 0-9.9 1.4-1.4 3.2-2 5-2s3.6.7 4.9 2c2.7 2.7 2.7 7.2 0 9.9-1.4 1.3-3.1 2-4.9 2z" fill="#dbdee5"/></g><g id="Прямоугольник_скругл._углы_776" transform="translate(61 47)"><circle class="st3" cx="10" cy="10" r="10"/><circle cx="10" cy="10" r="9" fill="none" stroke="#dbdee5" stroke-width="2"/></g><path id="Фигура_1003" d="M52 85c.4-1.7 1.1-3.4 2-5 1.7-3.2 5-9 17-9s14.1 4 16 7 4 7 4 7" fill="none" stroke="#dbdee5" stroke-width="2" stroke-linecap="round"/></g></g></g></svg>