<svg version="1.1" id="Слой_1" xmlns="http://www.w3.org/2000/svg" x="0" y="0" viewBox="0 0 67 60" xml:space="preserve"><g id="Фигура_11_копия_11"><path d="M1364.7 3310h-28.4c-1.1.1-2.2-.6-2.7-1.6l-1-1.8-.5-.9v-.1c-3.7-6.4-12.2-21.4-12.7-22.2-.6-1-.6-2.2.1-3.1.7-1.4 13.7-24.2 14.2-25 .5-.9 1.5-1.5 2.5-1.4h28.6c1.1 0 2 .7 2.5 1.6.1.2 14 24.5 14.3 25.1.4.8.4 1.7 0 2.5-.4.7-13.6 23.8-14.4 25.3-.4 1-1.4 1.6-2.5 1.6zm-16.1-28c1.3 0 2.4.7 2.9 1.9.5 1 9.1 15.9 9.2 16l10.3-18-10.3-18.1h-20.5L1330 3282h18.6z" fill="none" transform="translate(-1316.984 -3252)"/><path d="M1364.7 3310c.8 0 1.9-.4 2.6-1.5.8-1.4 14-24.6 14.4-25.3.5-.9.3-2 0-2.5-.3-.6-14.2-24.9-14.3-25.1-.4-.6-1.2-1.6-2.5-1.6h-28.6c-1.2 0-1.9.4-2.5 1.4-.5.8-13.5 23.6-14.2 25-.7 1.3-.7 2.1-.1 3.1.5.8 9 15.8 12.7 22.2v.1l.5.9c.6 1 .9 1.6 1 1.8.4.8 1.1 1.6 2.7 1.6h28.3m-24.4-46.1h20.5l10.3 18.1-10.3 18c-.1-.2-8.7-15.1-9.2-16-.6-1.3-1.6-1.9-2.9-1.9H1330l10.3-18.2m24.4 48h-28.4c-2.9 0-4-1.9-4.4-2.6-.1-.1-.3-.5-.7-1.1l-.4-.6-.5-.9v-.1c-8.1-14.2-12.3-21.6-12.7-22.1-1.2-2.1-.6-3.8 0-5.1.7-1.4 13.8-24.3 14.3-25.1 1-1.6 2.3-2.4 4.2-2.4h28.6c1.7 0 3.3.9 4.2 2.6.1.2 14 24.5 14.4 25.2.6 1.1.8 2.9 0 4.4-.4.7-13.6 23.9-14.5 25.3-.9 1.8-2.7 2.5-4.1 2.5zm-11.4-28.9c.3.7 4.2 7.4 7.4 12.9l8-14-9.1-16.1h-18.1l-8 14.1h15.2c2 0 3.7 1.1 4.6 3.1z" fill="#007dff" transform="translate(-1316.984 -3252)"/></g></svg>