<svg width="542" height="200" fill="none" xmlns="http://www.w3.org/2000/svg"><g clip-path="url(#clip0_2414_95909)"><path fill-rule="evenodd" clip-rule="evenodd" d="M489 0v14h-38V0h-2v14h-31v2h31v37h-22v2h22v39h-22v2h22v3h2v-3h38v23h2.001V96H529v78h-15v2h15v23h2v-23h7v-2h-7V96h10v-2h-10V80h-2v14h-37.999V55H511v-2h-19.999V16H502v-2h-10.999V0H489zm0 16v37h-38V16h38zm0 39v39h-38V55h38zm26-45v4h-4v2h4v4h2v-4h4v-2h-4v-4h-2zm-66 99v4h-4v2h4v4h2v-4h4v-2h-4v-4h-2zM9 123.999V134H-1v2H9v38H-1v2H9v24h2v-24h38v14h2v-14h38v18h2v-18h9v-2h-9v-26h-2v26H51v-10h-2v10H11v-38h14v-2H11v-10.001H9zm105 45V173h-4v2h4v4h2v-4h4v-2h-4v-4.001h-2z" fill="#DBDEE5"/><path d="M89 136v14h2v-14h9v-1.999H51V121h-2v13.001H11V96h14v-2H11V81H9v13H-1v2H9v38H-1v2H9v4h2v-4h38v14h2v-14h38z" fill="#DBDEE5"/><path fill-rule="evenodd" clip-rule="evenodd" d="M504.999 96H491v38h13.999v2.001H491V174h4v2h-4v10h-2v-10h-38.001v10H449v-10h-13v-2h13v-14h1.999v14H489v-37.999h-13V134h13V96h-38.001v9H449v-9h-3v-2h3V79h1.999v15H489v-9h2v9h13.999v2zM9 66V56H-1v-2H9V16H-1v-2H9v-24h2v24h38V0h2v14h38V-4h2v18h9v2h-9v16h-2V16H51v10h-2V16H11v38h14v2H11v10H9z" fill="#DBDEE5"/><path fill-rule="evenodd" clip-rule="evenodd" d="M49 45v-4h-4v-2h4v-4h2v4h4v2h-4v4h-2zm65-24v-4h-4v-2h4v-4h2v4h4v2h-4v4h-2z" fill="#DBDEE5"/><path d="M136.5 161h220.113c-1.187 2.395 2.887 9 5.867 10H126.5a13.996 13.996 0 01-9.899-4.101A13.996 13.996 0 01112.5 157v-27c.667.833 2.5 3 4.5 5s4.5 2.5 5.5 2.5v9.5c0 8.685 6.435 14 14 14zM123.072 24.423A25.484 25.484 0 01122.5 27v86.5c-.833 0-2.7.2-3.5 1-.8.8-4.667 4.333-6.5 6V38a14.003 14.003 0 0110.572-13.577z" fill="#EEF3F5"/><path d="M356.5 161h-220a14 14 0 01-14-14v-9.5m277-29.5V28a13.993 13.993 0 00-4.1-9.9 14.001 14.001 0 00-9.9-4.1h-249a13.998 13.998 0 00-14 14v85.5" stroke="#212225" stroke-width="2" stroke-linecap="round"/><path d="M385 61h-55c-1.657 0-3 1.151-3 2.571v6.858c0 1.42 1.343 2.571 3 2.571h55c1.657 0 3-1.151 3-2.571V63.57c0-1.42-1.343-2.571-3-2.571z" stroke="#DBDEE5" stroke-width="2" stroke-linecap="round"/><path d="M188.5 64h-51a3 3 0 100 6h51a3 3 0 100-6z" stroke="#212225" stroke-width="2" stroke-linecap="round"/><path d="M334.5 67h46" stroke="#DBDEE5" stroke-width="2" stroke-linecap="round"/><path d="M134.5 122V89a8 8 0 018-8h62a8 8 0 018 8v52a8 8 0 01-8 8h-62a8 8 0 01-8-8v-12" stroke="#212225" stroke-width="2" stroke-linecap="round"/><path d="M182.5 91h-19a3 3 0 00-3 3v19a3 3 0 003 3h19a3 3 0 003-3V94a3 3 0 00-3-3z" stroke="#212225" stroke-width="2" stroke-linecap="round"/><circle cx="173" cy="103" r="5" stroke="#212225" stroke-width="2"/><path d="M188.5 122h-31a3 3 0 100 6h31a3 3 0 100-6z" stroke="#212225" stroke-width="2" stroke-linecap="round"/><path d="M152.5 138.02a2.02 2.02 0 10.001-4.039 2.02 2.02 0 00-.001 4.039zm5-2.02h11m12 2.02a2.02 2.02 0 10.001-4.039 2.02 2.02 0 00-.001 4.039zm5-2.02h11m96-55h-62a8 8 0 00-8 8v52a8 8 0 008 8h62a8 8 0 008-8V89a8 8 0 00-8-8z" stroke="#DBDEE5" stroke-width="2" stroke-linecap="round"/><path d="M270.5 91h-19a3 3 0 00-3 3v19a3 3 0 003 3h19a3 3 0 003-3V94a3 3 0 00-3-3z" stroke="#DBDEE5" stroke-width="2" stroke-linecap="round"/><circle cx="261" cy="104" r="5" stroke="#DBDEE5" stroke-width="2"/><path d="M276.5 122h-31a3 3 0 100 6h31a3 3 0 100-6zm-36 16.02a2.02 2.02 0 10.001-4.039 2.02 2.02 0 00-.001 4.039zm5-2.02h11m12 2.02a2.02 2.02 0 10.001-4.039 2.02 2.02 0 00-.001 4.039zm5-2.02h11m65 13h-32a8 8 0 01-8-8V89a8.001 8.001 0 018-8h62a8 8 0 018 8v22" stroke="#DBDEE5" stroke-width="2" stroke-linecap="round"/><path d="M357.5 91h-19a3 3 0 00-3 3v19a3 3 0 003 3h19a3 3 0 003-3V94a3 3 0 00-3-3zm6 37h-31a2.996 2.996 0 01-2.121-.879 2.996 2.996 0 010-4.242A2.996 2.996 0 01332.5 122h31c.796 0 1.559.316 2.121.879.563.562.879 1.325.879 2.121m-39 13.02a2.02 2.02 0 10.001-4.039 2.02 2.02 0 00-.001 4.039zm5-2.02h11m10 2.02a2.02 2.02 0 10.001-4.039 2.02 2.02 0 00-.001 4.039zm5-2.02h2" stroke="#DBDEE5" stroke-width="2" stroke-linecap="round"/><path d="M121.829 132.151c.611 0 1.186-.238 1.618-.67l4.547-4.544c.432-.431.67-1.005.67-1.614 0-.61-.238-1.184-.67-1.615l-4.547-4.544a2.273 2.273 0 00-1.618-.669c-.611 0-1.186.237-1.618.669l-4.548 4.544a2.27 2.27 0 00-.669 1.615c0 .609.238 1.183.669 1.614l4.548 4.544c.432.432 1.007.67 1.618.67zm0 2a4.279 4.279 0 01-3.032-1.255l-4.547-4.544a4.283 4.283 0 010-6.059l4.547-4.544a4.29 4.29 0 016.063 0l4.548 4.544a4.283 4.283 0 010 6.059l-4.548 4.544a4.277 4.277 0 01-3.031 1.255z" fill="#DBDEE5"/><path d="M130 125.5h16m-32 0H90a10.002 10.002 0 01-10-10v-15" stroke="#DBDEE5" stroke-width="2" stroke-linecap="round"/><circle cx="79.5" cy="70.5" r="29.5" stroke="#DBDEE5" stroke-width="2"/><path d="M69 56h17m-17 5h17m-17 5h13m-13 5h11m3 0h11m-25 5h6m3 0h15m-24 5h12m3 0h7" stroke="#DBDEE5" stroke-width="2"/><path d="M129.5 52h263m-40-19h-17m-8 0h-17m-8 0h-17m94-10h-14a3 3 0 00-3 3v14a3 3 0 003 3h14a3 3 0 003-3V26a3 3 0 00-3-3z" stroke="#212225" stroke-width="2" stroke-linecap="round"/><path d="M156.5 23h-14a3 3 0 00-3 3v14a3 3 0 003 3h14a3 3 0 003-3V26a3 3 0 00-3-3z" fill="#5452CE" stroke="#212225" stroke-width="2" stroke-linecap="round"/><path d="M396.62 174.24c13.321 0 24.12-10.799 24.12-24.12 0-13.321-10.799-24.12-24.12-24.12-13.321 0-24.12 10.799-24.12 24.12 0 13.321 10.799 24.12 24.12 24.12z" stroke="#DBDEE5" stroke-width="2"/><path d="M408.25 142.449l-11.442 15.256a1.501 1.501 0 01-2.261.161l-2.977-2.977m-.57 3.071c-.28.287-.663.449-1.064.451a1.493 1.493 0 01-1.069-.439L385.89 155m16.54-12.445l-8.14 10.854" stroke="#212225" stroke-width="2" stroke-linecap="round" stroke-linejoin="round"/><path d="M364.148 135.229a36.301 36.301 0 0169.129 15.471m-3.345 15.238a36.295 36.295 0 01-40.736 20.183 36.3 36.3 0 01-28.497-35.421" stroke="#212225" stroke-width="2" stroke-linecap="round"/><path d="M433.412 157.485c.403 0 .806-.178 1.114-.531l5.388-5.951c.616-.708.616-1.855 0-2.562-.615-.709-1.613-.709-2.229 0l-4.273 4.668-4.275-4.669c-.615-.708-1.613-.708-2.229 0-.615.707-.615 1.855 0 2.562l5.389 5.952c.307.353.71.531 1.115.531zm-67.462-3.991c.403 0 .806-.177 1.114-.531.616-.707.616-1.854 0-2.562l-5.389-5.952c-.616-.706-1.613-.707-2.228 0l-5.39 5.951c-.615.708-.615 1.856 0 2.563.616.707 1.614.707 2.23 0l4.274-4.669 4.274 4.669c.308.354.711.531 1.115.531zm67.462 5.991a3.486 3.486 0 01-2.608-1.201l-5.405-5.969c-1.265-1.455-1.265-3.734 0-5.188a3.49 3.49 0 012.624-1.218c.983 0 1.93.435 2.601 1.194l2.787 3.044 2.785-3.042a3.49 3.49 0 012.604-1.196c.995 0 1.951.445 2.624 1.221 1.264 1.451 1.264 3.73 0 5.185l-.027.03-5.377 5.938a3.487 3.487 0 01-2.608 1.202zm-67.462-3.991a3.483 3.483 0 01-2.604-1.196l-2.785-3.042-2.784 3.041a3.488 3.488 0 01-2.605 1.197c-.994 0-1.95-.444-2.623-1.218-1.265-1.454-1.266-3.733-.001-5.188l.027-.031 5.378-5.938a3.486 3.486 0 012.608-1.201c.985 0 1.934.437 2.607 1.2l5.406 5.971c1.264 1.455 1.264 3.733-.001 5.187a3.485 3.485 0 01-2.623 1.218z" fill="#212225"/><circle cx="348" cy="103" r="5" stroke="#DBDEE5" stroke-width="2"/></g><defs><clipPath id="clip0_2414_95909"><path fill="#fff" d="M0 0h542v200H0z"/></clipPath></defs></svg>