<svg width="630" height="240" fill="none" xmlns="http://www.w3.org/2000/svg"><g clip-path="url(#clip0_2414_96225)"><mask id="mask0_2414_96225" style="mask-type:alpha" maskUnits="userSpaceOnUse" x="0" y="0" width="630" height="240"><path fill="#212225" d="M0 0h630v240H0z"/></mask><g clip-path="url(#clip1_2414_96225)"><path fill="#F7FAFB" d="M-7.938 0H630v578.921H-7.938z"/><path fill="#fff" d="M1.063-1.04H630v583.558H1.063z"/><rect x="51.829" y="26.035" width="107.165" height="12.399" rx="3.543" fill="#F7FAFB" stroke="#DBDEE5" stroke-width="1.328" stroke-linecap="round" stroke-dasharray="2.21 3.32"/><path d="M51.829 47.46h107.173" stroke="#DBDEE5" stroke-width=".564"/><rect x="51.829" y="56.484" width="107.165" height="12.399" rx="3.543" fill="#F7FAFB" stroke="#DBDEE5" stroke-width="1.328" stroke-linecap="round" stroke-dasharray="2.21 3.32"/><path d="M51.829 77.909h107.173" stroke="#DBDEE5" stroke-width=".564"/><rect x="51.829" y="86.934" width="107.165" height="12.399" rx="3.543" fill="#F7FAFB" stroke="#DBDEE5" stroke-width="1.328" stroke-linecap="round" stroke-dasharray="2.21 3.32"/><path fill="#DBDEE5" d="M181.565 17.01h.564v531.918h-.564z"/><path d="M205.975 37.01V22.242h5.827c1.12 0 2.074.214 2.863.642a4.343 4.343 0 011.802 1.766c.419.75.628 1.616.628 2.596 0 .981-.212 1.846-.635 2.596-.423.75-1.036 1.335-1.839 1.753-.798.418-1.764.627-2.899.627h-3.713V29.72h3.209c.601 0 1.096-.104 1.485-.31a2.06 2.06 0 00.88-.873c.197-.375.295-.805.295-1.29 0-.491-.098-.919-.295-1.284a1.975 1.975 0 00-.88-.858c-.394-.207-.894-.31-1.5-.31h-2.105V37.01h-3.123zm13.09 0V25.934h2.978v1.933h.116c.202-.688.54-1.207 1.016-1.558a2.673 2.673 0 011.645-.534 4.633 4.633 0 01.966.109v2.725a4.012 4.012 0 00-.599-.115 5.376 5.376 0 00-.699-.05 2.46 2.46 0 00-1.212.295 2.177 2.177 0 00-.836.808 2.331 2.331 0 00-.303 1.197v6.266h-3.072zm12.798.217c-1.12 0-2.089-.238-2.906-.714a4.88 4.88 0 01-1.882-2.005c-.442-.86-.664-1.858-.664-2.993 0-1.144.222-2.144.664-3a4.821 4.821 0 011.882-2.004c.817-.48 1.786-.721 2.906-.721s2.086.24 2.899.72a4.812 4.812 0 011.889 2.006c.442.855.664 1.855.664 3 0 1.134-.222 2.132-.664 2.992a4.87 4.87 0 01-1.889 2.005c-.813.476-1.779.714-2.899.714zm.014-2.38c.51 0 .935-.144 1.277-.433.341-.293.598-.692.771-1.197.178-.505.267-1.08.267-1.723 0-.644-.089-1.219-.267-1.724-.173-.505-.43-.904-.771-1.197-.342-.293-.767-.44-1.277-.44-.514 0-.947.147-1.298.44-.346.293-.608.692-.786 1.197-.173.505-.259 1.08-.259 1.724 0 .644.086 1.218.259 1.723.178.505.44.904.786 1.197.351.289.784.433 1.298.433zm13.391-8.913v2.307h-6.836v-2.307h6.836zm-5.271 11.076V25.134c0-.803.156-1.47.469-1.998a3.01 3.01 0 011.298-1.19c.548-.264 1.17-.396 1.868-.396.471 0 .901.036 1.29.108.395.072.688.137.88.194l-.548 2.308a3.825 3.825 0 00-.447-.108 2.787 2.787 0 00-.534-.05c-.452 0-.766.105-.944.317-.178.206-.267.497-.267.872v11.82h-3.065zm7.148 0V25.934h3.072V37.01h-3.072zm1.543-12.504a1.67 1.67 0 01-1.175-.454 1.473 1.473 0 01-.483-1.103c0-.424.161-.786.483-1.09a1.655 1.655 0 011.175-.46c.457 0 .846.153 1.169.46.326.304.49.666.49 1.09 0 .427-.164.795-.49 1.103a1.647 1.647 0 01-1.169.454zm7.062-2.264V37.01h-3.072V22.242h3.072zm7.508 14.985c-1.139 0-2.12-.231-2.942-.693a4.74 4.74 0 01-1.889-1.975c-.442-.856-.663-1.868-.663-3.036 0-1.14.221-2.14.663-3a4.901 4.901 0 011.868-2.012c.807-.48 1.754-.721 2.841-.721a5.78 5.78 0 012.041.353 4.53 4.53 0 011.658 1.046c.476.466.846 1.052 1.111 1.76.264.701.396 1.523.396 2.465v.844h-9.353v-1.904h6.462c0-.442-.097-.834-.289-1.175a2.066 2.066 0 00-.8-.8 2.287 2.287 0 00-1.176-.296c-.466 0-.879.108-1.24.324a2.275 2.275 0 00-.837.858 2.435 2.435 0 00-.31 1.19v1.81c0 .548.101 1.022.303 1.42.207.4.498.708.873.924.375.216.819.325 1.334.325a2.9 2.9 0 00.937-.145c.284-.096.527-.24.729-.432.202-.193.355-.428.461-.707l2.841.187a3.878 3.878 0 01-.887 1.789c-.442.505-1.014.899-1.716 1.182-.697.28-1.502.419-2.416.419zm19.858-10.738c-.058-.582-.305-1.033-.743-1.355-.437-.323-1.031-.484-1.781-.484-.509 0-.94.073-1.291.217-.351.14-.62.334-.807.584-.183.25-.274.534-.274.85-.01.265.045.496.166.693.125.197.295.368.512.512.216.14.466.262.749.368.284.1.587.187.909.26l1.327.317a9.38 9.38 0 011.774.576c.538.24 1.005.537 1.399.887a3.7 3.7 0 01.916 1.24c.221.477.334 1.022.339 1.638-.005.904-.236 1.687-.693 2.35-.452.66-1.105 1.171-1.961 1.536-.851.361-1.877.541-3.079.541-1.193 0-2.231-.182-3.115-.548-.88-.365-1.568-.906-2.063-1.622-.49-.721-.747-1.613-.771-2.675h3.021c.034.495.175.908.425 1.24.255.327.594.574 1.017.743a4.04 4.04 0 001.45.245c.528 0 .988-.077 1.377-.231.394-.154.699-.368.916-.642.216-.274.324-.589.324-.944 0-.332-.098-.611-.295-.837-.193-.226-.476-.418-.851-.577a8.657 8.657 0 00-1.363-.432l-1.608-.404c-1.245-.303-2.228-.777-2.95-1.42-.721-.645-1.079-1.513-1.074-2.604-.005-.894.233-1.675.714-2.344.485-.668 1.151-1.19 1.997-1.565.846-.375 1.808-.562 2.885-.562 1.096 0 2.053.188 2.87.562.822.375 1.461.897 1.918 1.565.457.668.692 1.442.707 2.322h-2.993zm10.285 10.738c-1.139 0-2.12-.231-2.942-.693a4.742 4.742 0 01-1.89-1.975c-.442-.856-.663-1.868-.663-3.036 0-1.14.221-2.14.663-3a4.908 4.908 0 011.868-2.012c.808-.48 1.755-.721 2.841-.721a5.78 5.78 0 012.041.353c.635.23 1.187.58 1.659 1.046.476.466.846 1.052 1.11 1.76.265.701.397 1.523.397 2.465v.844h-9.353v-1.904h6.461c0-.442-.096-.834-.288-1.175a2.068 2.068 0 00-.801-.8c-.336-.198-.728-.296-1.175-.296-.467 0-.88.108-1.241.324a2.28 2.28 0 00-.836.858 2.425 2.425 0 00-.31 1.19v1.81c0 .548.101 1.022.303 1.42.206.4.497.708.872.924.375.216.82.325 1.334.325.342 0 .654-.049.938-.145a1.95 1.95 0 00.728-.432 1.89 1.89 0 00.462-.707l2.841.187a3.878 3.878 0 01-.887 1.789c-.442.505-1.015.899-1.716 1.182-.697.28-1.503.419-2.416.419zm12.98-11.293v2.307h-6.67v-2.307h6.67zm-5.156-2.654h3.072v10.327c0 .283.043.504.13.663a.711.711 0 00.36.324c.159.063.342.094.548.094.145 0 .289-.012.433-.036l.332-.065.483 2.286c-.154.048-.37.104-.649.166a5.207 5.207 0 01-1.017.123c-.74.029-1.389-.07-1.947-.296a2.719 2.719 0 01-1.291-1.053c-.307-.476-.459-1.077-.454-1.803V23.28zm13.048 2.654v2.307h-6.67v-2.307h6.67zm-5.155-2.654h3.071v10.327c0 .283.044.504.13.663a.717.717 0 00.361.324c.158.063.341.094.548.094.144 0 .288-.012.433-.036l.331-.065.483 2.286a8.5 8.5 0 01-.649.166 5.186 5.186 0 01-1.016.123c-.741.029-1.39-.07-1.947-.296a2.714 2.714 0 01-1.291-1.053c-.308-.476-.459-1.077-.454-1.803V23.28zm7.157 13.73V25.934h3.071V37.01h-3.071zm1.543-12.504a1.67 1.67 0 01-1.176-.454 1.473 1.473 0 01-.483-1.103c0-.424.161-.786.483-1.09a1.656 1.656 0 011.176-.46c.456 0 .846.153 1.168.46.327.304.49.666.49 1.09 0 .427-.163.795-.49 1.103a1.645 1.645 0 01-1.168.454zm7.061 6.1v6.404h-3.072V25.934h2.928v1.954h.13a3.088 3.088 0 011.233-1.529c.577-.38 1.276-.57 2.098-.57.769 0 1.44.169 2.012.505a3.43 3.43 0 011.334 1.443c.318.62.476 1.36.476 2.22v7.053h-3.072v-6.504c.005-.678-.168-1.207-.519-1.587-.351-.384-.834-.576-1.449-.576a2.2 2.2 0 00-1.096.266 1.858 1.858 0 00-.736.78c-.173.336-.262.742-.267 1.218zm14.55 10.789c-.995 0-1.848-.137-2.56-.411-.706-.27-1.269-.637-1.687-1.104a3.395 3.395 0 01-.815-1.572l2.841-.382c.087.221.224.428.411.62.188.193.436.346.743.462.313.12.692.18 1.14.18.668 0 1.218-.163 1.651-.49.437-.322.656-.863.656-1.623V35.05h-.13a2.909 2.909 0 01-.605.872c-.27.274-.616.498-1.039.671-.423.173-.928.26-1.514.26a4.55 4.55 0 01-2.272-.577c-.678-.39-1.218-.983-1.622-1.781-.399-.803-.599-1.818-.599-3.043 0-1.255.205-2.303.613-3.145.409-.84.952-1.47 1.63-1.889a4.213 4.213 0 012.243-.627c.62 0 1.139.105 1.557.317a2.99 2.99 0 011.01.779c.259.308.459.61.598.908h.116v-1.86h3.05v11.184c0 .943-.231 1.731-.692 2.366-.462.634-1.101 1.11-1.918 1.427-.813.323-1.748.484-2.806.484zm.065-6.85c.496 0 .914-.123 1.255-.369.346-.25.611-.605.793-1.067.188-.466.282-1.024.282-1.673s-.092-1.211-.274-1.687c-.183-.481-.448-.854-.794-1.118-.346-.265-.766-.397-1.262-.397-.504 0-.93.137-1.276.411-.346.27-.608.645-.786 1.125-.178.481-.267 1.036-.267 1.666 0 .64.089 1.192.267 1.659.183.461.445.82.786 1.074.346.25.772.375 1.276.375zm17.011-5.453l-2.812.174a1.449 1.449 0 00-.31-.65 1.652 1.652 0 00-.627-.468c-.255-.12-.56-.18-.916-.18-.476 0-.878.1-1.204.302-.327.198-.491.462-.491.794 0 .264.106.488.317.67.212.183.575.33 1.089.44l2.005.404c1.077.221 1.88.577 2.409 1.067.528.49.793 1.135.793 1.933 0 .726-.214 1.363-.642 1.91-.423.549-1.005.977-1.745 1.284-.736.303-1.584.455-2.546.455-1.466 0-2.634-.306-3.504-.916-.866-.616-1.373-1.452-1.522-2.51l3.022-.158c.091.447.312.788.663 1.024.351.23.801.346 1.349.346.538 0 .971-.104 1.298-.31.331-.212.5-.483.504-.815a.845.845 0 00-.353-.685c-.231-.183-.587-.322-1.067-.419l-1.918-.382c-1.082-.216-1.887-.591-2.416-1.125-.524-.533-.786-1.213-.786-2.04 0-.712.192-1.325.577-1.84.389-.514.935-.91 1.637-1.189.706-.279 1.533-.418 2.48-.418 1.399 0 2.5.295 3.303.887.808.591 1.279 1.396 1.413 2.415zM211.629 63.034h2.081v6.394c0 .718-.171 1.346-.514 1.884-.34.539-.816.959-1.428 1.26-.612.298-1.325.447-2.139.447-.818 0-1.532-.15-2.144-.447a3.437 3.437 0 01-1.428-1.26c-.34-.538-.51-1.166-.51-1.884v-6.394h2.082v6.216c0 .375.082.708.245 1 .167.291.401.52.702.687.301.167.652.25 1.053.25.404 0 .755-.083 1.053-.25a1.76 1.76 0 00.697-.687c.166-.292.25-.625.25-1v-6.216zm9.899 4.567l-1.875.115a.976.976 0 00-.206-.432 1.102 1.102 0 00-.419-.313 1.417 1.417 0 00-.61-.12c-.317 0-.585.067-.803.202-.218.131-.327.308-.327.529a.57.57 0 00.212.447c.141.121.383.22.726.293l1.336.27c.718.147 1.253.384 1.606.71.352.328.529.757.529 1.29 0 .483-.143.908-.428 1.273-.282.365-.67.65-1.164.856-.49.202-1.056.303-1.697.303-.977 0-1.756-.204-2.336-.61a2.377 2.377 0 01-1.014-1.674l2.014-.106c.061.298.208.526.442.683.234.154.534.23.899.23.359 0 .647-.068.865-.206.222-.141.334-.322.337-.543a.565.565 0 00-.236-.457c-.153-.122-.391-.215-.711-.279l-1.279-.254c-.721-.145-1.258-.395-1.61-.75-.35-.356-.524-.81-.524-1.361 0-.474.128-.883.384-1.226.26-.343.624-.607 1.091-.793.472-.186 1.023-.279 1.654-.279.933 0 1.667.197 2.202.591.538.395.853.931.942 1.61zm4.823 5.423c-.759 0-1.413-.154-1.961-.462a3.162 3.162 0 01-1.26-1.317c-.295-.57-.442-1.245-.442-2.024 0-.76.147-1.426.442-2 .295-.574.71-1.02 1.245-1.341.539-.32 1.17-.48 1.895-.48.487 0 .94.078 1.36.235a3.02 3.02 0 011.106.697c.317.31.564.702.74 1.173.176.468.265 1.016.265 1.644v.562h-6.236v-1.269h4.308c0-.295-.064-.556-.193-.783a1.379 1.379 0 00-.533-.534 1.523 1.523 0 00-.784-.197 1.58 1.58 0 00-.827.216 1.512 1.512 0 00-.557.572 1.61 1.61 0 00-.207.794v1.206c0 .366.067.681.202.947.138.266.332.471.582.615.25.145.546.217.889.217.228 0 .436-.032.625-.096a1.244 1.244 0 00.793-.76l1.894.125a2.586 2.586 0 01-.591 1.192 2.97 2.97 0 01-1.144.789c-.465.186-1.002.279-1.611.279zm4.726-.145v-7.384h1.985v1.289h.077c.135-.459.361-.805.678-1.039a1.784 1.784 0 011.096-.356 3.109 3.109 0 01.645.073v1.817a2.711 2.711 0 00-.4-.077 3.575 3.575 0 00-.466-.034c-.301 0-.57.066-.807.197-.234.129-.42.308-.558.539-.135.23-.202.496-.202.798v4.177h-2.048zm10.793-9.845v9.845h-2.082v-9.845h2.082zm3.722 5.576v4.27h-2.048v-7.385h1.952v1.303h.086c.164-.43.438-.77.822-1.02.385-.252.851-.379 1.399-.379.513 0 .96.112 1.341.337.382.224.678.544.89.961.211.413.317.907.317 1.48v4.702h-2.048v-4.336c.003-.452-.112-.804-.346-1.058-.234-.256-.556-.384-.966-.384-.276 0-.519.06-.731.178a1.237 1.237 0 00-.49.519 1.788 1.788 0 00-.178.812zm10.344-3.115v1.539h-4.557v-1.539h4.557zm-3.514 7.384v-7.917c0-.536.104-.98.312-1.332.212-.353.5-.617.866-.793.365-.177.78-.265 1.245-.265.314 0 .601.024.86.072.263.049.459.092.587.13l-.365 1.539a2.585 2.585 0 00-.299-.073 1.85 1.85 0 00-.355-.033c-.302 0-.511.07-.63.211-.119.138-.178.332-.178.582v7.88h-2.043zm7.837.145c-.747 0-1.392-.159-1.937-.476a3.256 3.256 0 01-1.255-1.337c-.295-.573-.442-1.239-.442-1.995 0-.763.147-1.43.442-2a3.218 3.218 0 011.255-1.336c.545-.32 1.19-.48 1.937-.48.747 0 1.391.16 1.933.48.545.317.964.763 1.259 1.336.295.57.443 1.237.443 2 0 .757-.148 1.422-.443 1.995a3.246 3.246 0 01-1.259 1.337c-.542.317-1.186.476-1.933.476zm.01-1.587c.34 0 .623-.096.851-.288a1.79 1.79 0 00.514-.798c.119-.337.178-.72.178-1.15a3.43 3.43 0 00-.178-1.148 1.79 1.79 0 00-.514-.798c-.228-.196-.511-.293-.851-.293-.343 0-.632.097-.866.293-.23.195-.405.461-.524.798-.115.336-.173.72-.173 1.149 0 .43.058.812.173 1.149.119.336.294.602.524.798.234.192.523.288.866.288zm4.956 1.442v-7.384h1.986v1.289h.077c.134-.459.36-.805.677-1.039a1.785 1.785 0 011.097-.356 3.091 3.091 0 01.644.073v1.817a2.667 2.667 0 00-.399-.077 3.602 3.602 0 00-.467-.034c-.301 0-.57.066-.807.197-.234.129-.42.308-.558.539a1.56 1.56 0 00-.202.798v4.177h-2.048zm5.54 0v-7.384h1.951v1.303h.087a2.05 2.05 0 01.769-1.024c.359-.25.789-.375 1.288-.375.507 0 .938.127 1.294.38.355.25.593.59.711 1.019h.077c.151-.423.423-.761.817-1.014.398-.257.867-.385 1.409-.385.689 0 1.248.22 1.678.659.432.436.649 1.054.649 1.855v4.966h-2.043v-4.562c0-.41-.109-.718-.327-.923a1.148 1.148 0 00-.818-.308c-.371 0-.661.119-.87.356-.208.234-.312.544-.312.928v4.51h-1.986v-4.606c0-.362-.104-.65-.312-.865-.205-.215-.476-.323-.813-.323a1.13 1.13 0 00-.615.174c-.179.112-.322.27-.428.475a1.51 1.51 0 00-.158.712v4.432h-2.048zm14.453.14a3.08 3.08 0 01-1.259-.245 2.02 2.02 0 01-.875-.736c-.212-.327-.318-.734-.318-1.221 0-.41.076-.755.226-1.034a1.83 1.83 0 01.616-.673c.259-.17.554-.298.884-.384a6.753 6.753 0 011.048-.183c.43-.045.776-.086 1.039-.125.262-.042.453-.102.572-.183a.403.403 0 00.178-.355v-.03c0-.304-.097-.54-.289-.706-.189-.166-.458-.25-.808-.25-.368 0-.661.082-.879.245-.218.16-.362.362-.433.606l-1.894-.154c.096-.448.285-.836.567-1.163.282-.33.646-.584 1.091-.76.449-.18.968-.269 1.558-.269.41 0 .803.048 1.178.144.378.096.713.245 1.005.447.294.202.527.462.697.78.17.313.254.69.254 1.129v4.98h-1.942v-1.024h-.057a2.098 2.098 0 01-.476.611 2.21 2.21 0 01-.717.409 2.959 2.959 0 01-.966.144zm.587-1.414c.301 0 .567-.059.798-.177.23-.122.411-.286.543-.49.131-.206.197-.438.197-.698v-.783c-.064.041-.152.08-.264.115a4.836 4.836 0 01-.371.091c-.137.026-.275.05-.413.072l-.375.053a2.53 2.53 0 00-.63.169 1.007 1.007 0 00-.418.312.763.763 0 00-.149.48c0 .28.101.493.303.64.205.144.464.216.779.216zm9.088-6.11v1.539h-4.447v-1.539h4.447zm-3.437-1.769h2.048v6.884c0 .19.028.337.086.443a.478.478 0 00.241.216.986.986 0 00.365.062c.096 0 .192-.008.288-.024l.221-.043.323 1.524a5.82 5.82 0 01-.433.11 3.476 3.476 0 01-.678.082c-.493.02-.926-.046-1.298-.197a1.807 1.807 0 01-.86-.702c-.206-.317-.307-.718-.303-1.202v-7.153zm4.771 9.153v-7.384h2.048v7.384h-2.048zm1.029-8.336c-.305 0-.566-.1-.784-.303a.98.98 0 01-.322-.735.96.96 0 01.322-.726c.218-.205.479-.308.784-.308.304 0 .564.103.779.308a.955.955 0 01.327.726c0 .285-.109.53-.327.735a1.098 1.098 0 01-.779.303zm5.996 8.48c-.747 0-1.393-.158-1.938-.475a3.26 3.26 0 01-1.254-1.337c-.295-.573-.443-1.239-.443-1.995 0-.763.148-1.43.443-2a3.222 3.222 0 011.254-1.336c.545-.32 1.191-.48 1.938-.48.747 0 1.391.16 1.932.48a3.21 3.21 0 011.26 1.336c.295.57.442 1.237.442 2 0 .757-.147 1.422-.442 1.995a3.248 3.248 0 01-1.26 1.337c-.541.317-1.185.476-1.932.476zm.009-1.586c.34 0 .624-.096.851-.288.228-.196.399-.462.515-.798a3.46 3.46 0 00.178-1.15c0-.429-.06-.812-.178-1.148a1.791 1.791 0 00-.515-.798c-.227-.196-.511-.293-.851-.293-.342 0-.631.097-.865.293a1.805 1.805 0 00-.524.798c-.115.336-.173.72-.173 1.149 0 .43.058.812.173 1.149.119.336.293.602.524.798.234.192.523.288.865.288zm7.005-2.827v4.27h-2.048v-7.385h1.952v1.303h.086c.164-.43.438-.77.822-1.02.385-.252.851-.379 1.399-.379.513 0 .96.112 1.342.337.381.224.677.544.889.961.211.413.317.907.317 1.48v4.702h-2.048v-4.336c.003-.452-.112-.804-.346-1.058-.234-.256-.556-.384-.966-.384-.276 0-.519.06-.731.178a1.237 1.237 0 00-.49.519 1.788 1.788 0 00-.178.812z" fill="#212225"/><path d="M209.794 87.699h.795v4.346c0 .449-.106.85-.318 1.202a2.22 2.22 0 01-.887.83c-.383.2-.832.301-1.347.301-.514 0-.963-.1-1.346-.301a2.25 2.25 0 01-.891-.83 2.312 2.312 0 01-.314-1.202v-4.346h.795v4.282c0 .32.071.606.212.856.141.247.342.443.602.586.263.141.577.212.942.212.366 0 .68-.071.943-.212.263-.143.463-.339.602-.587a1.71 1.71 0 00.212-.855v-4.282zm2.279 8.41v-6.77h.731v.783h.09c.055-.086.132-.195.231-.327.1-.135.243-.254.429-.359.188-.107.442-.16.763-.16.414 0 .78.103 1.096.31.316.208.563.502.74.882.178.38.266.83.266 1.346 0 .522-.088.973-.266 1.356-.177.38-.423.675-.737.884a1.92 1.92 0 01-1.086.311c-.317 0-.57-.052-.76-.157a1.402 1.402 0 01-.439-.362 4.52 4.52 0 01-.237-.34h-.064v2.603h-.757zm.744-4.308c0 .372.054.7.163.984.109.282.268.503.478.664.209.158.466.237.769.237.316 0 .58-.084.792-.25a1.53 1.53 0 00.48-.68c.109-.286.164-.604.164-.955a2.61 2.61 0 00-.16-.936 1.447 1.447 0 00-.478-.663c-.211-.165-.477-.247-.798-.247-.308 0-.566.078-.776.234-.209.154-.367.37-.474.648-.107.275-.16.597-.16.964zm6.615 2.564a1.93 1.93 0 01-1.087-.31 2.105 2.105 0 01-.737-.885c-.177-.383-.266-.835-.266-1.356 0-.517.089-.966.266-1.346.178-.38.424-.674.741-.881a1.946 1.946 0 011.096-.311c.32 0 .573.053.759.16.188.105.331.224.43.359.1.132.178.241.234.327h.064v-2.423h.756v6.564h-.731v-.757h-.089c-.056.09-.135.203-.238.34a1.391 1.391 0 01-.439.362c-.19.105-.443.157-.759.157zm.102-.68c.304 0 .56-.078.77-.236.209-.16.368-.382.477-.664.109-.284.164-.612.164-.984 0-.367-.054-.689-.161-.964a1.401 1.401 0 00-.474-.648c-.209-.156-.468-.234-.776-.234-.32 0-.587.082-.801.247a1.474 1.474 0 00-.477.663 2.63 2.63 0 00-.157.936c0 .35.053.67.16.955.109.284.269.511.481.68.213.166.478.25.794.25zm5.093.693c-.312 0-.595-.059-.849-.176a1.456 1.456 0 01-.606-.516c-.15-.227-.224-.5-.224-.82 0-.283.055-.511.166-.686.111-.178.26-.317.446-.417.186-.1.391-.175.615-.225.227-.05.454-.091.683-.121.299-.039.541-.068.727-.087.188-.021.325-.056.411-.106.087-.049.131-.134.131-.256v-.026c0-.316-.087-.562-.26-.737-.171-.175-.43-.263-.778-.263-.362 0-.645.08-.85.238a1.397 1.397 0 00-.432.506l-.718-.256c.128-.3.299-.532.512-.7a1.92 1.92 0 01.706-.352 2.92 2.92 0 01.756-.102c.158 0 .34.019.545.058.207.036.407.112.599.227.195.115.356.29.484.522.128.233.192.545.192.936v3.244h-.756v-.667h-.038a1.345 1.345 0 01-.257.343c-.12.122-.279.225-.477.31a1.845 1.845 0 01-.728.13zm.115-.68c.3 0 .552-.058.757-.176a1.205 1.205 0 00.628-1.041v-.692c-.032.038-.103.073-.212.105-.106.03-.23.057-.371.08a17.733 17.733 0 01-.725.096c-.196.026-.38.068-.551.126a.95.95 0 00-.41.253c-.103.11-.154.263-.154.455 0 .263.097.461.292.596.196.132.445.199.746.199zm5.663-4.358v.64h-2.551v-.64h2.551zm-1.808-1.18h.757v4.693c0 .213.031.373.092.48a.487.487 0 00.244.212.98.98 0 00.317.051c.084 0 .152-.004.205-.013l.129-.025.154.68a1.586 1.586 0 01-.565.09 1.54 1.54 0 01-.628-.139 1.242 1.242 0 01-.506-.42c-.133-.188-.199-.425-.199-.711V88.16zm4.957 6.205c-.475 0-.884-.104-1.228-.314a2.1 2.1 0 01-.791-.884c-.184-.38-.276-.823-.276-1.327 0-.505.092-.949.276-1.334.185-.386.444-.688.775-.903a2.083 2.083 0 011.167-.327c.256 0 .509.043.759.128.25.086.478.224.683.417.205.19.368.442.49.756s.183.7.183 1.16v.32h-3.795v-.653h3.026c0-.278-.056-.526-.167-.744a1.257 1.257 0 00-.468-.516 1.31 1.31 0 00-.711-.189c-.302 0-.562.075-.782.225a1.47 1.47 0 00-.503.576 1.69 1.69 0 00-.177.763v.436c0 .372.064.687.193.946.13.256.31.452.541.586.231.133.499.199.805.199.198 0 .378-.028.538-.084.162-.057.302-.143.42-.256a1.17 1.17 0 00.272-.43l.731.206a1.617 1.617 0 01-.388.653 1.885 1.885 0 01-.673.436 2.493 2.493 0 01-.9.154zm6.214 1.744a1.654 1.654 0 01-.551-.09l.192-.667c.184.047.346.064.487.052a.585.585 0 00.375-.19c.111-.11.213-.291.305-.541l.141-.385-1.821-4.948h.821l1.359 3.923h.051l1.359-3.923h.82l-2.089 5.64a2.132 2.132 0 01-.35.632c-.139.169-.3.294-.484.375a1.489 1.489 0 01-.615.122zm6.36-1.744a2.15 2.15 0 01-1.17-.317 2.158 2.158 0 01-.782-.888c-.185-.38-.278-.825-.278-1.333 0-.513.093-.96.278-1.343.188-.382.449-.68.782-.89a2.15 2.15 0 011.17-.318c.445 0 .833.106 1.167.317.335.212.596.509.782.891.188.383.282.83.282 1.343 0 .508-.094.953-.282 1.333a2.13 2.13 0 01-.782.888 2.132 2.132 0 01-1.167.317zm0-.68c.338 0 .616-.086.833-.259.218-.173.38-.4.484-.682.105-.282.157-.588.157-.917 0-.33-.052-.636-.157-.92a1.545 1.545 0 00-.484-.689c-.217-.175-.495-.263-.833-.263-.337 0-.615.088-.833.263a1.552 1.552 0 00-.484.69c-.105.283-.157.59-.157.919 0 .329.052.635.157.917.105.282.266.51.484.682.218.173.496.26.833.26zm6.488-1.435v-2.91h.756v4.923h-.756v-.834h-.051c-.116.25-.295.463-.539.638-.243.173-.551.26-.923.26-.308 0-.581-.067-.82-.202a1.405 1.405 0 01-.564-.615c-.137-.276-.206-.623-.206-1.042V89.34h.757v3.077c0 .359.1.645.301.859.203.213.462.32.776.32.188 0 .379-.048.573-.144.197-.096.361-.244.494-.442.135-.2.202-.452.202-.76zm2.142 2.013V89.34h.73v.743h.052c.089-.243.252-.44.487-.593.235-.151.5-.227.794-.227a8.627 8.627 0 01.398.013v.769a2.286 2.286 0 00-.176-.029 1.748 1.748 0 00-.286-.022c-.239 0-.453.05-.641.15a1.104 1.104 0 00-.602 1.003v3.116h-.756zm7.344.115c-.312 0-.595-.059-.849-.176a1.462 1.462 0 01-.606-.516 1.46 1.46 0 01-.224-.82c0-.283.056-.511.167-.686.111-.178.259-.317.445-.417.186-.1.391-.175.616-.225.226-.05.454-.091.682-.121a27.4 27.4 0 01.728-.087c.188-.021.324-.056.41-.106.088-.049.131-.134.131-.256v-.026c0-.316-.086-.562-.259-.737-.171-.175-.431-.263-.779-.263-.361 0-.644.08-.849.238a1.4 1.4 0 00-.433.506l-.718-.256c.128-.3.299-.532.513-.7.216-.168.451-.285.705-.352a2.92 2.92 0 01.756-.102c.158 0 .34.019.545.058.207.036.407.112.599.227.195.115.356.29.484.522.129.233.193.545.193.936v3.244h-.757v-.667h-.038a1.322 1.322 0 01-.257.343 1.467 1.467 0 01-.477.31 1.842 1.842 0 01-.728.13zm.116-.68c.299 0 .551-.058.756-.176a1.205 1.205 0 00.628-1.041v-.692c-.032.038-.102.073-.211.105-.107.03-.231.057-.372.08a17.733 17.733 0 01-.724.096 2.895 2.895 0 00-.552.126.957.957 0 00-.41.253c-.102.11-.154.263-.154.455 0 .263.098.461.292.596.197.132.446.199.747.199zm5.521.667c-.461 0-.859-.109-1.192-.327a2.129 2.129 0 01-.769-.9c-.18-.383-.27-.82-.27-1.311 0-.5.092-.941.276-1.324.186-.384.445-.684.776-.9a2.082 2.082 0 011.166-.327c.346 0 .658.064.936.192s.505.308.683.538c.177.231.287.5.33.808h-.756a1.173 1.173 0 00-.385-.596c-.197-.175-.462-.263-.795-.263-.295 0-.553.077-.775.231a1.49 1.49 0 00-.516.644c-.122.276-.183.6-.183.971 0 .38.06.712.179.994.122.282.293.5.513.657.222.156.483.234.782.234.197 0 .375-.034.535-.103a1.096 1.096 0 00.645-.756h.756c-.043.29-.149.552-.317.785-.167.23-.388.415-.664.551a2.137 2.137 0 01-.955.202zm5.041 0c-.461 0-.858-.109-1.192-.327a2.136 2.136 0 01-.769-.9 3.059 3.059 0 01-.269-1.311c0-.5.092-.941.275-1.324.186-.384.445-.684.776-.9a2.083 2.083 0 011.167-.327c.346 0 .658.064.936.192.277.128.505.308.682.538.178.231.288.5.33.808h-.756a1.173 1.173 0 00-.385-.596c-.196-.175-.461-.263-.795-.263-.294 0-.553.077-.775.231-.22.152-.392.366-.516.644-.122.276-.183.6-.183.971 0 .38.06.712.18.994.121.282.292.5.512.657.223.156.483.234.782.234.197 0 .375-.034.536-.103a1.104 1.104 0 00.644-.756h.756a1.741 1.741 0 01-.98 1.336 2.141 2.141 0 01-.956.202zm5.042 0c-.445 0-.834-.105-1.17-.317a2.158 2.158 0 01-.782-.888c-.186-.38-.279-.825-.279-1.333 0-.513.093-.96.279-1.343.188-.382.449-.68.782-.89a2.147 2.147 0 011.17-.318c.444 0 .833.106 1.166.317.336.212.597.509.782.891.188.383.282.83.282 1.343 0 .508-.094.953-.282 1.333-.185.38-.446.676-.782.888a2.129 2.129 0 01-1.166.317zm0-.68c.337 0 .615-.086.833-.259.218-.173.379-.4.484-.682.105-.282.157-.588.157-.917 0-.33-.052-.636-.157-.92a1.552 1.552 0 00-.484-.689c-.218-.175-.496-.263-.833-.263-.338 0-.615.088-.833.263-.218.175-.38.405-.484.69-.105.283-.157.59-.157.919 0 .329.052.635.157.917.104.282.266.51.484.682.218.173.495.26.833.26zm6.487-1.435v-2.91h.757v4.923h-.757v-.834h-.051c-.115.25-.295.463-.538.638-.244.173-.552.26-.923.26-.308 0-.581-.067-.821-.202a1.417 1.417 0 01-.564-.615c-.137-.276-.205-.623-.205-1.042V89.34h.756v3.077c0 .359.101.645.302.859.203.213.461.32.775.32.188 0 .38-.048.574-.144.197-.096.361-.244.494-.442.134-.2.201-.452.201-.76zm2.899-.949v2.962h-.757V89.34h.731v.77h.064c.115-.25.291-.452.526-.603.235-.154.538-.231.91-.231.333 0 .625.068.875.205.25.135.444.34.583.615.139.274.208.62.208 1.039v3.128h-.756v-3.077c0-.387-.1-.688-.301-.904-.201-.218-.477-.327-.827-.327a1.33 1.33 0 00-.648.157 1.123 1.123 0 00-.445.459c-.109.2-.163.444-.163.73zm6.663-1.961v.64h-2.551v-.64h2.551zm-1.807-1.18h.756v4.693c0 .213.031.373.093.48a.479.479 0 00.244.212.98.98 0 00.317.051c.083 0 .152-.004.205-.013l.128-.025.154.68a1.53 1.53 0 01-.215.057 1.57 1.57 0 01-.349.032 1.52 1.52 0 01-.628-.138 1.242 1.242 0 01-.506-.42c-.133-.188-.199-.425-.199-.711V88.16zm3.867-.461v.577c0 .175-.032.362-.096.56a2.343 2.343 0 01-.275.574c-.12.184-.265.344-.436.481l-.411-.333a4.07 4.07 0 00.35-.6c.1-.209.15-.432.15-.67V87.7h.718zm3.79 2.743l-.679.193a1.279 1.279 0 00-.189-.33.927.927 0 00-.334-.27 1.208 1.208 0 00-.541-.105c-.302 0-.553.07-.753.208-.199.137-.298.31-.298.522a.54.54 0 00.205.446c.136.109.35.2.641.272l.73.18c.44.107.768.27.984.49.216.218.324.499.324.843 0 .282-.081.534-.244.756a1.61 1.61 0 01-.673.526 2.457 2.457 0 01-1.006.192c-.502 0-.918-.109-1.247-.327-.329-.218-.537-.536-.625-.955l.718-.18c.069.266.198.464.388.597.192.132.443.199.753.199.353 0 .633-.075.84-.225.209-.151.314-.333.314-.545 0-.17-.06-.314-.18-.429-.119-.118-.303-.205-.551-.263l-.82-.192c-.451-.107-.782-.273-.994-.497a1.205 1.205 0 01-.314-.85c0-.277.078-.523.234-.736.158-.214.373-.382.644-.504a2.28 2.28 0 01.93-.182c.487 0 .869.107 1.147.32.28.214.479.496.596.846zm5.767 3.923c-.462 0-.859-.109-1.193-.327a2.136 2.136 0 01-.769-.9 3.059 3.059 0 01-.269-1.311c0-.5.092-.941.276-1.324a2.18 2.18 0 01.775-.9 2.085 2.085 0 011.167-.327c.346 0 .658.064.936.192.277.128.505.308.682.538.178.231.288.5.33.808h-.756a1.178 1.178 0 00-.384-.596c-.197-.175-.462-.263-.795-.263a1.33 1.33 0 00-.776.231c-.22.152-.392.366-.516.644-.122.276-.183.6-.183.971 0 .38.06.712.18.994.122.282.293.5.513.657.222.156.483.234.782.234.196 0 .375-.034.535-.103a1.104 1.104 0 00.644-.756h.756a1.741 1.741 0 01-.98 1.336 2.14 2.14 0 01-.955.202zm5.041 0a2.15 2.15 0 01-1.17-.317 2.158 2.158 0 01-.782-.888c-.186-.38-.279-.825-.279-1.333 0-.513.093-.96.279-1.343.188-.382.449-.68.782-.89a2.15 2.15 0 011.17-.318c.444 0 .833.106 1.167.317.335.212.596.509.782.891.188.383.282.83.282 1.343 0 .508-.094.953-.282 1.333a2.13 2.13 0 01-.782.888 2.135 2.135 0 01-1.167.317zm0-.68c.338 0 .615-.086.833-.259.218-.173.38-.4.484-.682.105-.282.157-.588.157-.917 0-.33-.052-.636-.157-.92a1.545 1.545 0 00-.484-.689c-.218-.175-.495-.263-.833-.263-.338 0-.615.088-.833.263a1.552 1.552 0 00-.484.69c-.105.283-.157.59-.157.919 0 .329.052.635.157.917.105.282.266.51.484.682.218.173.495.26.833.26zm4.142-2.384v2.962h-.757V89.34h.731v.77h.064c.116-.25.291-.452.526-.603.235-.154.538-.231.91-.231.333 0 .625.068.875.205.25.135.444.34.583.615.139.274.209.62.209 1.039v3.128h-.757v-3.077c0-.387-.1-.688-.301-.904-.201-.218-.477-.327-.827-.327-.241 0-.457.053-.647.157a1.125 1.125 0 00-.446.459c-.109.2-.163.444-.163.73zm6.664-1.961v.64h-2.552v-.64h2.552zm-1.808-1.18h.756v4.693c0 .213.031.373.093.48a.483.483 0 00.244.212.98.98 0 00.317.051c.083 0 .152-.004.205-.013l.128-.025.154.68a1.586 1.586 0 01-.564.09 1.54 1.54 0 01-.628-.139 1.242 1.242 0 01-.506-.42c-.133-.188-.199-.425-.199-.711V88.16zm4.394 6.218c-.312 0-.595-.059-.849-.176a1.45 1.45 0 01-.606-.516c-.15-.227-.224-.5-.224-.82 0-.283.055-.511.166-.686.111-.178.26-.317.446-.417.186-.1.391-.175.615-.225.227-.05.454-.091.683-.121.299-.039.541-.068.727-.087.188-.021.325-.056.41-.106.088-.049.132-.134.132-.256v-.026c0-.316-.087-.562-.26-.737-.171-.175-.43-.263-.779-.263-.361 0-.644.08-.849.238a1.41 1.41 0 00-.433.506l-.717-.256c.128-.3.299-.532.512-.7.216-.168.451-.285.705-.352a2.95 2.95 0 01.757-.102c.158 0 .34.019.545.058.207.036.407.112.599.227.194.115.356.29.484.522.128.233.192.545.192.936v3.244h-.756v-.667h-.039a1.315 1.315 0 01-.256.343 1.47 1.47 0 01-.478.31 1.837 1.837 0 01-.727.13zm.115-.68c.299 0 .552-.058.757-.176a1.205 1.205 0 00.628-1.041v-.692c-.032.038-.103.073-.212.105-.107.03-.23.057-.371.08a17.733 17.733 0 01-.725.096c-.196.026-.38.068-.551.126a.945.945 0 00-.41.253c-.103.11-.154.263-.154.455 0 .263.097.461.292.596.196.132.445.199.746.199zm5.522.667c-.462 0-.859-.109-1.193-.327a2.136 2.136 0 01-.769-.9 3.059 3.059 0 01-.269-1.311c0-.5.092-.941.276-1.324.185-.384.444-.684.775-.9a2.085 2.085 0 011.167-.327c.346 0 .658.064.936.192.277.128.505.308.682.538.178.231.288.5.33.808h-.756a1.173 1.173 0 00-.385-.596c-.196-.175-.461-.263-.794-.263a1.33 1.33 0 00-.776.231c-.22.152-.392.366-.516.644-.122.276-.183.6-.183.971 0 .38.06.712.18.994.122.282.293.5.513.657.222.156.482.234.782.234.196 0 .375-.034.535-.103a1.104 1.104 0 00.644-.756h.756a1.741 1.741 0 01-.98 1.336 2.14 2.14 0 01-.955.202zm5.182-5.025v.64h-2.551v-.64h2.551zm-1.808-1.18h.757v4.693c0 .213.031.373.093.48a.481.481 0 00.243.212.98.98 0 00.318.051c.083 0 .151-.004.205-.013l.128-.025.154.68a1.57 1.57 0 01-.215.057 1.576 1.576 0 01-.349.032c-.214 0-.423-.046-.629-.138a1.255 1.255 0 01-.506-.42c-.132-.188-.199-.425-.199-.711V88.16zm5.484 6.103V89.34h.756v4.923h-.756zm.385-5.744a.539.539 0 01-.382-.15.486.486 0 01-.157-.362.49.49 0 01.157-.363.54.54 0 01.382-.15c.147 0 .273.05.378.15.107.1.16.222.16.363a.478.478 0 01-.16.362.528.528 0 01-.378.15zm2.513 2.782v2.962h-.756V89.34h.73v.77h.065a1.4 1.4 0 01.525-.603c.235-.154.539-.231.91-.231.334 0 .625.068.875.205.25.135.445.34.584.615.139.274.208.62.208 1.039v3.128h-.756v-3.077c0-.387-.101-.688-.302-.904-.201-.218-.476-.327-.827-.327-.241 0-.457.053-.647.157a1.123 1.123 0 00-.445.459c-.109.2-.164.444-.164.73zm6.715-1.961v.64h-2.653v-.64h2.653zm-1.859 4.923V88.66c0-.282.067-.517.199-.705.133-.188.305-.329.516-.423.212-.094.435-.14.67-.14.186 0 .338.014.455.044.118.03.205.058.263.083l-.218.654a4.303 4.303 0 00-.16-.048.978.978 0 00-.263-.029c-.25 0-.431.063-.542.19-.109.126-.163.31-.163.554v5.423h-.757zm4.716.102a2.14 2.14 0 01-1.169-.317 2.151 2.151 0 01-.782-.888c-.186-.38-.279-.825-.279-1.333 0-.513.093-.96.279-1.343.188-.382.448-.68.782-.89a2.144 2.144 0 011.169-.318c.445 0 .834.106 1.167.317.336.212.596.509.782.891.188.383.282.83.282 1.343 0 .508-.094.953-.282 1.333-.186.38-.446.676-.782.888a2.13 2.13 0 01-1.167.317zm0-.68c.338 0 .616-.086.834-.259.218-.173.379-.4.484-.682a2.63 2.63 0 00.157-.917c0-.33-.053-.636-.157-.92a1.552 1.552 0 00-.484-.689c-.218-.175-.496-.263-.834-.263-.337 0-.615.088-.833.263a1.552 1.552 0 00-.484.69c-.104.283-.157.59-.157.919 0 .329.053.635.157.917.105.282.266.51.484.682.218.173.496.26.833.26zm3.386.578V89.34h.73v.743h.052c.089-.243.252-.44.487-.593.235-.151.5-.227.795-.227a8.555 8.555 0 01.397.013v.769a2.286 2.286 0 00-.176-.029 1.744 1.744 0 00-.285-.022c-.24 0-.453.05-.641.15a1.104 1.104 0 00-.603 1.003v3.116h-.756zm3.358 0V89.34h.73v.77h.065c.102-.264.268-.468.496-.613.229-.147.503-.221.824-.221.325 0 .595.074.811.22.218.146.388.35.509.613h.052c.126-.254.315-.456.567-.606.252-.151.554-.227.907-.227.44 0 .8.138 1.08.413.28.274.42.7.42 1.279v3.295h-.757v-3.295c0-.363-.099-.623-.298-.779a1.1 1.1 0 00-.701-.234c-.347 0-.615.105-.805.314-.19.208-.285.47-.285.789v3.205h-.769V90.89c0-.28-.091-.505-.273-.676-.181-.173-.415-.26-.702-.26-.196 0-.38.053-.551.157-.169.105-.305.25-.41.436a1.282 1.282 0 00-.154.638v3.077h-.756zm9.292.115c-.312 0-.595-.059-.849-.176a1.462 1.462 0 01-.606-.516 1.46 1.46 0 01-.224-.82c0-.283.056-.511.167-.686.111-.178.259-.317.445-.417.186-.1.391-.175.616-.225.226-.05.454-.091.682-.121a27.4 27.4 0 01.728-.087c.188-.021.324-.056.41-.106.088-.049.131-.134.131-.256v-.026c0-.316-.086-.562-.259-.737-.171-.175-.431-.263-.779-.263-.361 0-.644.08-.849.238-.206.158-.35.326-.433.506l-.718-.256c.128-.3.299-.532.513-.7.216-.168.451-.285.705-.352a2.92 2.92 0 01.756-.102c.158 0 .34.019.545.058.207.036.407.112.599.227.195.115.356.29.484.522.129.233.193.545.193.936v3.244h-.757v-.667h-.038a1.322 1.322 0 01-.257.343 1.467 1.467 0 01-.477.31 1.842 1.842 0 01-.728.13zm.116-.68c.299 0 .551-.058.756-.176a1.205 1.205 0 00.628-1.041v-.692c-.032.038-.102.073-.211.105-.107.03-.231.057-.372.08a17.733 17.733 0 01-.724.096 2.895 2.895 0 00-.552.126.957.957 0 00-.41.253c-.102.11-.154.263-.154.455 0 .263.098.461.292.596.197.132.446.199.747.199zm5.662-4.358v.64h-2.551v-.64h2.551zm-1.807-1.18h.756v4.693c0 .213.031.373.093.48a.481.481 0 00.243.212.985.985 0 00.318.051 1.34 1.34 0 00.333-.038l.154.68a1.53 1.53 0 01-.215.057 1.576 1.576 0 01-.349.032 1.52 1.52 0 01-.628-.138 1.252 1.252 0 01-.507-.42c-.132-.188-.198-.425-.198-.711V88.16zm2.945 6.103V89.34h.756v4.923h-.756zm.384-5.744a.538.538 0 01-.381-.15.483.483 0 01-.157-.362c0-.141.052-.262.157-.363a.54.54 0 01.381-.15.53.53 0 01.379.15c.106.1.16.222.16.363a.482.482 0 01-.16.362.528.528 0 01-.379.15zm3.757 5.846a2.14 2.14 0 01-1.169-.317 2.151 2.151 0 01-.782-.888c-.186-.38-.279-.825-.279-1.333 0-.513.093-.96.279-1.343.188-.382.448-.68.782-.89a2.144 2.144 0 011.169-.318c.445 0 .834.106 1.167.317.336.212.596.509.782.891.188.383.282.83.282 1.343 0 .508-.094.953-.282 1.333-.186.38-.446.676-.782.888a2.13 2.13 0 01-1.167.317zm0-.68c.338 0 .616-.086.834-.259.218-.173.379-.4.484-.682a2.63 2.63 0 00.157-.917c0-.33-.053-.636-.157-.92a1.552 1.552 0 00-.484-.689c-.218-.175-.496-.263-.834-.263-.337 0-.615.088-.833.263a1.552 1.552 0 00-.484.69c-.104.283-.157.59-.157.919 0 .329.053.635.157.917.105.282.266.51.484.682.218.173.496.26.833.26zm4.142-2.384v2.962h-.756V89.34h.73v.77h.065a1.4 1.4 0 01.525-.603c.235-.154.539-.231.91-.231.334 0 .625.068.875.205.25.135.445.34.584.615.138.274.208.62.208 1.039v3.128h-.756v-3.077c0-.387-.101-.688-.302-.904-.201-.218-.476-.327-.827-.327-.241 0-.457.053-.647.157a1.125 1.125 0 00-.446.459 1.52 1.52 0 00-.163.73zm5.074 3.013a.555.555 0 01-.407-.17.556.556 0 01-.17-.407c0-.158.057-.294.17-.407a.555.555 0 01.407-.17c.158 0 .294.057.407.17.114.113.17.249.17.407a.601.601 0 01-.288.5.553.553 0 01-.289.077zm-177.217 22.537v5.743h-.926l-2.706-3.912h-.048v3.912h-1.04v-5.743h.931l2.703 3.915h.051v-3.915h1.035zm2.328 5.83c-.273 0-.519-.048-.738-.146a1.216 1.216 0 01-.516-.437 1.282 1.282 0 01-.187-.712c0-.243.044-.444.134-.603.09-.159.212-.286.368-.382.155-.095.329-.167.524-.216.196-.05.399-.087.608-.109.253-.026.458-.05.615-.07a.917.917 0 00.342-.101c.073-.047.109-.119.109-.216v-.017c0-.211-.063-.375-.188-.491-.125-.116-.305-.173-.541-.173-.249 0-.446.054-.592.162a.808.808 0 00-.291.384l-.948-.134c.075-.262.198-.481.37-.656.172-.178.382-.311.631-.399a2.43 2.43 0 01.824-.134c.208 0 .414.024.62.073.206.048.394.129.564.241.17.11.306.261.409.451.105.191.157.429.157.715v2.883h-.976v-.591h-.033a1.263 1.263 0 01-.261.336 1.26 1.26 0 01-.418.25 1.7 1.7 0 01-.586.092zm.264-.746c.203 0 .38-.04.53-.12a.904.904 0 00.345-.326.828.828 0 00.123-.44v-.508a.455.455 0 01-.163.073 2.242 2.242 0 01-.252.059 7.285 7.285 0 01-.278.045l-.238.034c-.152.02-.287.054-.407.101a.672.672 0 00-.283.196.481.481 0 00-.104.32.48.48 0 00.205.423c.136.096.31.143.522.143zm3.031.659v-4.307h.97v.732h.051c.09-.247.238-.44.446-.578.207-.14.455-.21.743-.21.292 0 .537.071.737.213.202.14.344.332.427.575h.045c.095-.24.256-.43.482-.572.228-.144.498-.216.81-.216.397 0 .72.125.971.375.25.251.375.617.375 1.097v2.891h-1.018v-2.734c0-.267-.071-.463-.213-.586a.762.762 0 00-.521-.188c-.245 0-.437.077-.575.23-.137.151-.205.349-.205.592v2.686h-.995v-2.776c0-.223-.068-.4-.202-.533a.706.706 0 00-.522-.199.732.732 0 00-.398.112.783.783 0 00-.286.311.974.974 0 00-.107.466v2.619h-1.015zm8.994.084c-.432 0-.805-.089-1.119-.269a1.818 1.818 0 01-.72-.768c-.169-.333-.253-.725-.253-1.175 0-.443.084-.832.253-1.167.17-.336.407-.598.712-.785a1.997 1.997 0 011.074-.283c.265 0 .516.043.751.129.238.084.447.215.629.392.183.178.327.404.432.679.104.273.157.598.157.976v.311h-3.531v-.684h2.557a1.074 1.074 0 00-.126-.519.917.917 0 00-.345-.362.966.966 0 00-.51-.131c-.208 0-.39.05-.547.151-.157.099-.279.23-.367.393-.086.16-.13.337-.132.53v.597c0 .25.046.465.137.645.092.178.22.314.385.409.164.094.357.141.577.141.148 0 .282-.021.401-.062a.895.895 0 00.312-.188.79.79 0 00.199-.306l.947.107c-.059.25-.173.469-.342.656a1.666 1.666 0 01-.639.432 2.45 2.45 0 01-.892.151z" fill="#637282"/><path d="M214.511 141.285h.948l2.231 5.449h.077l2.231-5.449h.948v6.564h-.743v-4.987h-.064l-2.052 4.987h-.717l-2.052-4.987h-.064v4.987h-.743v-6.564zm8.413 8.41a1.671 1.671 0 01-.551-.09l.193-.666c.183.047.346.064.487.051a.586.586 0 00.375-.189c.111-.111.212-.292.304-.542l.141-.384-1.82-4.949h.82l1.359 3.923h.051l1.359-3.923h.821l-2.09 5.641c-.094.254-.21.465-.349.631-.139.169-.3.294-.484.375a1.482 1.482 0 01-.616.122zm7.22-1.846v.705h-4.102v-.705h4.102zm1.854-2.961v2.961h-.756v-4.923h.731v.77h.064c.115-.25.291-.451.526-.603.235-.154.538-.231.91-.231.333 0 .625.069.875.205.25.135.444.34.583.616.139.273.208.619.208 1.038v3.128h-.756v-3.077c0-.386-.1-.688-.301-.903-.201-.218-.477-.327-.827-.327a1.32 1.32 0 00-.648.157 1.117 1.117 0 00-.445.458 1.513 1.513 0 00-.164.731zm5.972 3.076a1.99 1.99 0 01-.849-.176 1.453 1.453 0 01-.606-.516 1.45 1.45 0 01-.224-.82c0-.282.055-.511.166-.686.111-.177.26-.316.446-.417.186-.1.391-.175.615-.224.227-.051.454-.092.683-.122.299-.038.541-.067.727-.086.188-.022.325-.057.411-.106.087-.049.131-.135.131-.257v-.025c0-.316-.087-.562-.26-.737-.171-.176-.43-.263-.778-.263-.362 0-.645.079-.85.237a1.4 1.4 0 00-.432.506l-.718-.256a1.73 1.73 0 01.512-.699c.216-.168.451-.286.706-.352.256-.069.508-.103.756-.103.158 0 .34.019.545.058.207.036.407.112.599.227.195.116.356.29.484.523.128.233.192.545.192.936v3.243h-.756v-.667h-.038a1.328 1.328 0 01-.257.343c-.12.122-.279.226-.477.311a1.835 1.835 0 01-.728.128zm.115-.679c.3 0 .552-.059.757-.176.207-.118.363-.269.468-.455a1.16 1.16 0 00.16-.587v-.692c-.032.038-.103.074-.212.106-.106.03-.23.056-.371.08a18.823 18.823 0 01-.725.096c-.196.026-.38.067-.551.125a.947.947 0 00-.41.253c-.103.111-.154.263-.154.455 0 .263.097.462.292.596.196.133.445.199.746.199zm3.522.564v-4.923h.731v.77h.064a1.24 1.24 0 01.496-.613c.229-.147.504-.221.824-.221.325 0 .595.074.811.221.218.146.388.35.51.613h.051c.126-.255.315-.457.567-.606.252-.152.555-.228.907-.228.44 0 .8.138 1.08.414.28.273.42.699.42 1.278v3.295h-.756v-3.295c0-.363-.1-.622-.298-.778a1.104 1.104 0 00-.702-.234c-.346 0-.615.104-.805.314-.19.207-.285.47-.285.788v3.205h-.769v-3.371c0-.28-.091-.506-.273-.677-.181-.173-.415-.259-.701-.259-.197 0-.381.052-.552.157-.168.104-.305.25-.41.436a1.289 1.289 0 00-.154.637v3.077h-.756zm9.908.103c-.474 0-.884-.105-1.228-.314a2.118 2.118 0 01-.791-.885c-.184-.38-.276-.823-.276-1.327s.092-.948.276-1.333c.186-.387.444-.688.775-.904a2.087 2.087 0 011.167-.327c.256 0 .51.043.76.128.25.086.477.225.682.417.205.19.369.442.491.756.121.315.182.701.182 1.161v.32h-3.794v-.654h3.025c0-.277-.055-.525-.167-.743a1.253 1.253 0 00-.467-.516 1.312 1.312 0 00-.712-.189c-.301 0-.562.074-.782.224a1.47 1.47 0 00-.503.577 1.687 1.687 0 00-.176.763v.436c0 .371.064.686.192.945.13.256.311.452.542.587.23.132.498.198.804.198.199 0 .378-.028.538-.083a1.15 1.15 0 00.42-.256c.118-.116.209-.259.273-.43l.73.205a1.626 1.626 0 01-.387.654 1.897 1.897 0 01-.673.436 2.515 2.515 0 01-.901.154z" fill="#212225"/><rect x="204.692" y="128.696" width="368.901" height="31.588" rx="2.256" stroke="#C4C8CF" stroke-width=".564"/><path d="M207.687 167.053h1.175l1.405 2.541h.056l1.405-2.541h1.175l-2.089 3.601v2.142h-1.038v-2.142l-2.089-3.601zm6.985 5.828c-.421 0-.785-.093-1.094-.278a1.886 1.886 0 01-.718-.777c-.168-.333-.252-.722-.252-1.167 0-.444.084-.834.252-1.169.17-.335.41-.594.718-.78.309-.185.673-.277 1.094-.277.42 0 .785.092 1.093.277.309.186.547.445.716.78.17.335.255.725.255 1.169 0 .445-.085.834-.255 1.167a1.869 1.869 0 01-.716.777c-.308.185-.673.278-1.093.278zm.005-.814a.87.87 0 00.572-.188c.154-.127.268-.297.343-.51a2.11 2.11 0 00.115-.712c0-.264-.039-.502-.115-.715a1.137 1.137 0 00-.343-.514.866.866 0 00-.572-.19.89.89 0 00-.583.19 1.164 1.164 0 00-.345.514 2.141 2.141 0 00-.112.715c0 .261.037.499.112.712.077.213.192.383.345.51.155.126.35.188.583.188zm5.666-1.082v-2.496h1.015v4.307h-.984v-.765h-.045a1.297 1.297 0 01-.48.592c-.22.153-.492.229-.816.229-.282 0-.532-.062-.749-.187a1.309 1.309 0 01-.504-.553c-.122-.243-.183-.536-.183-.88v-2.743h1.016v2.586c0 .272.074.489.224.65a.765.765 0 00.589.241.928.928 0 00.434-.109.874.874 0 00.345-.325c.092-.146.138-.328.138-.547zm5.897 1.896c-.43 0-.8-.095-1.108-.284a1.893 1.893 0 01-.71-.782 2.596 2.596 0 01-.246-1.156c0-.437.084-.823.252-1.158.168-.336.406-.598.712-.785.309-.189.673-.283 1.094-.283.35 0 .659.064.928.193.271.127.487.308.648.542.161.231.252.503.275.813h-.97a.929.929 0 00-.281-.519c-.146-.14-.341-.21-.586-.21a.919.919 0 00-.547.168c-.157.11-.279.269-.367.477a1.942 1.942 0 00-.129.746c0 .293.043.546.129.757a1.1 1.1 0 00.362.485.926.926 0 00.552.168c.15 0 .283-.028.401-.084a.803.803 0 00.3-.249.959.959 0 00.166-.396h.97a1.693 1.693 0 01-.269.811 1.609 1.609 0 01-.634.549 2.119 2.119 0 01-.942.197zm3.918.002c-.273 0-.519-.048-.738-.146a1.21 1.21 0 01-.516-.437 1.282 1.282 0 01-.187-.712c0-.243.044-.444.134-.603.09-.159.212-.286.368-.382.155-.095.329-.167.524-.216a4.41 4.41 0 01.608-.109c.253-.026.458-.049.615-.07a.9.9 0 00.342-.101c.073-.047.109-.119.109-.216v-.017c0-.211-.063-.375-.188-.49-.125-.116-.305-.174-.541-.174-.249 0-.446.054-.592.162a.805.805 0 00-.291.385l-.948-.135c.075-.262.198-.481.37-.656.172-.178.382-.311.631-.399a2.43 2.43 0 01.824-.134c.208 0 .414.024.62.073.206.048.394.129.564.241.17.11.306.261.409.451.105.191.157.43.157.716v2.882h-.976v-.591h-.033a1.263 1.263 0 01-.261.336 1.26 1.26 0 01-.418.25 1.7 1.7 0 01-.586.092zm.264-.746c.203 0 .38-.04.53-.12a.897.897 0 00.345-.326.828.828 0 00.123-.44v-.507a.493.493 0 01-.163.073 2.252 2.252 0 01-.252.058 7.285 7.285 0 01-.278.045l-.238.034a1.782 1.782 0 00-.407.101.68.68 0 00-.283.196.481.481 0 00-.104.32.48.48 0 00.205.423c.136.096.31.143.522.143zm4.046-1.865v2.524h-1.015v-4.307h.97v.732h.051a1.23 1.23 0 01.474-.575c.218-.142.489-.213.81-.213.297 0 .556.063.777.191.222.127.394.311.516.552.123.241.184.534.182.878v2.742h-1.015v-2.585c0-.288-.075-.513-.224-.676-.148-.163-.353-.244-.614-.244a.937.937 0 00-.474.118.817.817 0 00-.323.333 1.137 1.137 0 00-.115.53zm7.635 2.609c-.43 0-.799-.095-1.108-.284a1.89 1.89 0 01-.709-.782 2.583 2.583 0 01-.247-1.156c0-.437.084-.823.252-1.158a1.89 1.89 0 01.713-.785c.308-.189.673-.283 1.093-.283.35 0 .659.064.929.193a1.577 1.577 0 01.922 1.355h-.97a.928.928 0 00-.28-.519c-.146-.14-.342-.21-.587-.21a.916.916 0 00-.546.168c-.157.11-.28.269-.368.477a1.942 1.942 0 00-.129.746c0 .293.043.546.129.757.086.209.207.371.362.485a.926.926 0 00.552.168c.15 0 .284-.028.401-.084a.803.803 0 00.3-.249.959.959 0 00.166-.396h.97a1.693 1.693 0 01-.269.811 1.595 1.595 0 01-.634.549 2.116 2.116 0 01-.942.197zm3.694-2.609v2.524h-1.015v-5.743h.993v2.168h.05c.101-.243.257-.435.468-.575.213-.142.485-.213.814-.213.299 0 .56.062.782.188.222.125.394.308.516.549.123.242.185.536.185.884v2.742h-1.015v-2.585c0-.29-.075-.515-.224-.676-.148-.163-.356-.244-.623-.244a.975.975 0 00-.482.118.817.817 0 00-.331.333 1.1 1.1 0 00-.118.53zm5.067 2.611c-.273 0-.518-.048-.737-.146a1.198 1.198 0 01-.516-.437 1.282 1.282 0 01-.188-.712c0-.243.045-.444.135-.603.089-.159.212-.286.367-.382.155-.095.33-.167.524-.216.197-.05.399-.086.609-.109.252-.026.457-.049.614-.07a.9.9 0 00.342-.101c.073-.047.11-.119.11-.216v-.017c0-.211-.063-.375-.188-.49-.126-.116-.306-.174-.542-.174-.248 0-.445.054-.591.162a.814.814 0 00-.292.385l-.948-.135c.075-.262.198-.481.37-.656.172-.178.383-.311.631-.399.249-.089.524-.134.825-.134.207 0 .414.024.62.073.205.048.393.129.563.241.17.11.307.261.41.451.104.191.157.43.157.716v2.882h-.976v-.591h-.034a1.242 1.242 0 01-.679.586 1.696 1.696 0 01-.586.092zm.264-.746c.204 0 .38-.04.53-.12a.883.883 0 00.345-.326.828.828 0 00.123-.44v-.507a.486.486 0 01-.162.073 2.221 2.221 0 01-.253.058 7.237 7.237 0 01-.277.045l-.239.034a1.773 1.773 0 00-.406.101.684.684 0 00-.284.196.48.48 0 00-.103.32c0 .187.068.328.204.423a.888.888 0 00.522.143zm4.047-1.865v2.524h-1.016v-4.307h.971v.732h.05a1.23 1.23 0 01.474-.575c.219-.142.489-.213.811-.213.297 0 .556.063.776.191.223.127.395.311.516.552.124.241.185.534.183.878v2.742h-1.015v-2.585c0-.288-.075-.513-.225-.676-.148-.163-.352-.244-.614-.244a.937.937 0 00-.474.118.814.814 0 00-.322.333 1.124 1.124 0 00-.115.53zm5.67 4.229c-.365 0-.678-.049-.939-.148a1.651 1.651 0 01-.631-.393 1.348 1.348 0 01-.331-.547l.914-.221c.041.084.101.167.179.249a.87.87 0 00.317.208c.135.056.304.084.508.084.288 0 .526-.07.715-.21.189-.139.283-.367.283-.685v-.816h-.05a1.45 1.45 0 01-.23.323c-.099.11-.231.203-.396.278a1.48 1.48 0 01-.614.112 1.77 1.77 0 01-.9-.233 1.666 1.666 0 01-.639-.701c-.157-.312-.236-.703-.236-1.172 0-.473.079-.872.236-1.198.158-.327.373-.575.642-.743a1.65 1.65 0 01.9-.255c.252 0 .46.043.623.129.164.084.295.186.392.306.097.117.171.229.222.333h.056v-.712h1.001v4.377c0 .369-.088.674-.264.915a1.583 1.583 0 01-.72.541c-.305.12-.651.179-1.038.179zm.008-2.563a.94.94 0 00.55-.157.97.97 0 00.345-.451c.078-.197.118-.432.118-.707 0-.271-.04-.508-.118-.712a1.02 1.02 0 00-.342-.474.887.887 0 00-.553-.171.897.897 0 00-.566.176c-.152.118-.266.28-.342.486a1.952 1.952 0 00-.115.695c0 .264.038.495.115.693.078.196.193.349.345.46a.952.952 0 00.563.162zm4.961.943c-.432 0-.805-.09-1.119-.27a1.818 1.818 0 01-.72-.768c-.169-.333-.253-.725-.253-1.175 0-.443.084-.832.253-1.167.17-.336.407-.598.712-.785a1.997 1.997 0 011.074-.283c.265 0 .516.043.752.129.237.084.446.215.628.392.183.178.327.404.432.679.104.273.157.598.157.976v.311h-3.531v-.684h2.557a1.077 1.077 0 00-.126-.519.917.917 0 00-.345-.362.975.975 0 00-.51-.131c-.208 0-.39.05-.547.151-.157.099-.279.23-.367.393-.086.16-.13.337-.132.53v.597c0 .251.046.466.137.645.092.178.22.314.385.409.164.094.357.141.577.141.148 0 .282-.021.401-.062a.895.895 0 00.312-.188.79.79 0 00.199-.306l.948.107a1.47 1.47 0 01-.343.656 1.666 1.666 0 01-.639.432c-.26.101-.557.152-.892.152zm5.364 1.531a2.094 2.094 0 01-.662-.107l.236-.791c.148.043.279.064.395.062a.487.487 0 00.306-.109c.09-.07.165-.185.227-.348l.087-.233-1.562-4.397h1.077l.993 3.253h.045l.995-3.253h1.08l-1.725 4.829c-.08.228-.187.423-.32.586-.132.165-.295.29-.488.376-.19.088-.418.132-.684.132zm5.652-1.531c-.421 0-.786-.093-1.094-.278a1.88 1.88 0 01-.718-.777c-.168-.333-.252-.722-.252-1.167 0-.444.084-.834.252-1.169.17-.335.409-.594.718-.78.308-.185.673-.277 1.094-.277.42 0 .785.092 1.093.277.309.186.547.445.715.78.171.335.256.725.256 1.169 0 .445-.085.834-.256 1.167a1.86 1.86 0 01-.715.777c-.308.185-.673.278-1.093.278zm.005-.814a.87.87 0 00.572-.188 1.12 1.12 0 00.342-.51c.077-.213.115-.451.115-.712a2.09 2.09 0 00-.115-.715 1.127 1.127 0 00-.342-.514.866.866 0 00-.572-.19.89.89 0 00-.583.19 1.164 1.164 0 00-.345.514 2.141 2.141 0 00-.112.715c0 .261.037.499.112.712.077.213.192.383.345.51.155.126.35.188.583.188zm5.666-1.082v-2.496h1.015v4.307h-.984v-.765h-.045a1.303 1.303 0 01-.48.592c-.221.153-.493.229-.816.229-.282 0-.532-.062-.749-.187a1.309 1.309 0 01-.504-.553c-.122-.243-.183-.536-.183-.88v-2.743h1.015v2.586c0 .272.075.489.225.65a.765.765 0 00.589.241.928.928 0 00.434-.109.874.874 0 00.345-.325c.092-.146.138-.328.138-.547zm2.059 1.811v-4.307h.984v.718h.045a1.07 1.07 0 01.404-.575c.192-.137.412-.205.659-.205.056 0 .118.003.188.009.071.003.13.01.176.019v.934a1.05 1.05 0 00-.204-.039 1.911 1.911 0 00-.267-.02c-.185 0-.351.04-.499.121a.878.878 0 00-.345.328.925.925 0 00-.126.485v2.532h-1.015zm7.835-1.811v-2.496h1.015v4.307h-.984v-.765h-.045a1.297 1.297 0 01-.48.592c-.22.153-.492.229-.816.229a1.47 1.47 0 01-.748-.187 1.31 1.31 0 01-.505-.553c-.122-.243-.182-.536-.182-.88v-2.743h1.015v2.586c0 .272.075.489.224.65.15.161.346.241.589.241.15 0 .294-.036.435-.109a.887.887 0 00.345-.325c.091-.146.137-.328.137-.547zm5.464-1.357l-.926.1a.746.746 0 00-.137-.263.687.687 0 00-.258-.199.934.934 0 00-.399-.076.976.976 0 00-.532.137c-.142.092-.213.211-.211.357a.37.37 0 00.138.305c.095.079.252.143.471.194l.735.157c.407.088.71.227.908.418.2.19.301.44.303.748a1.171 1.171 0 01-.238.718 1.526 1.526 0 01-.648.483 2.452 2.452 0 01-.954.174c-.527 0-.951-.111-1.273-.331a1.334 1.334 0 01-.575-.929l.99-.095a.702.702 0 00.286.44c.146.099.336.149.57.149.241 0 .434-.05.58-.149.148-.099.222-.221.222-.367a.386.386 0 00-.143-.306c-.094-.08-.24-.142-.438-.185l-.735-.154c-.413-.086-.718-.231-.917-.435a1.066 1.066 0 01-.294-.779 1.1 1.1 0 01.216-.69c.148-.196.352-.348.614-.454a2.37 2.37 0 01.911-.163c.505 0 .903.107 1.192.322.292.215.472.506.542.873zm2.836 3.253c-.432 0-.805-.09-1.119-.27a1.826 1.826 0 01-.721-.768c-.168-.333-.252-.725-.252-1.175 0-.443.084-.832.252-1.167.171-.336.408-.598.713-.785a1.997 1.997 0 011.074-.283c.265 0 .516.043.751.129.238.084.447.215.629.392.183.178.327.404.431.679.105.273.157.598.157.976v.311h-3.53v-.684h2.557a1.1 1.1 0 00-.126-.519.917.917 0 00-.345-.362.978.978 0 00-.51-.131c-.208 0-.39.05-.547.151-.157.099-.279.23-.367.393-.086.16-.13.337-.132.53v.597c0 .251.046.466.137.645a.98.98 0 00.384.409c.165.094.358.141.578.141.148 0 .281-.021.401-.062a.882.882 0 00.311-.188.78.78 0 00.2-.306l.947.107a1.459 1.459 0 01-.342.656 1.666 1.666 0 01-.639.432c-.26.101-.557.152-.892.152zm2.774-.085v-4.307h.985v.718h.044a1.081 1.081 0 011.063-.78c.056 0 .119.003.188.009.071.003.13.01.177.019v.934a1.047 1.047 0 00-.205-.039 1.886 1.886 0 00-.266-.02c-.185 0-.352.04-.499.121a.878.878 0 00-.345.328.926.926 0 00-.127.485v2.532h-1.015zm4.146-2.524v2.524H306.6v-4.307h.971v.732h.05a1.23 1.23 0 01.474-.575c.219-.142.489-.213.81-.213.298 0 .557.063.777.191.223.127.395.311.516.552.124.241.184.534.183.878v2.742h-1.016v-2.585c0-.288-.074-.513-.224-.676-.148-.163-.352-.244-.614-.244a.937.937 0 00-.474.118.817.817 0 00-.323.333 1.137 1.137 0 00-.115.53zm5.037 2.611a1.78 1.78 0 01-.737-.146 1.198 1.198 0 01-.516-.437c-.126-.193-.188-.43-.188-.712 0-.243.044-.444.134-.603.09-.159.212-.286.368-.382.155-.095.33-.167.524-.216.196-.05.399-.086.609-.109.252-.026.457-.049.614-.07a.9.9 0 00.342-.101c.073-.047.109-.119.109-.216v-.017c0-.211-.062-.375-.188-.49-.125-.116-.305-.174-.541-.174-.249 0-.446.054-.592.162a.805.805 0 00-.291.385l-.948-.135c.075-.262.198-.481.37-.656.172-.178.382-.311.631-.399a2.43 2.43 0 01.824-.134c.208 0 .415.024.62.073.206.048.394.129.564.241.17.11.306.261.409.451.105.191.157.43.157.716v2.882h-.976v-.591h-.033a1.263 1.263 0 01-.261.336 1.26 1.26 0 01-.418.25 1.7 1.7 0 01-.586.092zm.264-.746c.203 0 .38-.04.53-.12a.897.897 0 00.345-.326.828.828 0 00.123-.44v-.507a.493.493 0 01-.163.073 2.201 2.201 0 01-.252.058 7.285 7.285 0 01-.278.045l-.238.034a1.795 1.795 0 00-.407.101.68.68 0 00-.283.196.481.481 0 00-.104.32c0 .187.069.328.205.423.137.096.31.143.522.143zm3.031.659v-4.307h.97v.732h.051c.09-.247.238-.439.446-.578.207-.14.455-.21.743-.21.292 0 .537.071.737.213.202.14.344.332.427.575h.045c.095-.239.256-.43.482-.572.228-.144.498-.216.81-.216.397 0 .72.125.971.376.25.25.375.616.375 1.096v2.891h-1.018v-2.734c0-.267-.071-.463-.213-.586a.762.762 0 00-.521-.188c-.245 0-.437.077-.575.23-.137.152-.205.349-.205.592v2.686h-.995v-2.776c0-.222-.068-.4-.202-.533a.71.71 0 00-.522-.199.743.743 0 00-.398.112.78.78 0 00-.286.312.97.97 0 00-.107.465v2.619h-1.015zm8.994.085c-.432 0-.805-.09-1.119-.27a1.818 1.818 0 01-.72-.768c-.169-.333-.253-.725-.253-1.175 0-.443.084-.832.253-1.167.17-.336.407-.598.712-.785a1.997 1.997 0 011.074-.283c.265 0 .516.043.752.129.237.084.446.215.628.392.183.178.327.404.432.679.104.273.157.598.157.976v.311h-3.531v-.684h2.558a1.089 1.089 0 00-.127-.519.917.917 0 00-.345-.362.975.975 0 00-.51-.131c-.208 0-.39.05-.547.151-.157.099-.279.23-.367.393-.086.16-.13.337-.132.53v.597c0 .251.046.466.137.645.092.178.22.314.385.409.164.094.357.141.577.141.148 0 .282-.021.401-.062a.895.895 0 00.312-.188.79.79 0 00.199-.306l.948.107a1.47 1.47 0 01-.343.656 1.666 1.666 0 01-.639.432c-.26.101-.557.152-.892.152zm6.612 0c-.42 0-.785-.093-1.094-.278a1.884 1.884 0 01-.717-.777c-.169-.333-.253-.722-.253-1.167 0-.444.084-.834.253-1.169.17-.335.409-.594.717-.78.309-.185.674-.277 1.094-.277.421 0 .785.092 1.094.277.308.186.547.445.715.78.17.335.255.725.255 1.169 0 .445-.085.834-.255 1.167a1.867 1.867 0 01-.715.777c-.309.185-.673.278-1.094.278zm.006-.814a.87.87 0 00.572-.188c.153-.127.267-.297.342-.51.077-.213.115-.451.115-.712a2.09 2.09 0 00-.115-.715 1.143 1.143 0 00-.342-.514.866.866 0 00-.572-.19.893.893 0 00-.584.19 1.154 1.154 0 00-.344.514 2.141 2.141 0 00-.113.715c0 .261.038.499.113.712.076.213.191.383.344.51.156.126.35.188.584.188zm3.935-1.795v2.524h-1.015v-4.307h.97v.732h.051c.099-.241.257-.433.473-.575.219-.142.489-.213.811-.213.297 0 .556.063.777.191.222.127.394.311.516.552.123.241.184.534.182.878v2.742h-1.015v-2.585c0-.288-.075-.513-.225-.676-.147-.163-.352-.244-.614-.244a.942.942 0 00-.474.118.814.814 0 00-.322.333 1.124 1.124 0 00-.115.53zm5.676 2.609c-.43 0-.799-.095-1.108-.284a1.89 1.89 0 01-.709-.782 2.583 2.583 0 01-.247-1.156c0-.437.084-.823.252-1.158a1.89 1.89 0 01.713-.785c.308-.189.673-.283 1.093-.283.35 0 .659.064.929.193a1.577 1.577 0 01.922 1.355h-.97a.923.923 0 00-.281-.519c-.145-.14-.341-.21-.586-.21a.921.921 0 00-.547.168c-.157.11-.279.269-.367.477a1.942 1.942 0 00-.129.746c0 .293.043.546.129.757.086.209.207.371.362.485a.926.926 0 00.552.168c.15 0 .284-.028.401-.084a.803.803 0 00.3-.249.959.959 0 00.166-.396h.97a1.693 1.693 0 01-.269.811 1.602 1.602 0 01-.634.549 2.116 2.116 0 01-.942.197zm4.586 0c-.432 0-.805-.09-1.119-.27a1.82 1.82 0 01-.721-.768c-.168-.333-.252-.725-.252-1.175 0-.443.084-.832.252-1.167.17-.336.408-.598.712-.785a1.997 1.997 0 011.074-.283c.266 0 .516.043.752.129.237.084.447.215.628.392.183.178.327.404.432.679.105.273.157.598.157.976v.311h-3.531v-.684h2.558a1.1 1.1 0 00-.126-.519.931.931 0 00-.856-.493.987.987 0 00-.546.151c-.157.099-.28.23-.368.393-.086.16-.13.337-.132.53v.597c0 .251.046.466.138.645a.968.968 0 00.384.409c.165.094.357.141.578.141.147 0 .281-.021.401-.062a.9.9 0 00.311-.188.778.778 0 00.199-.306l.948.107c-.06.251-.174.469-.342.656-.167.185-.38.329-.64.432a2.443 2.443 0 01-.891.152zm6.64 0c-.432 0-.805-.09-1.119-.27a1.814 1.814 0 01-.721-.768c-.168-.333-.252-.725-.252-1.175 0-.443.084-.832.252-1.167.17-.336.408-.598.712-.785a1.997 1.997 0 011.074-.283c.266 0 .516.043.752.129.237.084.447.215.628.392.183.178.327.404.432.679.105.273.157.598.157.976v.311h-3.531v-.684h2.558a1.1 1.1 0 00-.126-.519.931.931 0 00-.856-.493.992.992 0 00-.547.151c-.157.099-.279.23-.367.393-.086.16-.13.337-.132.53v.597c0 .251.046.466.138.645a.968.968 0 00.384.409c.164.094.357.141.578.141.147 0 .281-.021.401-.062a.9.9 0 00.311-.188.778.778 0 00.199-.306l.948.107c-.06.251-.174.469-.342.656-.167.185-.38.329-.64.432a2.443 2.443 0 01-.891.152zm6.498-4.392l-1.534 4.307h-1.122l-1.534-4.307h1.083l.99 3.2h.045l.992-3.2h1.08zm2.463 4.392c-.432 0-.805-.09-1.119-.27a1.82 1.82 0 01-.721-.768c-.168-.333-.252-.725-.252-1.175 0-.443.084-.832.252-1.167.17-.336.408-.598.712-.785.305-.189.663-.283 1.075-.283.265 0 .516.043.751.129.238.084.447.215.628.392.183.178.327.404.432.679.105.273.157.598.157.976v.311h-3.53v-.684h2.557a1.1 1.1 0 00-.126-.519.917.917 0 00-.345-.362.978.978 0 00-.51-.131c-.208 0-.39.05-.547.151-.157.099-.28.23-.368.393-.086.16-.13.337-.131.53v.597c0 .251.045.466.137.645a.98.98 0 00.384.409c.165.094.357.141.578.141.148 0 .281-.021.401-.062a.89.89 0 00.311-.188.778.778 0 00.199-.306l.948.107c-.06.251-.174.469-.342.656-.166.185-.38.329-.639.432-.26.101-.558.152-.892.152zm2.774-.085v-4.307h.984v.718h.045a1.076 1.076 0 011.063-.78c.056 0 .119.003.188.009.071.003.13.01.177.019v.934a1.063 1.063 0 00-.205-.039 1.911 1.911 0 00-.267-.02c-.185 0-.351.04-.499.121a.878.878 0 00-.345.328.925.925 0 00-.126.485v2.532h-1.015zm3.893 1.616a2.094 2.094 0 01-.662-.107l.236-.791c.148.043.279.064.395.062a.487.487 0 00.306-.109c.09-.07.165-.185.227-.348l.087-.233-1.562-4.397h1.077l.993 3.253h.044l.996-3.253h1.08l-1.725 4.829c-.08.228-.187.423-.32.586-.132.165-.295.29-.488.376-.19.088-.418.132-.684.132zm7.928-1.537c-.404 0-.763-.069-1.077-.208a1.8 1.8 0 01-.74-.577 1.492 1.492 0 01-.289-.856h1.054a.7.7 0 00.155.407.91.91 0 00.373.266c.155.064.329.096.521.096.206 0 .388-.036.547-.107a.9.9 0 00.373-.303.743.743 0 00.132-.446.769.769 0 00-.135-.459.897.897 0 00-.398-.312 1.556 1.556 0 00-.623-.112h-.507v-.802h.507c.2 0 .375-.035.525-.104a.85.85 0 00.356-.291.751.751 0 00.126-.441.763.763 0 00-.109-.423.733.733 0 00-.312-.283 1.01 1.01 0 00-.468-.101c-.176 0-.338.031-.488.095a.897.897 0 00-.362.272.688.688 0 00-.145.415h-1.002c.008-.321.1-.604.278-.847a1.8 1.8 0 01.718-.572 2.376 2.376 0 011.007-.207c.383 0 .716.072.998.216.284.142.504.333.659.574.155.242.233.508.233.8.002.323-.094.594-.286.813a1.34 1.34 0 01-.752.429v.045c.404.056.713.205.928.449.217.241.325.541.323.9 0 .321-.092.609-.275.863a1.818 1.818 0 01-.751.595 2.627 2.627 0 01-1.094.216zm5.205.031c-.461 0-.858-.117-1.189-.351-.329-.235-.582-.575-.76-1.018-.175-.445-.263-.98-.263-1.607.002-.626.091-1.159.266-1.598.178-.441.431-.778.76-1.01.331-.231.727-.347 1.186-.347.46 0 .856.116 1.187.347.331.232.584.569.76 1.01.177.441.266.974.266 1.598 0 .629-.089 1.165-.266 1.61-.176.443-.429.782-.76 1.015-.329.234-.725.351-1.187.351zm0-.878c.359 0 .643-.177.85-.53.21-.355.314-.878.314-1.568 0-.456-.047-.839-.143-1.149-.095-.311-.23-.544-.404-.701a.882.882 0 00-.617-.239c-.357 0-.639.178-.846.533-.208.353-.313.872-.315 1.556-.001.458.044.844.138 1.156.095.312.23.548.404.706.174.157.38.236.619.236zm6.713.844c-.338 0-.641-.087-.908-.261a1.767 1.767 0 01-.634-.757c-.155-.331-.233-.733-.233-1.206 0-.478.079-.882.236-1.211.159-.331.373-.581.642-.749a1.65 1.65 0 01.9-.255c.252 0 .46.043.623.129.162.084.291.186.387.306.095.117.169.229.221.333h.042v-2.148h1.018v5.743h-.998v-.678h-.062a1.716 1.716 0 01-.227.333c-.099.116-.23.215-.393.298a1.356 1.356 0 01-.614.123zm.284-.833a.874.874 0 00.549-.174c.152-.117.267-.281.345-.49.079-.21.118-.454.118-.732 0-.279-.039-.521-.118-.727a1.04 1.04 0 00-.342-.479.886.886 0 00-.552-.171.898.898 0 00-.567.176 1.08 1.08 0 00-.342.488 2.043 2.043 0 00-.115.713c0 .269.038.509.115.72.078.21.193.375.345.497a.891.891 0 00.564.179zm4.331.844c-.272 0-.518-.048-.737-.146a1.198 1.198 0 01-.516-.437 1.282 1.282 0 01-.188-.712c0-.243.045-.444.135-.603.089-.159.212-.286.367-.382.155-.095.33-.167.524-.216.197-.05.4-.086.609-.109.252-.026.457-.049.614-.07a.9.9 0 00.342-.101c.073-.047.11-.119.11-.216v-.017c0-.211-.063-.375-.188-.49-.126-.116-.306-.174-.541-.174-.249 0-.446.054-.592.162a.814.814 0 00-.292.385l-.948-.135c.075-.262.198-.481.37-.656.172-.178.383-.311.631-.399.249-.089.524-.134.825-.134.207 0 .414.024.62.073.205.048.393.129.563.241.17.11.307.261.41.451.104.191.157.43.157.716v2.882h-.976v-.591h-.034a1.223 1.223 0 01-.678.586 1.706 1.706 0 01-.587.092zm.264-.746c.204 0 .381-.04.53-.12a.883.883 0 00.345-.326.828.828 0 00.123-.44v-.507a.486.486 0 01-.162.073 2.221 2.221 0 01-.253.058 7.237 7.237 0 01-.277.045l-.239.034a1.773 1.773 0 00-.406.101.674.674 0 00-.283.196.476.476 0 00-.104.32c0 .187.068.328.204.423a.888.888 0 00.522.143zm3.508 2.275a2.094 2.094 0 01-.662-.107l.236-.791c.148.043.28.064.395.062a.487.487 0 00.306-.109.771.771 0 00.227-.348l.087-.233-1.562-4.397h1.077l.993 3.253h.045l.995-3.253h1.08l-1.725 4.829c-.08.228-.187.423-.319.586-.133.165-.296.29-.488.376a1.625 1.625 0 01-.685.132zm7.324-4.784l-.926.1a.746.746 0 00-.137-.263.687.687 0 00-.258-.199.93.93 0 00-.398-.076.977.977 0 00-.533.137c-.142.092-.212.211-.21.357a.372.372 0 00.137.305c.095.079.252.143.471.194l.735.157c.407.088.71.227.908.418.201.19.301.44.303.748a1.171 1.171 0 01-.238.718 1.526 1.526 0 01-.648.483 2.447 2.447 0 01-.953.174c-.527 0-.952-.111-1.273-.331a1.328 1.328 0 01-.575-.929l.99-.095c.044.194.14.341.286.44.145.099.335.149.569.149.241 0 .435-.05.58-.149.148-.099.222-.221.222-.367a.386.386 0 00-.143-.306c-.094-.08-.239-.142-.438-.185l-.734-.154c-.413-.086-.719-.231-.917-.435a1.067 1.067 0 01-.295-.779 1.1 1.1 0 01.216-.69c.148-.196.353-.348.614-.454.264-.109.568-.163.912-.163.505 0 .902.107 1.192.322.291.215.472.506.541.873zm1.555 3.23a.606.606 0 01-.438-.179.584.584 0 01-.179-.438.577.577 0 01.179-.432.606.606 0 01.438-.179c.164 0 .307.06.429.179a.593.593 0 01.098.743.644.644 0 01-.224.225.588.588 0 01-.303.081z" fill="#A5ADB9"/><path d="M205.258 193.078v-5.744h3.735v.873h-2.695v1.559h2.502v.872h-2.502v1.567h2.718v.873h-3.758zm4.752 0v-4.308h.97v.732h.051c.089-.247.238-.439.446-.578.207-.14.455-.21.743-.21.291 0 .537.071.737.213.202.14.344.332.427.575h.044c.096-.239.257-.43.483-.572.228-.144.498-.216.81-.216.397 0 .72.125.97.376.251.25.376.616.376 1.096v2.892h-1.018v-2.735c0-.267-.071-.462-.213-.586a.762.762 0 00-.521-.188c-.245 0-.437.077-.575.23-.137.152-.205.349-.205.592v2.687h-.996v-2.777c0-.222-.067-.4-.201-.532a.706.706 0 00-.522-.2.777.777 0 00-.684.424.973.973 0 00-.107.465v2.62h-1.015zm8.327.087c-.273 0-.519-.049-.738-.146a1.2 1.2 0 01-.516-.438 1.28 1.28 0 01-.188-.712c0-.243.045-.444.135-.603a1.04 1.04 0 01.367-.381c.155-.096.33-.168.525-.216.196-.051.399-.087.608-.11.253-.026.457-.049.614-.07a.9.9 0 00.342-.101c.073-.046.11-.118.11-.216v-.016c0-.212-.063-.375-.188-.491-.125-.116-.306-.174-.541-.174-.249 0-.446.054-.592.163a.807.807 0 00-.292.384l-.948-.135c.075-.262.199-.48.371-.656.172-.178.382-.31.631-.398.248-.09.523-.135.824-.135.208 0 .414.024.62.073.205.049.393.129.563.241.171.11.307.261.41.452.105.19.157.429.157.715v2.883h-.976v-.592h-.034c-.061.12-.148.232-.26.336a1.27 1.27 0 01-.418.25 1.68 1.68 0 01-.586.093zm.263-.746c.204 0 .381-.041.53-.121a.888.888 0 00.345-.325.835.835 0 00.124-.441v-.507a.493.493 0 01-.163.073 2.485 2.485 0 01-.252.059c-.094.017-.186.031-.278.045l-.238.033a1.782 1.782 0 00-.407.101.674.674 0 00-.283.196.483.483 0 00-.104.32c0 .187.068.328.205.424a.89.89 0 00.521.143zm3.032.659v-4.308h1.015v4.308h-1.015zm.51-4.919a.59.59 0 01-.415-.16.514.514 0 01-.174-.39.51.51 0 01.174-.39.588.588 0 01.415-.162.58.58 0 01.415.162.51.51 0 01.174.39.514.514 0 01-.174.39.583.583 0 01-.415.16zm2.564-.825v5.744h-1.015v-5.744h1.015z" fill="#637282"/><rect x="204.692" y="200.179" width="368.901" height="31.588" rx="2.256" stroke="#C4C8CF" stroke-width=".564"/><path d="M215.165 216.244v2.962h-.756v-4.923h.731v.769h.064c.115-.25.29-.451.525-.603.235-.153.539-.23.911-.23.333 0 .624.068.874.205.25.134.445.34.584.615.139.274.208.62.208 1.039v3.128h-.756v-3.077c0-.387-.101-.688-.302-.904-.2-.218-.476-.327-.826-.327-.242 0-.458.052-.648.157a1.13 1.13 0 00-.445.458 1.515 1.515 0 00-.164.731zm5.972 3.077c-.312 0-.595-.059-.849-.176a1.455 1.455 0 01-.606-.516c-.15-.227-.225-.5-.225-.821 0-.282.056-.51.167-.686.111-.177.26-.316.446-.416.185-.101.391-.175.615-.225.226-.051.454-.092.683-.121.299-.039.541-.068.727-.087.188-.021.325-.057.41-.106.088-.049.132-.134.132-.256v-.026c0-.316-.087-.562-.26-.737-.171-.175-.43-.263-.779-.263-.361 0-.644.079-.849.237a1.416 1.416 0 00-.433.507l-.718-.257c.129-.299.3-.532.513-.698a1.92 1.92 0 01.705-.353 2.95 2.95 0 01.757-.102c.158 0 .339.019.545.057.207.037.407.113.599.228.194.115.356.289.484.522.128.233.192.545.192.936v3.244h-.756v-.667h-.039a1.315 1.315 0 01-.256.343c-.12.122-.279.225-.478.311a1.844 1.844 0 01-.727.128zm.115-.68c.299 0 .551-.058.757-.176a1.2 1.2 0 00.628-1.041v-.693c-.032.039-.103.074-.212.106-.107.03-.231.057-.372.08a13.272 13.272 0 01-.724.096 2.98 2.98 0 00-.551.125.943.943 0 00-.41.254c-.103.111-.154.262-.154.455 0 .262.097.461.291.596.197.132.446.198.747.198zm3.522.565v-4.923h.73v.769h.064a1.24 1.24 0 01.497-.612c.229-.148.503-.221.824-.221.325 0 .595.073.811.221.218.145.388.349.509.612h.052c.126-.254.315-.456.567-.606.252-.151.554-.227.907-.227.44 0 .8.137 1.08.413.28.274.42.7.42 1.279v3.295h-.757v-3.295c0-.363-.099-.623-.298-.779a1.1 1.1 0 00-.701-.234c-.347 0-.615.105-.805.314-.19.207-.285.47-.285.789v3.205h-.769v-3.372c0-.28-.091-.505-.273-.676-.181-.173-.415-.26-.702-.26-.196 0-.38.052-.551.157-.169.105-.305.25-.41.436a1.282 1.282 0 00-.154.638v3.077h-.756zm9.908.102c-.475 0-.884-.105-1.228-.314a2.1 2.1 0 01-.791-.885c-.184-.38-.276-.822-.276-1.326 0-.505.092-.949.276-1.334.186-.386.444-.688.775-.903a2.084 2.084 0 011.167-.327c.256 0 .509.042.759.128.25.085.478.224.683.417.205.19.369.442.49.756.122.314.183.701.183 1.16v.321h-3.795v-.654h3.026c0-.278-.056-.526-.167-.744a1.255 1.255 0 00-.468-.516 1.31 1.31 0 00-.711-.189c-.301 0-.562.075-.782.224-.218.148-.386.34-.503.577a1.694 1.694 0 00-.177.763v.436c0 .372.064.687.193.945.13.257.311.452.541.587.231.132.499.199.805.199.198 0 .378-.028.538-.084.163-.057.302-.143.42-.256.118-.115.208-.259.272-.43l.731.206a1.62 1.62 0 01-.388.653 1.875 1.875 0 01-.673.436 2.484 2.484 0 01-.9.154zm6.97 1.628c-.653 0-1.231-.09-1.733-.269a3.278 3.278 0 01-1.266-.785 3.343 3.343 0 01-.776-1.273c-.175-.502-.263-1.076-.263-1.724 0-.626.089-1.186.266-1.679.18-.494.439-.913.779-1.257a3.37 3.37 0 011.244-.791c.489-.182 1.042-.273 1.66-.273.6 0 1.126.099 1.577.295a3.316 3.316 0 011.82 1.91c.154.415.231.842.231 1.282 0 .31-.015.624-.045.943-.03.318-.093.611-.189.878a1.434 1.434 0 01-.446.641c-.198.162-.468.243-.807.243-.15 0-.314-.023-.494-.07a1.29 1.29 0 01-.477-.234.647.647 0 01-.247-.439h-.039a1.126 1.126 0 01-.65.618 1.545 1.545 0 01-.619.087 1.68 1.68 0 01-.734-.186 1.592 1.592 0 01-.532-.468 2.184 2.184 0 01-.32-.689 3.248 3.248 0 01-.106-.849c0-.289.043-.553.128-.792.086-.239.204-.449.356-.628.154-.18.333-.323.538-.43.208-.108.431-.176.67-.201.214-.022.408-.012.583.028.176.039.32.098.433.177a.51.51 0 01.215.256h.038v-.359h.68v2.897c0 .18.05.338.15.475a.514.514 0 00.439.205c.218 0 .385-.075.5-.225.118-.149.198-.38.241-.692.045-.312.067-.711.067-1.198 0-.287-.039-.569-.118-.847a2.815 2.815 0 00-.353-.785 2.581 2.581 0 00-.593-.644 2.735 2.735 0 00-.843-.436 3.443 3.443 0 00-1.093-.16c-.502 0-.952.078-1.349.234a2.711 2.711 0 00-1.01.676 2.967 2.967 0 00-.631 1.077c-.143.421-.215.9-.215 1.436 0 .545.072 1.029.215 1.452.145.423.359.78.641 1.07.284.291.636.511 1.054.66.419.152.902.228 1.449.228.235 0 .467-.023.696-.067.228-.045.43-.094.605-.148.176-.053.302-.093.379-.118l.179.589a3.953 3.953 0 01-.519.167 6.797 6.797 0 01-.68.138 4.613 4.613 0 01-.686.054zm-.371-2.551c.286 0 .518-.058.695-.173a.977.977 0 00.388-.522c.081-.233.122-.527.122-.882 0-.359-.045-.639-.135-.839a.804.804 0 00-.397-.423 1.523 1.523 0 00-.648-.122c-.243 0-.452.064-.625.192a1.218 1.218 0 00-.394.506 1.72 1.72 0 00-.134.686c0 .274.036.531.109.773.072.239.191.433.355.583.165.147.386.221.664.221zm5.042.821v-4.923h.731v.769h.064c.102-.263.268-.467.496-.612.229-.148.504-.221.824-.221.325 0 .595.073.811.221.218.145.388.349.51.612h.051c.126-.254.315-.456.567-.606.252-.151.555-.227.907-.227.44 0 .8.137 1.08.413.28.274.42.7.42 1.279v3.295h-.756v-3.295c0-.363-.1-.623-.298-.779a1.104 1.104 0 00-.702-.234c-.346 0-.615.105-.805.314-.19.207-.285.47-.285.789v3.205h-.769v-3.372c0-.28-.091-.505-.273-.676-.181-.173-.415-.26-.701-.26-.197 0-.381.052-.552.157-.168.105-.305.25-.41.436a1.293 1.293 0 00-.154.638v3.077h-.756zm9.293.115c-.312 0-.595-.059-.85-.176a1.459 1.459 0 01-.605-.516c-.15-.227-.225-.5-.225-.821 0-.282.056-.51.167-.686.111-.177.259-.316.445-.416a2.35 2.35 0 01.616-.225 7.27 7.27 0 01.682-.121 27.4 27.4 0 01.728-.087c.188-.021.325-.057.41-.106.088-.049.132-.134.132-.256v-.026c0-.316-.087-.562-.26-.737-.171-.175-.431-.263-.779-.263-.361 0-.644.079-.849.237-.205.159-.35.327-.433.507l-.718-.257c.128-.299.299-.532.513-.698a1.92 1.92 0 01.705-.353c.257-.068.509-.102.756-.102.159 0 .34.019.545.057.208.037.407.113.6.228.194.115.355.289.484.522.128.233.192.545.192.936v3.244h-.756v-.667h-.039a1.339 1.339 0 01-.256.343c-.12.122-.279.225-.478.311a1.848 1.848 0 01-.727.128zm.115-.68c.299 0 .551-.058.756-.176.208-.117.364-.269.468-.455.107-.186.161-.381.161-.586v-.693c-.033.039-.103.074-.212.106-.107.03-.231.057-.372.08a13.728 13.728 0 01-.724.096c-.197.026-.38.068-.551.125a.952.952 0 00-.411.254c-.102.111-.153.262-.153.455 0 .262.097.461.291.596.197.132.446.198.747.198zm3.521.565v-4.923h.757v4.923h-.757zm.385-5.744a.537.537 0 01-.381-.15.483.483 0 01-.157-.362c0-.141.052-.262.157-.363.106-.1.234-.15.381-.15s.273.05.378.15c.107.101.16.222.16.363a.48.48 0 01-.16.362.529.529 0 01-.378.15zm2.513-.82v6.564h-.756v-6.564h.756zm1.937 6.615a.556.556 0 01-.407-.17.556.556 0 01-.17-.407c0-.158.057-.294.17-.407a.556.556 0 01.407-.17c.158 0 .294.057.407.17.113.113.17.249.17.407a.595.595 0 01-.288.5.555.555 0 01-.289.077zm3.934.051c-.461 0-.859-.109-1.192-.327a2.13 2.13 0 01-.769-.9c-.18-.383-.27-.82-.27-1.311 0-.5.092-.941.276-1.324.186-.384.445-.685.776-.9a2.081 2.081 0 011.166-.327c.346 0 .658.064.936.192a1.8 1.8 0 01.683.538c.177.231.287.5.33.808h-.756a1.175 1.175 0 00-.385-.596c-.197-.175-.462-.263-.795-.263-.295 0-.553.077-.775.231a1.49 1.49 0 00-.516.644 2.383 2.383 0 00-.183.971c0 .38.06.712.179.994.122.282.293.501.513.657.222.156.483.234.782.234.197 0 .375-.035.535-.103a1.095 1.095 0 00.645-.756h.756c-.043.29-.149.552-.317.785a1.774 1.774 0 01-.664.551 2.131 2.131 0 01-.955.202zm5.041 0c-.444 0-.834-.106-1.169-.317a2.156 2.156 0 01-.782-.888c-.186-.38-.279-.825-.279-1.333 0-.513.093-.961.279-1.343a2.14 2.14 0 01.782-.891 2.14 2.14 0 011.169-.317c.445 0 .834.105 1.167.317.336.211.596.508.782.891.188.382.282.83.282 1.343 0 .508-.094.953-.282 1.333-.186.38-.446.676-.782.888a2.134 2.134 0 01-1.167.317zm0-.679c.338 0 .616-.087.834-.26.218-.173.379-.401.484-.683.104-.282.157-.587.157-.916 0-.329-.053-.636-.157-.92a1.552 1.552 0 00-.484-.689c-.218-.175-.496-.263-.834-.263-.337 0-.615.088-.833.263a1.552 1.552 0 00-.484.689 2.657 2.657 0 00-.157.92c0 .329.053.634.157.916.105.282.266.51.484.683.218.173.496.26.833.26zm3.386.577v-4.923h.73v.769h.065c.102-.263.268-.467.496-.612.229-.148.503-.221.824-.221.325 0 .595.073.811.221.218.145.388.349.509.612h.052c.126-.254.315-.456.567-.606.252-.151.554-.227.907-.227.44 0 .8.137 1.08.413.28.274.42.7.42 1.279v3.295h-.756v-3.295c0-.363-.1-.623-.299-.779a1.1 1.1 0 00-.701-.234c-.347 0-.615.105-.805.314-.19.207-.285.47-.285.789v3.205h-.769v-3.372c0-.28-.091-.505-.273-.676-.181-.173-.415-.26-.702-.26-.196 0-.38.052-.551.157-.169.105-.305.25-.41.436a1.282 1.282 0 00-.154.638v3.077h-.756z" fill="#212225"/></g><g filter="url(#filter0_d_2414_96225)"><path d="M40.031 32a2 2 0 012-2h130.12a7.206 7.206 0 017.206 7.206v19.451a7.206 7.206 0 01-7.206 7.207H42.031a2 2 0 01-2-2V32z" fill="#E5E5FF"/><rect x="39.227" y="30" width="3.091" height="34" rx="1.545" fill="#5452CE"/><g clip-path="url(#clip2_2414_96225)" stroke="#5452CE" stroke-width="1.872" stroke-linecap="round" stroke-linejoin="round"><path d="M61.248 45.422a3.743 3.743 0 100-7.486 3.743 3.743 0 000 7.486zm-7.486 9.358c0-4.584 3.316-8.422 7.486-8.422 4.075 0 7.486 3.731 7.486 8.422"/></g><path d="M82.907 52V41.111h4.084c.836 0 1.538.156 2.105.468a3.11 3.11 0 011.292 1.286c.295.543.442 1.16.442 1.85 0 .7-.147 1.32-.442 1.862-.294.542-.728.97-1.302 1.281-.575.309-1.282.463-2.122.463h-2.706v-1.622h2.44c.49 0 .89-.085 1.202-.255a1.61 1.61 0 00.691-.702c.153-.298.229-.64.229-1.026s-.076-.727-.229-1.021a1.554 1.554 0 00-.696-.686c-.312-.166-.715-.25-1.207-.25H84.88V52h-1.972zm9.551 0v-8.167h1.866v1.361h.085c.15-.471.404-.834.766-1.09a2.107 2.107 0 011.25-.388c.106 0 .225.006.356.016.134.007.246.02.335.037v1.77a2.031 2.031 0 00-.388-.074 3.574 3.574 0 00-.506-.037c-.35 0-.666.077-.946.229a1.674 1.674 0 00-.654.622c-.16.266-.24.572-.24.92V52h-1.924zm9.162.16c-.797 0-1.488-.176-2.073-.527a3.573 3.573 0 01-1.361-1.473c-.32-.63-.479-1.368-.479-2.211 0-.844.16-1.583.479-2.218a3.566 3.566 0 011.36-1.478c.586-.35 1.277-.526 2.074-.526.798 0 1.489.175 2.074.526a3.535 3.535 0 011.356 1.478c.322.635.484 1.374.484 2.218 0 .843-.162 1.58-.484 2.211a3.538 3.538 0 01-1.356 1.473c-.585.351-1.276.526-2.074.526zm.011-1.542c.432 0 .794-.12 1.085-.357.29-.24.507-.563.648-.967.146-.404.218-.855.218-1.35 0-.5-.072-.953-.218-1.357a2.143 2.143 0 00-.648-.973c-.291-.24-.653-.361-1.085-.361-.443 0-.812.12-1.106.361a2.176 2.176 0 00-.654.973 4.075 4.075 0 00-.213 1.356c0 .496.071.947.213 1.35.145.405.363.727.654.968.294.238.663.357 1.106.357zm9.673-6.785v1.489h-4.828v-1.489h4.828zM107.683 52v-8.938c0-.55.113-1.006.34-1.371.231-.366.539-.639.925-.82.387-.18.816-.27 1.287-.27.333 0 .629.026.888.08.259.053.45.1.574.143l-.383 1.489a3.312 3.312 0 00-.308-.075 1.867 1.867 0 00-.415-.042c-.358 0-.611.087-.76.26-.145.17-.218.415-.218.734V52h-1.93zm5.128 0v-8.167h1.925V52h-1.925zm.968-9.326c-.305 0-.567-.1-.787-.303a.977.977 0 01-.33-.739c0-.29.11-.537.33-.739a1.11 1.11 0 01.787-.308 1.1 1.1 0 01.787.308c.22.202.329.448.329.739a.976.976 0 01-.329.74 1.111 1.111 0 01-.787.302zm4.861-1.563V52h-1.925V41.111h1.925zm5.595 11.049c-.819 0-1.526-.17-2.122-.51a3.455 3.455 0 01-1.366-1.458c-.319-.63-.479-1.373-.479-2.227 0-.84.16-1.578.479-2.212a3.613 3.613 0 011.35-1.49c.578-.357 1.257-.536 2.037-.536.503 0 .978.081 1.424.245.451.159.848.407 1.191.744.348.337.621.765.819 1.286.199.518.298 1.135.298 1.85v.591h-6.694v-1.297h4.849a2.075 2.075 0 00-.239-.984 1.74 1.74 0 00-.654-.686 1.84 1.84 0 00-.968-.25 1.88 1.88 0 00-1.037.287c-.297.188-.53.436-.696.745-.163.305-.247.64-.25 1.005v1.132c0 .475.087.883.26 1.223.174.337.417.596.729.776a2.18 2.18 0 001.095.266c.28 0 .534-.039.76-.117.227-.081.424-.2.591-.356.166-.156.292-.35.377-.58l1.797.202c-.113.475-.329.89-.648 1.245-.316.35-.72.623-1.213.818-.492.192-1.056.288-1.69.288z" fill="#5452CE"/></g><g filter="url(#filter1_d_2414_96225)"><rect x="50" y="77.806" width="162.494" height="39.495" rx="8.405" fill="#fff"/><g clip-path="url(#clip3_2414_96225)" stroke="#9C9AFF" stroke-width="2.257" stroke-linecap="round" stroke-linejoin="round"><path d="M67.375 96.199c0-.79.564-1.354 1.354-1.354h12.3c.79 0 1.354.564 1.354 1.354v9.592c0 .789-.564 1.354-1.354 1.354H68.616c-.79 0-1.354-.677-1.354-1.354l.113-9.592z"/><path d="M74.92 99.245a.663.663 0 110 1.325.663.663 0 010-1.325m-4.837-4.4v-3.498c.113-2.596 2.37-4.74 5.078-4.514 2.482.113 4.4 2.144 4.514 4.514v3.385"/></g><path d="M104.695 94.183c-.06-.56-.312-.996-.756-1.308-.441-.311-1.013-.468-1.719-.468-.496 0-.921.075-1.276.225-.354.15-.626.352-.814.609a1.48 1.48 0 00-.288.878c0 .274.062.511.186.712.128.2.301.372.519.513.218.137.459.252.724.346.265.094.533.173.802.237l1.231.308c.496.116.972.272 1.43.468a5.06 5.06 0 011.237.744c.368.3.658.66.872 1.084.214.423.321.918.321 1.487 0 .769-.197 1.447-.59 2.032-.394.582-.962 1.037-1.706 1.366-.739.325-1.635.487-2.686.487-1.022 0-1.909-.158-2.661-.474-.748-.316-1.334-.778-1.757-1.385-.419-.607-.645-1.346-.68-2.218h2.34c.035.457.176.837.424 1.141.248.303.571.53.968.679.402.15.851.225 1.347.225.517 0 .97-.077 1.359-.231.393-.158.701-.376.923-.654.222-.282.336-.611.34-.987-.004-.342-.105-.624-.301-.847-.197-.226-.473-.414-.828-.564-.35-.154-.76-.29-1.231-.41l-1.493-.385c-1.082-.278-1.937-.699-2.565-1.263-.624-.568-.936-1.323-.936-2.263 0-.774.21-1.451.628-2.033.423-.581.998-1.032 1.725-1.352.727-.325 1.549-.488 2.468-.488.932 0 1.749.163 2.45.487.705.321 1.258.768 1.66 1.34.402.569.609 1.223.622 1.962h-2.289zm8.846 9.714c-.987 0-1.84-.205-2.558-.616a4.16 4.16 0 01-1.647-1.756c-.385-.761-.578-1.657-.578-2.687 0-1.013.193-1.902.578-2.667a4.354 4.354 0 011.628-1.795c.697-.432 1.515-.648 2.456-.648a4.97 4.97 0 011.718.295 3.876 3.876 0 011.436.898c.419.406.748.923.988 1.551.239.624.359 1.368.359 2.232v.711h-8.073v-1.564h5.848a2.506 2.506 0 00-.289-1.186 2.1 2.1 0 00-.788-.827 2.22 2.22 0 00-1.167-.302c-.475 0-.891.116-1.251.346a2.377 2.377 0 00-.839.898 2.576 2.576 0 00-.302 1.212v1.366c0 .572.105 1.064.314 1.474.21.406.503.718.879.936.376.214.816.321 1.321.321.337 0 .643-.047.916-.141a2.03 2.03 0 00.712-.43 1.78 1.78 0 00.455-.699l2.167.244a3.363 3.363 0 01-.782 1.5c-.38.423-.868.753-1.462.988-.594.231-1.273.346-2.039.346zm10.639 0c-.983 0-1.827-.216-2.533-.648a4.327 4.327 0 01-1.622-1.788c-.376-.766-.564-1.646-.564-2.642 0-1 .192-1.883.577-2.648a4.31 4.31 0 011.629-1.795c.705-.432 1.538-.648 2.5-.648.799 0 1.507.148 2.122.443a3.62 3.62 0 011.481 1.237c.368.53.577 1.15.629 1.86h-2.219a2.12 2.12 0 00-.641-1.187c-.333-.32-.78-.48-1.34-.48-.474 0-.891.128-1.25.384-.359.252-.639.616-.84 1.09-.197.474-.295 1.043-.295 1.706 0 .67.098 1.248.295 1.731.197.478.472.848.827 1.109.359.256.78.385 1.263.385.342 0 .648-.065.917-.193.273-.132.502-.323.686-.57.184-.248.31-.55.378-.904h2.219a3.867 3.867 0 01-.616 1.852 3.64 3.64 0 01-1.449 1.257c-.611.299-1.329.449-2.154.449zm12.401-4.334v-5.707h2.321v9.849h-2.25v-1.751h-.103a2.952 2.952 0 01-1.096 1.353c-.504.351-1.126.526-1.866.526-.645 0-1.216-.143-1.712-.43a2.983 2.983 0 01-1.154-1.263c-.278-.555-.417-1.227-.417-2.013v-6.27h2.321v5.91c0 .625.171 1.121.513 1.488.342.368.791.552 1.347.552.342 0 .673-.084.994-.25.32-.167.583-.415.788-.744.21-.333.314-.75.314-1.25zm4.708 4.142v-9.849h2.25v1.642h.103c.18-.569.487-1.007.923-1.315a2.544 2.544 0 011.507-.468 5.4 5.4 0 01.43.02c.162.008.297.023.404.044v2.136a2.464 2.464 0 00-.469-.09 4.3 4.3 0 00-.609-.045c-.423 0-.803.092-1.141.276-.333.18-.596.43-.788.75-.193.32-.289.69-.289 1.109v5.79h-2.321zm7.159 0v-9.849h2.32v9.849h-2.32zm1.166-11.246c-.367 0-.683-.122-.948-.366a1.175 1.175 0 01-.398-.89c0-.351.132-.648.398-.892a1.34 1.34 0 01.948-.372c.372 0 .689.124.949.372.265.243.398.54.398.891 0 .346-.133.643-.398.891-.26.244-.577.366-.949.366zm8.459 1.397v1.796h-5.662v-1.796h5.662zm-4.264-2.359h2.321v9.245c0 .312.047.552.141.719a.767.767 0 00.385.333c.158.06.333.09.526.09.145 0 .277-.011.397-.032.124-.022.218-.041.282-.058l.391 1.814c-.124.043-.301.09-.532.141a4.247 4.247 0 01-.833.09c-.582.017-1.105-.07-1.571-.263a2.437 2.437 0 01-1.109-.91c-.27-.41-.402-.923-.398-1.539v-9.63zm7.648 15.901c-.317 0-.61-.026-.879-.077a3.278 3.278 0 01-.635-.167l.539-1.808c.338.098.639.145.904.141a1.11 1.11 0 00.699-.25c.205-.158.378-.423.519-.795l.199-.532-3.571-10.053h2.462l2.269 7.437h.103l2.276-7.438h2.469l-3.944 11.041a4.41 4.41 0 01-.73 1.34 2.973 2.973 0 01-1.116.859c-.436.201-.958.302-1.564.302z" fill="#212225"/></g><g filter="url(#filter2_d_2414_96225)"><rect x="9.092" y="131" width="185.143" height="45" rx="10.286" fill="#fff"/><g clip-path="url(#clip4_2414_96225)" stroke="#9C9AFF" stroke-width="2.571" stroke-linecap="round" stroke-linejoin="round"><path d="M30.502 145.529a.382.382 0 00-.357.238.386.386 0 10.357-.238v0zm0 9.256a.39.39 0 00-.357.238.39.39 0 00.084.421.387.387 0 10.273-.659v0z" stroke-dasharray="5.14 5.14"/><path d="M40.53 150.542H30.503a4.62 4.62 0 01-4.343-2.839 4.635 4.635 0 010-3.577 4.62 4.62 0 012.55-2.509 4.628 4.628 0 011.793-.331h12.342c3.544 0 6.163 3.985 3.605 7.714"/><path d="M36.673 159.799H30.5a4.628 4.628 0 110-9.256h10.027m-4.625-4.628h6.942m-6.942 9.256h1.543m2.314 3.086a1.542 1.542 0 011.543-1.543h6.171a1.54 1.54 0 011.543 1.543v4.628a1.54 1.54 0 01-1.543 1.543h-6.171a1.54 1.54 0 01-1.543-1.543v-4.628z"/><path d="M44.382 152.085a3.089 3.089 0 00-3.085 3.086v1.543h6.171v-1.547a3.084 3.084 0 00-3.086-3.082v0z"/><path d="M44.389 160.215a.39.39 0 00-.357.238.386.386 0 10.357-.238v0z" stroke-dasharray="5.14 5.14"/></g><path d="M75.268 149.152c-.069-.638-.356-1.135-.862-1.49-.502-.356-1.155-.534-1.958-.534-.565 0-1.05.085-1.454.256-.404.17-.713.402-.928.694a1.687 1.687 0 00-.328 1.001c0 .311.07.582.212.811.146.229.343.423.591.584.249.156.524.287.826.395.302.107.606.197.913.27l1.403.35c.564.132 1.107.31 1.628.534.526.224.996.506 1.41.847.42.341.75.753.994 1.235.243.482.365 1.047.365 1.695 0 .876-.224 1.648-.672 2.315-.448.663-1.096 1.181-1.943 1.556-.843.37-1.863.555-3.06.555-1.165 0-2.175-.18-3.033-.54-.852-.361-1.52-.886-2.001-1.578-.477-.692-.736-1.534-.775-2.528h2.667c.039.521.2.955.482 1.301.282.345.65.604 1.103.774.458.17.97.256 1.534.256.59 0 1.106-.088 1.549-.263.448-.18.799-.429 1.052-.745.253-.322.382-.697.387-1.125-.005-.39-.12-.711-.343-.965-.224-.258-.538-.472-.943-.643a9.082 9.082 0 00-1.402-.467l-1.702-.438c-1.233-.317-2.207-.797-2.922-1.44-.712-.647-1.067-1.507-1.067-2.578 0-.882.239-1.654.716-2.316.482-.662 1.137-1.176 1.965-1.541.828-.371 1.765-.556 2.812-.556 1.062 0 1.992.185 2.791.556.804.365 1.434.874 1.892 1.526.458.648.694 1.393.709 2.236h-2.608zm13.36 0c-.07-.638-.356-1.135-.863-1.49-.502-.356-1.154-.534-1.958-.534-.565 0-1.05.085-1.454.256-.404.17-.713.402-.927.694a1.687 1.687 0 00-.329 1.001c0 .311.07.582.212.811.146.229.343.423.592.584.248.156.523.287.825.395.302.107.606.197.913.27l1.403.35c.565.132 1.108.31 1.629.534.526.224.996.506 1.41.847.419.341.75.753.993 1.235.244.482.366 1.047.366 1.695 0 .876-.224 1.648-.672 2.315-.448.663-1.096 1.181-1.944 1.556-.842.37-1.862.555-3.06.555-1.164 0-2.175-.18-3.032-.54-.853-.361-1.52-.886-2.002-1.578-.477-.692-.735-1.534-.774-2.528h2.666c.04.521.2.955.482 1.301.283.345.65.604 1.103.774.458.17.97.256 1.535.256.589 0 1.105-.088 1.548-.263.448-.18.799-.429 1.052-.745.253-.322.383-.697.387-1.125-.004-.39-.119-.711-.343-.965-.224-.258-.538-.472-.942-.643a9.075 9.075 0 00-1.403-.467l-1.702-.438c-1.232-.317-2.206-.797-2.922-1.44-.711-.647-1.067-1.507-1.067-2.578 0-.882.239-1.654.716-2.316.482-.662 1.137-1.176 1.965-1.541.828-.371 1.766-.556 2.813-.556 1.062 0 1.992.185 2.79.556.804.365 1.435.874 1.892 1.526.458.648.694 1.393.709 2.236h-2.608zM93.855 160v-14.961h2.71v6.334h6.933v-6.334h2.717V160h-2.717v-6.356h-6.933V160h-2.71zm20.41 0v-14.961h2.711v6.874h.182l5.837-6.874h3.309l-5.785 6.713 5.837 8.248h-3.259l-4.463-6.414-1.658 1.958V160h-2.711zm17.949.219c-1.125 0-2.096-.234-2.914-.701a4.75 4.75 0 01-1.878-2.002c-.438-.867-.657-1.887-.657-3.061 0-1.154.219-2.167.657-3.039.443-.876 1.062-1.558 1.856-2.045.794-.492 1.726-.738 2.798-.738a5.66 5.66 0 011.957.336c.619.219 1.164.56 1.637 1.023.477.463.852 1.052 1.125 1.768.272.711.409 1.558.409 2.542v.811h-9.197v-1.783h6.662a2.848 2.848 0 00-.329-1.351 2.387 2.387 0 00-.898-.942c-.38-.229-.823-.344-1.33-.344-.54 0-1.015.132-1.424.395-.41.258-.729.599-.957 1.022a2.946 2.946 0 00-.344 1.381v1.556c0 .653.12 1.213.358 1.68.239.463.572.818 1.001 1.067.429.243.93.365 1.505.365a3.18 3.18 0 001.045-.161c.311-.112.582-.275.81-.489a2.04 2.04 0 00.519-.796l2.469.277a3.853 3.853 0 01-.891 1.71c-.433.482-.989.857-1.666 1.125-.677.263-1.451.394-2.323.394zm8.549 3.989c-.36 0-.694-.029-1.001-.088a3.681 3.681 0 01-.723-.19l.614-2.06c.385.112.728.166 1.03.161.302-.005.567-.1.796-.285.234-.18.431-.482.592-.906l.226-.606-4.069-11.455h2.806l2.586 8.474h.116l2.594-8.474h2.812l-4.492 12.58a5.054 5.054 0 01-.833 1.527c-.346.428-.77.754-1.271.978-.497.229-1.091.344-1.783.344z" fill="#212225"/></g></g><defs><clipPath id="clip0_2414_96225"><path fill="#fff" d="M0 0h630v240H0z"/></clipPath><clipPath id="clip1_2414_96225"><path fill="#fff" transform="translate(-7.938)" d="M0 0h637.938v578.921H0z"/></clipPath><clipPath id="clip2_2414_96225"><path fill="#fff" transform="translate(51.889 37)" d="M0 0h18.715v18.715H0z"/></clipPath><clipPath id="clip3_2414_96225"><path fill="#fff" transform="translate(63.54 85.705)" d="M0 0h22.569v22.569H0z"/></clipPath><clipPath id="clip4_2414_96225"><path fill="#fff" transform="translate(24.518 140)" d="M0 0h25.714v25.714H0z"/></clipPath><filter id="filter0_d_2414_96225" x="5.363" y="10.649" width="207.859" height="101.728" filterUnits="userSpaceOnUse" color-interpolation-filters="sRGB"><feFlood flood-opacity="0" result="BackgroundImageFix"/><feColorMatrix in="SourceAlpha" values="0 0 0 0 0 0 0 0 0 0 0 0 0 0 0 0 0 0 127 0" result="hardAlpha"/><feOffset dy="14.513"/><feGaussianBlur stdDeviation="16.932"/><feColorMatrix values="0 0 0 0 0.129412 0 0 0 0 0.133333 0 0 0 0 0.145098 0 0 0 0.08 0"/><feBlend in2="BackgroundImageFix" result="effect1_dropShadow_2414_96225"/><feBlend in="SourceGraphic" in2="effect1_dropShadow_2414_96225" result="shape"/></filter><filter id="filter1_d_2414_96225" x="10.505" y="55.237" width="241.484" height="118.485" filterUnits="userSpaceOnUse" color-interpolation-filters="sRGB"><feFlood flood-opacity="0" result="BackgroundImageFix"/><feColorMatrix in="SourceAlpha" values="0 0 0 0 0 0 0 0 0 0 0 0 0 0 0 0 0 0 127 0" result="hardAlpha"/><feOffset dy="16.927"/><feGaussianBlur stdDeviation="19.747"/><feColorMatrix values="0 0 0 0 0.129412 0 0 0 0 0.133333 0 0 0 0 0.145098 0 0 0 0.08 0"/><feBlend in2="BackgroundImageFix" result="effect1_dropShadow_2414_96225"/><feBlend in="SourceGraphic" in2="effect1_dropShadow_2414_96225" result="shape"/></filter><filter id="filter2_d_2414_96225" x="-35.908" y="105.286" width="275.143" height="135" filterUnits="userSpaceOnUse" color-interpolation-filters="sRGB"><feFlood flood-opacity="0" result="BackgroundImageFix"/><feColorMatrix in="SourceAlpha" values="0 0 0 0 0 0 0 0 0 0 0 0 0 0 0 0 0 0 127 0" result="hardAlpha"/><feOffset dy="19.286"/><feGaussianBlur stdDeviation="22.5"/><feColorMatrix values="0 0 0 0 0.129412 0 0 0 0 0.133333 0 0 0 0 0.145098 0 0 0 0.08 0"/><feBlend in2="BackgroundImageFix" result="effect1_dropShadow_2414_96225"/><feBlend in="SourceGraphic" in2="effect1_dropShadow_2414_96225" result="shape"/></filter></defs></svg>