<svg width="630" height="240" fill="none" xmlns="http://www.w3.org/2000/svg"><mask id="mask0_2414_95999" style="mask-type:alpha" maskUnits="userSpaceOnUse" x="0" y="0" width="630" height="240"><path fill="#212225" d="M0 0h630v240H0z"/></mask><g mask="url(#mask0_2414_95999)"><path d="M459.222 15.354a2.15 2.15 0 012.15-2.15h93.204a2.15 2.15 0 012.15 2.15v19.602a2.15 2.15 0 01-2.15 2.15h-93.204a2.15 2.15 0 01-2.15-2.15V15.354z" fill="#E5E5FF"/><path d="M476.166 24.51h-1.142a1.423 1.423 0 00-.181-.498 1.334 1.334 0 00-.772-.602 1.743 1.743 0 00-.535-.08c-.34 0-.641.086-.904.257a1.684 1.684 0 00-.617.745c-.149.326-.223.724-.223 1.195 0 .478.074.882.223 1.21.151.325.356.572.617.739.263.165.563.247.901.247.187 0 .362-.024.525-.073.165-.051.313-.125.443-.223a1.362 1.362 0 00.523-.85l1.142.007a2.455 2.455 0 01-.278.837 2.46 2.46 0 01-1.353 1.154c-.306.11-.645.165-1.017.165-.55 0-1.041-.127-1.473-.381a2.673 2.673 0 01-1.02-1.103c-.248-.48-.372-1.057-.372-1.73s.125-1.25.375-1.728c.251-.48.592-.848 1.024-1.103.431-.254.92-.381 1.466-.381.348 0 .672.048.971.146a2.5 2.5 0 01.8.43c.235.188.427.418.578.691.152.271.252.58.299.929zm.989 4.145v-4.692h1.072v.782h.049a1.171 1.171 0 011.158-.85c.061 0 .129.004.204.01.078.004.142.011.193.021v1.018a1.16 1.16 0 00-.223-.043 2.052 2.052 0 00-.29-.022c-.202 0-.383.044-.544.132a.963.963 0 00-.513.886v2.758h-1.106zm5.294.091c-.47 0-.876-.097-1.218-.293a1.978 1.978 0 01-.785-.837c-.184-.362-.275-.789-.275-1.28 0-.482.091-.906.275-1.27.185-.367.443-.652.775-.856.332-.205.722-.308 1.17-.308.289 0 .562.047.819.14.259.092.487.234.684.428.2.194.357.44.471.74.114.296.171.65.171 1.062v.34h-3.846v-.746h2.786a1.185 1.185 0 00-.138-.565 1 1 0 00-.375-.394 1.059 1.059 0 00-.556-.144c-.226 0-.425.055-.596.165-.171.108-.305.25-.4.428a1.227 1.227 0 00-.144.577v.65c0 .274.05.508.15.703.1.194.239.342.418.446.18.102.389.153.63.153.16 0 .306-.022.436-.067a.956.956 0 00.339-.205.85.85 0 00.217-.333l1.033.116c-.065.273-.19.511-.373.715a1.814 1.814 0 01-.696.47 2.67 2.67 0 01-.972.165zm4.372.004c-.297 0-.565-.053-.803-.16a1.309 1.309 0 01-.562-.476c-.137-.21-.205-.468-.205-.776 0-.265.049-.483.147-.657.098-.173.231-.311.4-.415.169-.104.359-.182.571-.235.214-.055.435-.095.663-.12.275-.028.498-.053.669-.076a.996.996 0 00.373-.11c.079-.05.119-.129.119-.235v-.018c0-.23-.068-.408-.205-.535-.136-.126-.333-.189-.589-.189-.271 0-.486.059-.645.177a.879.879 0 00-.318.419l-1.032-.147c.081-.285.216-.523.403-.715.187-.193.417-.338.687-.433a2.87 2.87 0 011.573-.067c.224.052.429.14.614.262.186.12.334.284.446.492.114.207.171.467.171.779v3.14h-1.063v-.645h-.036a1.349 1.349 0 01-.739.639c-.182.067-.394.1-.639.1zm.287-.813c.222 0 .415-.044.578-.131a.965.965 0 00.375-.355.9.9 0 00.135-.48v-.552a.527.527 0 01-.177.08 2.508 2.508 0 01-.275.063 8.65 8.65 0 01-.303.05l-.259.036a1.902 1.902 0 00-.443.11.737.737 0 00-.309.214.525.525 0 00-.113.348c0 .204.075.357.223.461a.97.97 0 00.568.156zm5.645-3.974v.855h-2.697v-.855h2.697zm-2.031-1.124h1.106v4.405c0 .148.022.262.067.342.047.077.108.13.183.159a.707.707 0 00.251.042c.069 0 .132-.005.189-.015.059-.01.104-.02.134-.027l.187.864a2.071 2.071 0 01-.651.11 1.801 1.801 0 01-.748-.125 1.17 1.17 0 01-.529-.434c-.128-.196-.191-.44-.189-.733v-4.588zm4.983 5.907c-.471 0-.877-.097-1.219-.293a1.984 1.984 0 01-.785-.837c-.183-.362-.275-.789-.275-1.28 0-.482.092-.906.275-1.27.185-.367.444-.652.776-.856.332-.205.722-.308 1.17-.308.289 0 .562.047.818.14.259.092.487.234.685.428.199.194.356.44.47.74.114.296.171.65.171 1.062v.34h-3.846v-.746h2.786a1.196 1.196 0 00-.137-.565 1.002 1.002 0 00-.376-.394 1.056 1.056 0 00-.556-.144c-.226 0-.425.055-.596.165-.171.108-.304.25-.4.428a1.226 1.226 0 00-.143.577v.65c0 .274.049.508.149.703.1.194.24.342.419.446.179.102.389.153.629.153.161 0 .306-.022.437-.067a.974.974 0 00.339-.205.85.85 0 00.217-.333l1.032.116a1.61 1.61 0 01-.372.715 1.825 1.825 0 01-.697.47 2.67 2.67 0 01-.971.165zm5.204-.091v-6.256h2.395c.452 0 .828.071 1.127.214.301.14.526.333.675.577.151.244.226.521.226.831 0 .255-.049.472-.147.654a1.216 1.216 0 01-.394.436 1.666 1.666 0 01-.553.242v.06c.222.013.435.081.639.206.206.122.374.295.504.519.13.224.195.495.195.812 0 .324-.078.615-.235.874-.157.256-.393.46-.708.608-.316.149-.713.223-1.192.223h-2.532zm1.133-.947h1.219c.411 0 .708-.078.889-.235a.773.773 0 00.275-.611.932.932 0 00-.529-.855 1.296 1.296 0 00-.604-.132h-1.25v1.833zm0-2.648h1.121c.196 0 .372-.036.529-.107a.883.883 0 00.369-.309.823.823 0 00.138-.476.777.777 0 00-.257-.6c-.169-.156-.42-.234-.754-.234h-1.146v1.726zm5.577-2.661v6.256h-1.106v-6.256h1.106zm3.184 6.347c-.458 0-.855-.1-1.191-.302a2.051 2.051 0 01-.782-.846c-.184-.363-.275-.786-.275-1.27 0-.485.091-.91.275-1.275.185-.364.446-.647.782-.849.336-.201.733-.302 1.191-.302.458 0 .855.1 1.191.302.336.202.596.485.779.85.185.364.278.789.278 1.273 0 .485-.093.908-.278 1.27a2.032 2.032 0 01-.779.847c-.336.202-.733.302-1.191.302zm.006-.885a.953.953 0 00.623-.205c.167-.139.291-.324.373-.556.083-.232.125-.49.125-.776 0-.287-.042-.547-.125-.779a1.237 1.237 0 00-.373-.559.944.944 0 00-.623-.207.968.968 0 00-.635.207 1.25 1.25 0 00-.376.56 2.328 2.328 0 00-.122.778c0 .285.04.544.122.776.083.232.209.417.376.556a.98.98 0 00.635.205zm5.227.885c-.468 0-.87-.102-1.206-.308a2.059 2.059 0 01-.773-.852 2.82 2.82 0 01-.269-1.259c0-.476.092-.897.275-1.261a2.05 2.05 0 01.776-.856c.336-.205.733-.308 1.191-.308.381 0 .718.07 1.011.21.295.14.531.336.706.59.175.253.275.548.299.886h-1.057a1.01 1.01 0 00-.305-.565c-.159-.153-.372-.23-.639-.23a.996.996 0 00-.595.184c-.171.12-.305.293-.401.52-.093.225-.14.496-.14.812 0 .32.047.595.14.825.094.228.225.404.394.528.172.122.372.183.602.183.163 0 .309-.03.437-.091a.885.885 0 00.327-.272c.087-.118.148-.262.18-.43h1.057a1.838 1.838 0 01-.293.882 1.733 1.733 0 01-.691.599 2.308 2.308 0 01-1.026.213zm3.926-1.563l-.003-1.335h.177l1.686-1.885h1.292l-2.074 2.31h-.229l-.849.91zm-1.008 1.472v-6.256h1.106v6.256h-1.106zm2.945 0l-1.528-2.135.746-.78 2.104 2.915h-1.322zm3.806.091c-.469 0-.871-.102-1.207-.308a2.059 2.059 0 01-.773-.852 2.82 2.82 0 01-.269-1.259c0-.476.092-.897.275-1.261.184-.367.442-.652.776-.856.336-.205.733-.308 1.192-.308.38 0 .717.07 1.011.21.295.14.53.336.705.59.175.253.275.548.3.886h-1.057a1.012 1.012 0 00-.306-.565c-.159-.153-.371-.23-.638-.23a1 1 0 00-.596.184c-.171.12-.304.293-.4.52a2.112 2.112 0 00-.141.812c0 .32.047.595.141.825.094.228.225.404.394.528.171.122.372.183.602.183.163 0 .308-.03.437-.091a.874.874 0 00.326-.272c.088-.118.148-.262.181-.43h1.057a1.85 1.85 0 01-.294.882 1.736 1.736 0 01-.69.599 2.308 2.308 0 01-1.026.213zm4.023-2.84v2.749h-1.105v-6.256h1.081v2.361h.055c.11-.265.28-.473.51-.626.232-.155.527-.232.886-.232.326 0 .61.068.852.204.242.137.43.336.562.6.134.262.202.583.202.961v2.988h-1.106v-2.817c0-.315-.082-.56-.244-.736-.161-.177-.387-.265-.679-.265-.195 0-.37.042-.525.128a.892.892 0 00-.36.363 1.198 1.198 0 00-.129.578zm5.52 2.844c-.297 0-.565-.053-.803-.16a1.303 1.303 0 01-.562-.476c-.137-.21-.205-.468-.205-.776 0-.265.049-.483.146-.657a1.14 1.14 0 01.401-.415c.169-.104.359-.182.571-.235.214-.055.435-.095.663-.12.275-.028.498-.053.669-.076a.984.984 0 00.372-.11c.08-.05.119-.129.119-.235v-.018c0-.23-.068-.408-.204-.535-.137-.126-.333-.189-.59-.189-.271 0-.485.059-.644.177a.879.879 0 00-.318.419l-1.032-.147c.081-.285.215-.523.403-.715a1.75 1.75 0 01.687-.433 2.87 2.87 0 011.573-.067c.224.052.429.14.614.262.185.12.334.284.446.492.114.207.171.467.171.779v3.14h-1.063v-.645h-.036a1.353 1.353 0 01-.74.639c-.181.067-.394.1-.638.1zm.287-.813a1.2 1.2 0 00.577-.131.968.968 0 00.376-.355.899.899 0 00.134-.48v-.552a.508.508 0 01-.177.08 2.454 2.454 0 01-.275.063 8.235 8.235 0 01-.302.05l-.26.036a1.94 1.94 0 00-.443.11.734.734 0 00-.308.214.525.525 0 00-.113.348c0 .204.074.357.223.461a.97.97 0 00.568.156zm3.302.718v-4.692h1.106v4.692h-1.106zm.556-5.358a.644.644 0 01-.452-.174.562.562 0 01-.189-.425c0-.167.063-.308.189-.424a.638.638 0 01.452-.177c.177 0 .328.059.452.177a.556.556 0 01.189.424.562.562 0 01-.189.425.638.638 0 01-.452.174zm2.793 2.609v2.749h-1.106v-4.692h1.057v.797h.055c.108-.263.28-.471.516-.626.238-.155.533-.232.883-.232.324 0 .606.07.846.208.242.138.43.339.562.601.134.263.201.582.198.956v2.988h-1.105v-2.817c0-.313-.082-.559-.245-.736-.161-.177-.383-.265-.669-.265-.193 0-.365.042-.516.128a.89.89 0 00-.351.363 1.222 1.222 0 00-.125.578z" fill="#5452CE"/><path d="M75.595 32.203V18.128h5.636c1.035 0 1.899.153 2.59.46.692.307 1.213.733 1.56 1.279.349.54.523 1.163.523 1.87 0 .549-.11 1.032-.33 1.45-.22.412-.522.75-.907 1.016-.38.262-.816.447-1.306.557v.138a3.152 3.152 0 011.505.453c.472.28.855.671 1.148 1.175.293.5.44 1.096.44 1.787 0 .747-.186 1.414-.557 2-.366.582-.91 1.043-1.629 1.382-.719.339-1.606.508-2.66.508h-6.013zm2.976-2.433h2.426c.83 0 1.434-.158 1.814-.474.38-.32.57-.747.57-1.278 0-.39-.093-.733-.281-1.031a1.914 1.914 0 00-.804-.701c-.344-.17-.754-.254-1.23-.254H78.57v3.738zm0-5.752h2.206c.408 0 .77-.071 1.086-.213.32-.147.573-.353.756-.619.188-.265.282-.584.282-.955 0-.509-.181-.919-.543-1.23-.358-.312-.866-.468-1.526-.468H78.57v3.485zm12.692-5.89v14.075h-2.928V18.128h2.928zm7.115 14.282c-1.067 0-1.99-.227-2.77-.68a4.656 4.656 0 01-1.793-1.912c-.422-.82-.633-1.77-.633-2.852 0-1.09.211-2.043.633-2.859a4.601 4.601 0 011.794-1.91c.778-.459 1.702-.688 2.77-.688 1.067 0 1.988.23 2.762.688a4.591 4.591 0 011.801 1.91c.421.816.632 1.769.632 2.86 0 1.08-.211 2.031-.632 2.852a4.646 4.646 0 01-1.801 1.91c-.774.454-1.695.68-2.763.68zm.014-2.268c.486 0 .891-.138 1.217-.413.325-.28.57-.66.735-1.14.169-.482.254-1.03.254-1.643 0-.614-.085-1.162-.254-1.643-.165-.481-.41-.861-.735-1.14-.326-.28-.731-.42-1.217-.42-.49 0-.903.14-1.237.42-.33.279-.58.659-.75 1.14a5.08 5.08 0 00-.247 1.643c0 .614.083 1.161.248 1.642.17.481.419.862.749 1.141.334.275.747.413 1.237.413zm11.856 2.268c-1.082 0-2.012-.23-2.791-.688a4.649 4.649 0 01-1.787-1.924c-.412-.82-.618-1.764-.618-2.832 0-1.081.208-2.03.625-2.845a4.652 4.652 0 011.794-1.918c.774-.462 1.695-.694 2.763-.694.921 0 1.727.168 2.419.502.692.335 1.24.804 1.643 1.409s.625 1.315.666 2.13H112.2c-.078-.526-.285-.95-.619-1.271-.33-.325-.763-.488-1.299-.488-.454 0-.85.124-1.189.371-.334.243-.596.598-.783 1.066-.188.467-.282 1.033-.282 1.697 0 .674.091 1.246.275 1.718.187.472.451.832.79 1.08.339.247.735.37 1.189.37.334 0 .635-.068.9-.206.271-.137.493-.337.667-.598a2.28 2.28 0 00.351-.955h2.762c-.045.806-.265 1.517-.659 2.13a3.99 3.99 0 01-1.615 1.43c-.688.344-1.501.516-2.44.516zm9.242-3.244l.007-3.512h.426l3.381-4.007h3.361l-4.543 5.306h-.694l-1.938 2.213zm-2.653 3.037V18.128h2.928v14.075h-2.928zm6.598 0l-3.107-4.598 1.952-2.068 4.584 6.666h-3.429zm9.002.207c-1.082 0-2.012-.23-2.791-.688a4.649 4.649 0 01-1.787-1.924c-.412-.82-.618-1.764-.618-2.832 0-1.081.208-2.03.625-2.845a4.652 4.652 0 011.794-1.918c.774-.462 1.695-.694 2.763-.694.921 0 1.727.168 2.419.502a4.05 4.05 0 011.643 1.409c.403.605.625 1.315.666 2.13h-2.763c-.077-.526-.284-.95-.618-1.271-.33-.325-.763-.488-1.299-.488-.454 0-.85.124-1.189.371-.335.243-.596.598-.784 1.066-.187.467-.281 1.033-.281 1.697 0 .674.091 1.246.275 1.718.187.472.451.832.79 1.08.339.247.735.37 1.189.37.334 0 .635-.068.9-.206.271-.137.493-.337.667-.598a2.28 2.28 0 00.35-.955h2.763c-.045.806-.265 1.517-.659 2.13a3.986 3.986 0 01-1.616 1.43c-.687.344-1.5.516-2.439.516zm9.517-6.31v6.103h-2.928V18.128h2.845v5.381h.124a2.984 2.984 0 011.155-1.464c.531-.357 1.198-.536 2-.536.733 0 1.372.16 1.917.481.55.317.976.772 1.278 1.368.307.591.459 1.299.454 2.124v6.721h-2.928v-6.199c.005-.65-.16-1.157-.495-1.519-.33-.362-.792-.543-1.388-.543a2.15 2.15 0 00-1.058.255c-.303.17-.541.416-.715.742-.17.32-.257.708-.261 1.161zm12.159 6.303c-.673 0-1.273-.117-1.8-.35A2.9 2.9 0 01151.062 31c-.302-.468-.454-1.05-.454-1.746 0-.586.108-1.08.323-1.478a2.62 2.62 0 01.88-.962 4.268 4.268 0 011.265-.55 9.67 9.67 0 011.498-.26 37.574 37.574 0 001.484-.18c.376-.06.649-.146.818-.26a.574.574 0 00.255-.51v-.04c0-.436-.138-.773-.413-1.01-.27-.24-.655-.358-1.154-.358-.527 0-.947.117-1.258.35-.312.23-.518.518-.619.866l-2.708-.22a3.687 3.687 0 01.811-1.663c.404-.472.924-.834 1.561-1.086.641-.256 1.383-.385 2.226-.385a6.75 6.75 0 011.684.206c.541.138 1.02.351 1.437.64.421.288.753.66.996 1.113.243.45.364.987.364 1.615v7.12h-2.776V30.74h-.083a2.97 2.97 0 01-.68.873 3.142 3.142 0 01-1.024.585 4.234 4.234 0 01-1.382.206zm.839-2.02c.431 0 .811-.086 1.141-.255.33-.174.589-.408.776-.701.188-.293.282-.626.282-.997v-1.12c-.091.06-.217.114-.378.165-.156.046-.332.09-.529.13-.197.037-.394.072-.591.104l-.536.075a3.61 3.61 0 00-.9.24c-.257.11-.456.26-.598.447a1.088 1.088 0 00-.213.688c0 .398.144.703.433.914.293.206.664.31 1.113.31zm7.378 1.82V21.647h2.928v10.556h-2.928zm1.471-11.917a1.59 1.59 0 01-1.121-.433 1.403 1.403 0 01-.46-1.052c0-.403.153-.749.46-1.037.312-.294.685-.44 1.121-.44.435 0 .806.146 1.113.44.312.288.467.634.467 1.037 0 .408-.155.759-.467 1.052a1.566 1.566 0 01-1.113.433zm6.73 5.814v6.103h-2.928V21.647h2.79v1.862h.124a2.95 2.95 0 011.175-1.457c.55-.362 1.217-.543 2-.543.734 0 1.373.16 1.918.481.545.321.969.78 1.271 1.375.303.591.454 1.297.454 2.117v6.721h-2.928v-6.199c.005-.646-.16-1.15-.495-1.512-.334-.367-.795-.55-1.381-.55-.394 0-.742.085-1.045.255-.298.17-.531.416-.701.742-.165.32-.249.708-.254 1.161zm17.895-1.443l-2.68.165a1.39 1.39 0 00-.296-.619 1.564 1.564 0 00-.598-.446 2.033 2.033 0 00-.873-.172c-.453 0-.836.096-1.147.288-.312.188-.468.44-.468.756 0 .253.101.466.303.64.201.174.547.314 1.037.419l1.911.385c1.026.21 1.792.55 2.296 1.017.504.467.756 1.081.756 1.842 0 .692-.204 1.299-.612 1.821-.403.523-.958.93-1.663 1.224-.701.288-1.51.433-2.426.433-1.398 0-2.511-.291-3.341-.873-.824-.587-1.308-1.384-1.45-2.392l2.88-.151c.087.426.298.751.632.976.335.22.763.33 1.285.33.514 0 .926-.099 1.238-.296.316-.202.476-.46.481-.777a.809.809 0 00-.337-.652c-.22-.175-.559-.307-1.017-.4l-1.828-.363c-1.031-.207-1.799-.564-2.303-1.073-.499-.508-.749-1.156-.749-1.945 0-.678.183-1.262.55-1.752.371-.49.891-.868 1.56-1.134.674-.266 1.462-.399 2.364-.399 1.334 0 2.383.282 3.148.846.77.563 1.219 1.33 1.347 2.302z" fill="#212225"/><rect x="74.371" y="50.009" width="153.218" height="110.21" rx="8" fill="#F7FAFB" stroke="#DBDEE5" stroke-width="1.292" stroke-linecap="round" stroke-dasharray="2.15 3.23"/><rect x="238.342" y="50.009" width="153.218" height="110.21" rx="8" fill="#F7FAFB" stroke="#DBDEE5" stroke-width="1.292" stroke-linecap="round" stroke-dasharray="2.15 3.23"/><rect x="402.312" y="50.009" width="152.854" height="109.948" rx="8" fill="#fff" stroke="#E5E5FF" stroke-width="1.073"/><path d="M545.473 59.703a1.515 1.515 0 00-1.665-.321 1.522 1.522 0 00-.492.336l-6.048 6.048-.739 2.88 2.881-.738 6.048-6.049c.144-.14.258-.307.336-.492a1.5 1.5 0 00.008-1.168 1.525 1.525 0 00-.329-.496v0z" stroke="#9C9AFF" stroke-width="1.073" stroke-linecap="round" stroke-linejoin="round"/><rect x="458.137" y="62.881" width="41.206" height="41.206" rx="7.368" fill="#E298CD"/><mask id="mask1_2414_95999" style="mask-type:alpha" maskUnits="userSpaceOnUse" x="458" y="62" width="42" height="43"><rect x="458.136" y="62.881" width="41.206" height="41.206" rx="7.368" fill="#4EF8CF"/></mask><g mask="url(#mask1_2414_95999)"><path d="M498.746 77.392c-7.859-4.722-18.058-2.179-22.78 5.68-4.722 7.858-2.179 18.057 5.68 22.779 7.859 4.722 18.057 2.179 22.779-5.679 4.722-7.86 2.18-18.058-5.679-22.78z" fill="#13315E"/><path opacity=".5" d="M532.732 35.084c-14.156-8.505-32.526-3.925-41.031 10.23-8.505 14.156-3.925 32.526 10.23 41.031 14.155 8.505 32.525 3.925 41.031-10.23 8.505-14.155 3.925-32.525-10.23-41.03z" fill="#fff"/><path opacity=".5" d="M480.651 78.223c-12.108-7.275-27.822-3.357-35.097 8.751-7.276 12.109-3.358 27.822 8.75 35.098 12.109 7.275 27.823 3.357 35.098-8.751 7.276-12.108 3.358-27.822-8.751-35.098z" fill="#6255F5"/></g><path d="M472.746 88.868v-9.931h3.919c.753 0 1.395.143 1.925.431.53.285.934.68 1.212 1.188.281.505.422 1.087.422 1.746 0 .66-.142 1.242-.427 1.746a2.938 2.938 0 01-1.236 1.178c-.537.282-1.187.422-1.95.422h-2.497v-1.682h2.158c.404 0 .737-.07.999-.209a1.38 1.38 0 00.591-.587 1.83 1.83 0 00.199-.868c0-.33-.066-.617-.199-.863a1.325 1.325 0 00-.591-.577c-.265-.14-.602-.209-1.009-.209h-1.416v8.215h-2.1zm8.803 0V81.42h2.003v1.3h.078c.136-.463.363-.812.684-1.048.32-.24.688-.36 1.105-.36a3.138 3.138 0 01.65.074v1.833a2.695 2.695 0 00-.402-.078 3.642 3.642 0 00-.471-.034 1.65 1.65 0 00-.815.199c-.236.13-.423.31-.562.543a1.567 1.567 0 00-.204.805v4.214h-2.066z" fill="#fff"/><path d="M456.134 122.971v-7.022h2.77c.532 0 .986.102 1.361.306.375.201.66.481.857.839.199.357.298.768.298 1.235 0 .466-.1.877-.301 1.234a2.09 2.09 0 01-.875.833c-.379.199-.838.298-1.378.298h-1.765v-1.189h1.525c.286 0 .521-.05.706-.148a.976.976 0 00.419-.415c.093-.178.14-.383.14-.613 0-.233-.047-.437-.14-.611a.94.94 0 00-.419-.408c-.187-.098-.425-.147-.713-.147h-1.001v5.808h-1.484zm6.223 0v-5.266h1.416v.918h.055c.096-.326.257-.573.483-.74.226-.169.487-.254.782-.254a2.234 2.234 0 01.459.052v1.296a2.568 2.568 0 00-.617-.079c-.215 0-.407.047-.576.14-.167.092-.299.22-.398.384a1.111 1.111 0 00-.144.569v2.98h-1.46zm6.084.102c-.532 0-.993-.113-1.381-.339a2.318 2.318 0 01-.895-.953c-.21-.409-.315-.883-.315-1.423 0-.544.105-1.019.315-1.426.21-.409.508-.727.895-.953.388-.229.849-.343 1.381-.343.533 0 .992.114 1.378.343.389.226.688.544.899.953.21.407.315.882.315 1.426 0 .54-.105 1.014-.315 1.423a2.32 2.32 0 01-.899.953c-.386.226-.845.339-1.378.339zm.007-1.131a.91.91 0 00.607-.206c.162-.139.285-.329.367-.569a2.47 2.47 0 00.127-.819 2.47 2.47 0 00-.127-.819 1.282 1.282 0 00-.367-.57.9.9 0 00-.607-.209c-.244 0-.45.07-.617.209-.164.14-.289.33-.374.57-.082.24-.123.513-.123.819 0 .306.041.579.123.819.085.24.21.43.374.569a.942.942 0 00.617.206zm3.535-4.237h1.46v5.526c0 .407-.08.736-.24.987-.16.252-.39.436-.689.552-.297.117-.652.175-1.066.175-.05 0-.098-.001-.144-.003-.048 0-.098-.001-.151-.004v-1.141l.103.003c.027.002.057.004.089.004.235 0 .4-.051.494-.151.096-.099.144-.247.144-.446v-5.502zm.727-.679a.791.791 0 01-.556-.216.697.697 0 010-1.042.782.782 0 01.556-.22c.219 0 .405.073.558.22a.678.678 0 01.233.517.693.693 0 01-.233.525.784.784 0 01-.558.216zm4.303 6.047c-.542 0-1.008-.109-1.399-.329a2.253 2.253 0 01-.898-.939c-.21-.407-.316-.888-.316-1.443 0-.542.106-1.017.316-1.427a2.33 2.33 0 01.888-.956c.384-.229.834-.343 1.351-.343.347 0 .67.056.97.168.301.11.564.276.788.497.226.222.402.501.528.837.126.333.189.724.189 1.172v.401h-4.447v-.905h3.072c0-.21-.046-.396-.137-.559a.98.98 0 00-.381-.38 1.081 1.081 0 00-.558-.141c-.222 0-.419.052-.59.155-.169.1-.302.236-.398.408a1.146 1.146 0 00-.147.565v.861c0 .26.048.485.144.675.098.19.236.336.415.439.178.103.389.154.634.154.162 0 .311-.023.445-.068a.937.937 0 00.347-.206.9.9 0 00.219-.336l1.351.089a1.84 1.84 0 01-.422.85c-.21.24-.482.428-.816.563a3.085 3.085 0 01-1.148.198zm5.749 0c-.539 0-1.003-.114-1.392-.342a2.32 2.32 0 01-.891-.96c-.206-.409-.309-.88-.309-1.413 0-.539.104-1.012.312-1.419.21-.409.509-.728.895-.957.386-.23.846-.346 1.378-.346.46 0 .862.084 1.207.25.345.167.618.402.819.703.201.302.312.656.333 1.063h-1.378a1.064 1.064 0 00-.309-.634c-.164-.163-.38-.244-.648-.244a.982.982 0 00-.593.185 1.187 1.187 0 00-.391.532c-.093.233-.14.515-.14.847 0 .336.045.621.137.857.093.235.225.414.394.538a.982.982 0 00.593.185.955.955 0 00.449-.103.866.866 0 00.333-.298c.089-.133.147-.291.175-.477h1.378a2.163 2.163 0 01-.329 1.063 1.99 1.99 0 01-.806.713c-.343.172-.748.257-1.217.257zm6.088-5.368v1.097h-3.171v-1.097h3.171zm-2.452-1.262h1.461v4.909c0 .135.021.24.062.316a.34.34 0 00.171.154.7.7 0 00.261.045c.068 0 .137-.006.205-.018.069-.013.121-.024.158-.03l.23 1.086c-.073.023-.176.05-.309.079a2.409 2.409 0 01-.483.058 2.223 2.223 0 01-.926-.14 1.29 1.29 0 01-.614-.501c-.146-.226-.218-.512-.216-.857v-5.101zm8.298 6.528l1.152-7.022h1.097l-1.152 7.022h-1.097zm-3.144-1.742l.182-1.097h5.485l-.182 1.097h-5.485zm.675 1.742l1.152-7.022h1.097l-1.152 7.022h-1.097zm-.274-4.183l.185-1.097h5.485l-.185 1.097h-5.485zm9.393-2.839v7.022h-1.485v-5.613h-.041l-1.608 1.008v-1.316l1.738-1.101h1.396z" fill="#212225"/><g clip-path="url(#clip0_2414_95999)"><g clip-path="url(#clip1_2414_95999)" stroke="#212225" stroke-width="1.073" stroke-linecap="round" stroke-linejoin="round"><path d="M428.594 139.785a.161.161 0 00-.158.193.16.16 0 00.22.117.162.162 0 00.1-.149.161.161 0 00-.162-.161zm0 3.861a.156.156 0 00-.089.027.159.159 0 00-.06.073.16.16 0 00.035.175.156.156 0 00.176.035.162.162 0 00.1-.149.161.161 0 00-.162-.161z" stroke-dasharray="2.15 2.15"/><path d="M434.708 138.015a1.93 1.93 0 110 3.861h-5.793a1.93 1.93 0 110-3.861h5.793zm0 3.861a1.937 1.937 0 011.365.566 1.934 1.934 0 01.419 2.104 1.931 1.931 0 01-1.784 1.192h-5.793a1.93 1.93 0 110-3.862h5.793zm-3.54-1.931h3.54m-3.54 3.862h3.54"/></g><path d="M443.763 139.035v5.46h-.989v-4.498h-.032l-1.277.816v-.906l1.357-.872h.941zm1.387 5.46v-.714l1.896-1.859c.181-.183.332-.345.453-.488.121-.142.211-.28.272-.413.06-.133.09-.275.09-.427a.772.772 0 00-.44-.73 1.03 1.03 0 00-.466-.101.955.955 0 00-.472.112.764.764 0 00-.315.312.998.998 0 00-.109.482h-.941c0-.347.079-.648.237-.904.158-.256.376-.454.653-.594a2.1 2.1 0 01.96-.211c.366 0 .688.068.965.205.278.137.493.325.646.563.154.238.232.51.232.816 0 .204-.039.405-.118.602a2.549 2.549 0 01-.413.656c-.195.24-.47.531-.824.872l-.941.958v.037h2.378v.826h-3.743zm9.547-3.959a.729.729 0 00-.315-.544c-.183-.13-.421-.195-.714-.195-.207 0-.383.031-.531.094a.784.784 0 00-.339.253.619.619 0 00-.12.365c0 .114.026.213.078.296a.687.687 0 00.216.213c.09.057.191.105.301.144.11.04.221.072.333.099l.512.128c.206.048.405.113.595.195.192.081.363.185.514.309.153.124.274.275.363.451.089.176.133.382.133.618 0 .32-.081.602-.245.846-.163.241-.4.431-.709.567-.308.136-.68.203-1.117.203-.425 0-.794-.066-1.107-.197a1.656 1.656 0 01-.731-.576c-.174-.253-.268-.56-.282-.923h.973c.014.19.073.349.176.475s.237.22.403.283c.167.062.353.093.56.093.215 0 .403-.032.565-.096a.93.93 0 00.384-.272.66.66 0 00.141-.411.523.523 0 00-.125-.352.924.924 0 00-.344-.234 3.366 3.366 0 00-.512-.171l-.621-.16c-.45-.116-.806-.291-1.067-.525-.259-.237-.389-.55-.389-.942 0-.321.087-.603.261-.845.176-.242.415-.429.717-.562a2.497 2.497 0 011.027-.203c.387 0 .727.068 1.018.203.294.133.524.319.691.557.167.236.253.508.259.816h-.952zm3.679 4.039c-.411 0-.765-.085-1.064-.256a1.732 1.732 0 01-.685-.73c-.16-.317-.24-.689-.24-1.117 0-.422.08-.791.24-1.11.161-.32.387-.568.677-.746.29-.18.63-.27 1.021-.27.253 0 .491.041.715.123.225.08.425.205.597.373.174.169.311.384.411.646.099.259.149.569.149.928v.296h-3.357v-.651h2.432a1.042 1.042 0 00-.12-.493.869.869 0 00-.328-.344.921.921 0 00-.486-.126.937.937 0 00-.519.144.997.997 0 00-.35.374 1.075 1.075 0 00-.125.504v.568c0 .238.043.442.131.613a.922.922 0 00.365.389c.156.089.339.134.549.134.141 0 .268-.02.381-.059a.845.845 0 00.296-.179.744.744 0 00.19-.29l.901.101a1.408 1.408 0 01-.325.624 1.583 1.583 0 01-.608.41 2.33 2.33 0 01-.848.144zm2.638-.08V140.4h.935v.682h.043a1.025 1.025 0 011.011-.741 2.37 2.37 0 01.346.027v.888a1.862 1.862 0 00-.448-.056.977.977 0 00-.474.114.842.842 0 00-.448.774v2.407h-.965zm6.76-4.095l-1.459 4.095h-1.067l-1.458-4.095h1.029l.941 3.042h.043l.944-3.042h1.027zm2.341 4.175c-.41 0-.765-.085-1.064-.256a1.738 1.738 0 01-.685-.73c-.16-.317-.24-.689-.24-1.117 0-.422.08-.791.24-1.11a1.82 1.82 0 01.677-.746c.29-.18.631-.27 1.022-.27.252 0 .49.041.714.123.226.08.425.205.598.373.174.169.311.384.41.646.1.259.15.569.15.928v.296h-3.357v-.651h2.431a1.019 1.019 0 00-.12-.493.862.862 0 00-.328-.344.915.915 0 00-.485-.126.94.94 0 00-.52.144.995.995 0 00-.349.374 1.076 1.076 0 00-.126.504v.568c0 .238.044.442.131.613a.928.928 0 00.365.389c.157.089.34.134.55.134.14 0 .267-.02.381-.059a.854.854 0 00.296-.179.731.731 0 00.189-.29l.902.101a1.41 1.41 0 01-.326.624 1.575 1.575 0 01-.608.41 2.326 2.326 0 01-.848.144zm2.638-.08V140.4h.936v.682h.043c.074-.236.202-.418.384-.546.183-.13.392-.195.626-.195a2.394 2.394 0 01.347.027v.888a1.848 1.848 0 00-.448-.056.984.984 0 00-.475.114.848.848 0 00-.448.774v2.407h-.965zm6.214-3.013l-.88.096a.714.714 0 00-.13-.25.66.66 0 00-.246-.19.891.891 0 00-.378-.072.928.928 0 00-.507.131c-.135.087-.202.2-.2.339a.352.352 0 00.131.29c.09.075.24.136.448.184l.698.15c.388.083.676.216.864.397.19.181.286.419.288.712a1.114 1.114 0 01-.226.682 1.452 1.452 0 01-.616.459c-.263.11-.566.165-.907.165-.501 0-.905-.104-1.211-.314a1.27 1.27 0 01-.546-.883l.941-.09a.663.663 0 00.272.418.947.947 0 00.541.142c.23 0 .414-.048.552-.142.141-.094.211-.21.211-.349a.365.365 0 00-.136-.291c-.089-.076-.228-.135-.416-.176l-.699-.146c-.392-.082-.683-.22-.872-.414a1.014 1.014 0 01-.279-.741 1.047 1.047 0 01.205-.656c.14-.187.335-.331.584-.432a2.26 2.26 0 01.866-.155c.48 0 .858.103 1.134.307.277.205.448.481.514.829z" fill="#637282"/><g clip-path="url(#clip2_2414_95999)"><g clip-path="url(#clip3_2414_95999)" stroke="#289548" stroke-width="1.073"><path d="M501.581 146.596a4.827 4.827 0 100-9.654 4.827 4.827 0 000 9.654z" stroke-miterlimit="10"/><path d="M503.512 139.892l-2.681 3.647a.35.35 0 01-.483.107l-.054-.054-.643-.751" stroke-linecap="round" stroke-linejoin="round"/></g><path d="M513.085 144.468h-1.85v-5.461h1.888c.542 0 1.008.109 1.397.328.391.217.692.529.901.936.21.407.315.894.315 1.461 0 .569-.106 1.058-.317 1.466-.21.409-.513.723-.91.942-.394.218-.869.328-1.424.328zm-.861-.856h.813c.381 0 .698-.07.952-.208.255-.141.446-.35.574-.627.128-.279.192-.627.192-1.045 0-.418-.064-.764-.192-1.04a1.314 1.314 0 00-.568-.621c-.249-.139-.558-.208-.928-.208h-.843v3.749zm6.222.936c-.41 0-.765-.086-1.064-.256a1.74 1.74 0 01-.685-.731c-.16-.316-.24-.689-.24-1.117 0-.421.08-.791.24-1.109.162-.32.388-.569.677-.747.29-.18.631-.269 1.022-.269.252 0 .49.041.714.122.226.08.425.205.598.374.174.169.311.384.41.645.1.259.149.569.149.928v.296h-3.357v-.651h2.432a1.042 1.042 0 00-.12-.493.869.869 0 00-.328-.344.915.915 0 00-.485-.125.94.94 0 00-.52.144.985.985 0 00-.349.373 1.076 1.076 0 00-.126.504v.568c0 .238.044.442.131.613a.928.928 0 00.365.389c.157.089.34.134.55.134.14 0 .267-.02.381-.059a.84.84 0 00.296-.179.742.742 0 00.189-.29l.901.101a1.398 1.398 0 01-.325.624 1.588 1.588 0 01-.608.411 2.326 2.326 0 01-.848.144zm2.638 1.456v-5.632h.949v.677h.056c.05-.099.12-.205.211-.317.091-.114.213-.211.368-.291.155-.081.352-.122.592-.122.316 0 .602.081.856.242.256.16.458.398.608.712.151.313.226.697.226 1.152 0 .45-.073.832-.221 1.147a1.685 1.685 0 01-.603.72 1.55 1.55 0 01-.863.248c-.235 0-.43-.039-.584-.118a1.183 1.183 0 01-.374-.282 1.867 1.867 0 01-.216-.318h-.04v2.182h-.965zm.947-3.584c0 .265.037.497.112.696.076.199.185.354.328.466a.83.83 0 00.522.166.835.835 0 00.536-.171c.144-.115.253-.273.325-.472.075-.201.112-.429.112-.685 0-.254-.036-.48-.109-.677a1.014 1.014 0 00-.325-.464.852.852 0 00-.539-.168.85.85 0 00-.525.162 1.008 1.008 0 00-.328.456 1.977 1.977 0 00-.109.691zm4.341 2.106a.573.573 0 01-.416-.17.552.552 0 01-.171-.416.545.545 0 01.171-.411.57.57 0 01.416-.171c.156 0 .292.057.408.171a.563.563 0 01.093.707.612.612 0 01-.213.213.555.555 0 01-.288.077z" fill="#637282"/></g></g><path d="M79.768 180.251c-.037-.37-.195-.658-.473-.862-.278-.205-.655-.307-1.132-.307-.324 0-.598.045-.82.137a1.157 1.157 0 00-.514.371.896.896 0 00-.174.541.777.777 0 00.105.441c.08.125.188.233.326.325.137.089.296.167.476.234.18.064.373.119.578.165l.844.202c.41.091.785.214 1.127.366.343.153.64.341.89.564.25.223.444.486.582.789.14.302.213.649.216 1.041-.004.574-.15 1.072-.44 1.494-.288.419-.703.744-1.248.977-.54.229-1.193.344-1.957.344-.758 0-1.418-.117-1.98-.349-.56-.232-.997-.576-1.312-1.031-.312-.459-.475-1.026-.49-1.701h1.92c.022.314.112.577.27.788.163.208.378.365.647.472.272.104.58.156.922.156.336 0 .628-.049.876-.146.25-.098.444-.234.582-.408a.945.945 0 00.206-.601.781.781 0 00-.188-.532 1.434 1.434 0 00-.54-.367 5.645 5.645 0 00-.867-.275l-1.023-.256c-.791-.193-1.416-.494-1.875-.904-.458-.409-.686-.961-.683-1.655-.003-.568.148-1.065.454-1.49.309-.425.732-.756 1.27-.995.538-.238 1.15-.357 1.834-.357.697 0 1.305.119 1.824.357.523.239.93.57 1.22.995.29.425.44.917.45 1.477h-1.903zm6.538 6.826c-.724 0-1.347-.147-1.87-.44a3.011 3.011 0 01-1.201-1.256c-.281-.544-.422-1.188-.422-1.93 0-.725.14-1.36.422-1.908a3.12 3.12 0 011.187-1.279c.514-.305 1.116-.458 1.806-.458.465 0 .898.075 1.298.225a2.87 2.87 0 011.054.664c.303.297.538.67.706 1.119.168.446.253.969.253 1.568v.536h-5.947v-1.21H87.7c0-.281-.061-.53-.183-.747a1.312 1.312 0 00-.51-.509 1.445 1.445 0 00-.746-.188c-.297 0-.56.069-.789.206a1.446 1.446 0 00-.532.546 1.539 1.539 0 00-.197.756v1.151c0 .348.064.649.193.903.131.254.316.449.554.587.239.137.522.206.849.206.216 0 .415-.03.596-.091a1.196 1.196 0 00.757-.725l1.805.119c-.091.434-.28.813-.564 1.137a2.827 2.827 0 01-1.09.752c-.444.177-.956.266-1.537.266zm4.507-.137v-7.042h1.894v1.228h.073c.128-.437.344-.767.646-.99a1.7 1.7 0 011.046-.339 3.01 3.01 0 01.614.068v1.733a3.49 3.49 0 00-.825-.105c-.288 0-.544.063-.77.188a1.38 1.38 0 00-.532.513 1.486 1.486 0 00-.193.762v3.984h-1.953zm12.062-7.042l-2.462 7.042h-2.2l-2.462-7.042h2.063l1.462 5.038h.074l1.458-5.038h2.067zm3.982 7.179c-.724 0-1.348-.147-1.871-.44a3.02 3.02 0 01-1.201-1.256c-.281-.544-.421-1.188-.421-1.93 0-.725.14-1.36.421-1.908a3.123 3.123 0 011.188-1.279c.513-.305 1.115-.458 1.806-.458.465 0 .897.075 1.298.225a2.88 2.88 0 011.054.664c.303.297.538.67.706 1.119.168.446.252.969.252 1.568v.536h-5.946v-1.21h4.108c0-.281-.061-.53-.184-.747a1.31 1.31 0 00-.509-.509 1.442 1.442 0 00-.747-.188c-.296 0-.559.069-.788.206a1.438 1.438 0 00-.532.546 1.531 1.531 0 00-.197.756v1.151c0 .348.064.649.192.903.132.254.317.449.555.587.238.137.521.206.848.206.217 0 .416-.03.596-.091a1.198 1.198 0 00.757-.725l1.806.119c-.092.434-.28.813-.564 1.137a2.827 2.827 0 01-1.091.752c-.443.177-.955.266-1.536.266zm4.507-.137v-7.042h1.893v1.228h.074c.128-.437.343-.767.646-.99a1.7 1.7 0 011.045-.339 3.032 3.032 0 01.615.068v1.733a3.486 3.486 0 00-.826-.105c-.287 0-.544.063-.77.188-.223.122-.4.293-.532.513a1.49 1.49 0 00-.192.762v3.984h-1.953zm11.142-5.034l-1.788.11a.928.928 0 00-.198-.413 1.037 1.037 0 00-.398-.298 1.365 1.365 0 00-.583-.115c-.302 0-.558.065-.765.193-.208.125-.312.293-.312.504 0 .168.067.311.202.427.134.116.365.209.692.279l1.274.257c.685.141 1.195.367 1.532.679.336.311.504.721.504 1.228 0 .462-.136.867-.408 1.215-.269.349-.639.621-1.11.816-.467.193-1.007.289-1.618.289-.932 0-1.675-.194-2.228-.582a2.266 2.266 0 01-.967-1.596l1.921-.1a.987.987 0 00.421.651c.223.146.509.22.858.22.342 0 .617-.066.825-.198.211-.134.318-.307.321-.518a.538.538 0 00-.225-.435c-.147-.116-.373-.205-.678-.266l-1.22-.243c-.688-.138-1.199-.376-1.536-.715-.333-.339-.499-.772-.499-1.298 0-.452.122-.842.366-1.169.248-.327.595-.579 1.041-.756.449-.177.975-.266 1.577-.266.89 0 1.59.188 2.1.564.513.376.813.888.899 1.536z" fill="#212225"/><path d="M126.354 186.94v-9.39h3.76c.691 0 1.267.103 1.728.307.462.205.809.489 1.041.853.232.361.348.777.348 1.247 0 .367-.073.689-.22.968a1.887 1.887 0 01-.605.678 2.472 2.472 0 01-.871.371v.092c.358.015.692.116 1.004.303.315.186.57.448.766.784.195.333.293.73.293 1.192 0 .498-.124.943-.371 1.334-.245.388-.607.695-1.087.921-.48.227-1.071.34-1.774.34h-4.012zm1.986-1.623h1.618c.553 0 .957-.106 1.21-.317.254-.214.381-.498.381-.852 0-.26-.063-.489-.188-.688a1.273 1.273 0 00-.536-.468 1.842 1.842 0 00-.821-.169h-1.664v2.494zm0-3.838h1.471c.272 0 .514-.047.725-.142.214-.098.382-.235.504-.412a1.08 1.08 0 00.188-.638 1.03 1.03 0 00-.362-.82c-.239-.208-.578-.312-1.018-.312h-1.508v2.324zm8.466-3.929v9.39h-1.953v-9.39h1.953zm4.747 9.527c-.713 0-1.328-.151-1.848-.454a3.104 3.104 0 01-1.197-1.274c-.281-.547-.421-1.182-.421-1.903 0-.727.14-1.363.421-1.907.282-.547.68-.972 1.197-1.275.52-.305 1.135-.458 1.848-.458.712 0 1.326.153 1.843.458.519.303.92.728 1.201 1.275.281.544.422 1.18.422 1.907 0 .721-.141 1.356-.422 1.903a3.094 3.094 0 01-1.201 1.274c-.517.303-1.131.454-1.843.454zm.009-1.513c.324 0 .594-.091.811-.275.217-.186.381-.44.491-.761a3.29 3.29 0 00.169-1.096c0-.409-.056-.774-.169-1.095a1.703 1.703 0 00-.491-.761c-.217-.187-.487-.28-.811-.28-.327 0-.602.093-.826.28-.22.186-.386.44-.499.761-.11.321-.165.686-.165 1.095 0 .41.055.775.165 1.096.113.321.279.575.499.761.224.184.499.275.826.275zm7.908 1.513c-.721 0-1.342-.153-1.861-.458a3.098 3.098 0 01-1.192-1.284c-.275-.547-.413-1.177-.413-1.889 0-.721.139-1.354.417-1.898.282-.547.68-.973 1.197-1.279.517-.309 1.131-.463 1.843-.463.614 0 1.152.111 1.614.335.461.223.827.536 1.096.939.269.404.417.878.444 1.422h-1.843c-.052-.352-.189-.635-.412-.848-.22-.217-.509-.326-.867-.326a1.31 1.31 0 00-.793.248c-.223.162-.397.398-.523.71-.125.312-.188.689-.188 1.133 0 .449.061.831.184 1.146.125.315.301.555.527.72.226.165.491.247.793.247a1.3 1.3 0 00.601-.137c.18-.092.328-.225.444-.399.12-.178.198-.39.234-.638h1.843a2.883 2.883 0 01-.44 1.422c-.26.406-.619.724-1.077.953-.459.23-1.001.344-1.628.344zm6.165-2.164l.005-2.343h.284l2.256-2.672h2.242l-3.031 3.539h-.463l-1.293 1.476zm-1.769 2.027v-9.39h1.953v9.39h-1.953zm4.401 0l-2.072-3.067 1.302-1.38 3.058 4.447h-2.288zm4.432 2.64c-.247 0-.48-.019-.697-.059a2.57 2.57 0 01-.532-.142l.441-1.458c.229.07.435.108.619.114a.785.785 0 00.481-.128c.137-.092.249-.248.335-.468l.114-.298-2.526-7.243h2.054l1.458 5.171h.073l1.472-5.171h2.068l-2.737 7.803a3.29 3.29 0 01-.537.99 2.205 2.205 0 01-.848.656c-.342.155-.755.233-1.238.233z" fill="#A5ADB9"/><rect x="74.289" y="203.227" width="480.084" height="27.956" rx="5.379" fill="#F7FAFB"/><circle cx="531.978" cy="216.868" r="5.379" fill="#E5E5FF"/><g clip-path="url(#clip4_2414_95999)"><path d="M534.032 215.992l-2.044 2.044c-.054.054-.162.054-.215 0l-2.045-2.044" stroke="#5452CE" stroke-width="1.076" stroke-linecap="round" stroke-linejoin="round"/></g><path d="M512.775 220.349h-1.211l2.204-6.26h1.4l2.206 6.26h-1.21l-1.672-4.976h-.049l-1.668 4.976zm.039-2.454h3.301v.91h-3.301v-.91zm6.442-3.806v6.26h-1.106v-6.26h1.106zm2.245 0v6.26h-1.107v-6.26h1.107z" fill="#637282"/><path d="M486.594 215.04v-.951h4.994v.951h-1.934v5.309h-1.125v-5.309h-1.935zm6.058 7.069c-.151 0-.29-.012-.419-.036a1.549 1.549 0 01-.302-.08l.256-.862c.161.047.305.07.431.068a.523.523 0 00.333-.12c.098-.075.181-.201.248-.379l.095-.253-1.703-4.793h1.174l1.082 3.546h.049l1.085-3.546h1.177l-1.88 5.263a2.123 2.123 0 01-.348.639c-.145.18-.322.316-.532.41a1.77 1.77 0 01-.746.143zm4.271 0v-6.455h1.088v.777h.065c.057-.115.137-.236.241-.364.104-.131.245-.242.422-.333.177-.094.403-.141.678-.141.363 0 .69.093.981.278.294.184.526.456.697.816.174.359.26.799.26 1.321 0 .515-.084.953-.254 1.314a1.926 1.926 0 01-.69.825c-.292.19-.622.284-.991.284-.269 0-.492-.044-.669-.134a1.376 1.376 0 01-.428-.324 2.076 2.076 0 01-.247-.364h-.046v2.5h-1.107zm1.085-4.107c0 .303.043.569.129.797.087.229.213.407.376.535.165.127.364.19.599.19a.963.963 0 00.614-.196c.165-.132.289-.313.373-.541.085-.23.128-.492.128-.785 0-.292-.041-.551-.125-.777a1.175 1.175 0 00-.373-.532.977.977 0 00-.617-.192.972.972 0 00-.602.186 1.148 1.148 0 00-.376.523 2.254 2.254 0 00-.126.792zm6.373 2.439c-.471 0-.877-.098-1.22-.294a1.984 1.984 0 01-.785-.837c-.183-.363-.275-.79-.275-1.281 0-.483.092-.907.275-1.271.185-.367.444-.652.776-.856.332-.206.723-.309 1.171-.309.289 0 .562.047.819.141.259.091.487.234.685.428.199.193.356.44.47.739.114.298.171.652.171 1.064v.339h-3.848v-.746h2.788a1.184 1.184 0 00-.138-.565.99.99 0 00-.376-.394 1.051 1.051 0 00-.556-.144c-.226 0-.425.055-.596.165a1.142 1.142 0 00-.4.428 1.228 1.228 0 00-.144.578v.651c0 .273.05.507.15.703.1.193.239.342.419.446.179.102.389.153.629.153.161 0 .307-.023.437-.068a.965.965 0 00.34-.204.868.868 0 00.217-.333l1.033.116c-.066.273-.19.511-.373.715a1.833 1.833 0 01-.697.471 2.67 2.67 0 01-.972.165zm3.705-.025a.658.658 0 01-.477-.195.637.637 0 01-.195-.477.627.627 0 01.195-.471.66.66 0 01.477-.196c.179 0 .335.066.468.196.134.13.202.287.205.471a.71.71 0 01-.343.584.637.637 0 01-.33.088zm0-3.35a.658.658 0 01-.477-.195.643.643 0 01-.195-.477.63.63 0 01.195-.471.653.653 0 01.477-.198c.179 0 .335.066.468.198a.65.65 0 01.205.471.71.71 0 01-.343.581.621.621 0 01-.33.091z" fill="#A5ADB9"/><path d="M91.573 214.258h1.388l1.858 4.535h.073l1.859-4.535h1.387v6.259H97.05v-4.3h-.058l-1.73 4.282h-.813l-1.73-4.291h-.058v4.309h-1.088v-6.259zm9.102 6.354a1.96 1.96 0 01-.804-.159 1.312 1.312 0 01-.562-.477c-.136-.21-.205-.468-.205-.776 0-.265.05-.484.147-.657a1.14 1.14 0 01.4-.416c.17-.104.36-.182.572-.235a4.59 4.59 0 01.663-.119c.275-.029.498-.054.67-.077a.975.975 0 00.372-.11c.08-.051.12-.129.12-.235v-.019c0-.23-.069-.408-.205-.534-.137-.127-.333-.19-.59-.19-.271 0-.486.059-.645.177a.884.884 0 00-.318.419l-1.033-.147a1.662 1.662 0 011.091-1.149c.271-.098.571-.147.899-.147.226 0 .451.027.675.08.224.053.429.14.615.263.185.12.334.284.446.492.114.208.171.467.171.779v3.142h-1.064v-.645h-.036a1.345 1.345 0 01-.74.639 1.84 1.84 0 01-.639.101zm.288-.813c.222 0 .414-.044.577-.131a.97.97 0 00.376-.355.902.902 0 00.135-.48v-.553a.527.527 0 01-.178.079 2.49 2.49 0 01-.275.065 19.935 19.935 0 01-.562.085 1.953 1.953 0 00-.443.11.729.729 0 00-.309.214.527.527 0 00-.113.349c0 .203.074.357.223.461a.97.97 0 00.569.156zm3.304.718v-4.694h1.106v4.694h-1.106zm.556-5.361a.649.649 0 01-.453-.174.562.562 0 01-.189-.425c0-.167.063-.309.189-.425a.643.643 0 01.453-.177c.177 0 .328.059.452.177.127.116.19.258.19.425a.56.56 0 01-.19.425.638.638 0 01-.452.174zm2.794 2.61v2.751h-1.106v-4.694h1.057v.797h.055c.108-.263.28-.471.517-.626.238-.155.533-.233.883-.233.324 0 .606.07.847.208.242.139.43.34.562.602.135.263.201.582.199.957v2.989h-1.107v-2.818c0-.314-.081-.559-.244-.736-.161-.178-.384-.266-.669-.266-.194 0-.366.042-.517.128a.895.895 0 00-.352.364 1.233 1.233 0 00-.125.577zm6.217 2.843c-.471 0-.877-.098-1.22-.294a1.979 1.979 0 01-.785-.837c-.183-.363-.275-.79-.275-1.281 0-.483.092-.906.275-1.271.185-.367.444-.652.776-.856.332-.206.723-.309 1.171-.309.289 0 .562.047.819.141.259.092.487.234.685.428.199.193.356.44.47.74.114.297.171.652.171 1.063v.339h-3.848v-.745h2.788a1.188 1.188 0 00-.138-.566.997.997 0 00-.376-.394 1.054 1.054 0 00-.556-.144c-.226 0-.425.055-.596.165a1.142 1.142 0 00-.4.428 1.231 1.231 0 00-.144.578v.651c0 .273.05.507.15.703.1.194.239.342.419.446.179.102.389.153.629.153.161 0 .307-.022.437-.067a.967.967 0 00.34-.205.868.868 0 00.217-.333l1.033.116c-.066.273-.19.511-.373.715a1.822 1.822 0 01-.697.471 2.67 2.67 0 01-.972.165zm5.368-4.786v.855h-2.699v-.855h2.699zm-2.033-1.125h1.107v4.407c0 .149.022.263.067.342a.36.36 0 00.183.159.696.696 0 00.251.043 1.26 1.26 0 00.324-.043l.186.865a2.121 2.121 0 01-.651.11 1.782 1.782 0 01-.748-.125 1.158 1.158 0 01-.529-.434c-.129-.196-.192-.44-.19-.733v-4.591z" fill="#637282"/><rect x="123.591" y="211.635" width="9.683" height="11.296" rx="2.152" fill="#EEF3F5"/><path d="M126.131 219.078v-.789l2.324-3.672h.658v1.123h-.401l-1.565 2.48v.042h3.244v.816h-4.26zm2.613 1.016v-1.257l.01-.353v-3.867h.936v5.477h-.946z" fill="#637282"/><path d="M146.184 211.635h.538v10.759h-.538v-10.759z" fill="#DBDEE5"/><path d="M161.753 220.367h-2.121v-6.259h2.164c.621 0 1.155.125 1.602.376.448.248.792.606 1.033 1.073.24.466.36 1.025.36 1.675 0 .652-.121 1.212-.363 1.681a2.521 2.521 0 01-1.043 1.079c-.452.25-.996.375-1.632.375zm-.987-.981h.932c.436 0 .8-.079 1.091-.238.292-.161.511-.4.657-.718.147-.32.221-.72.221-1.198 0-.479-.074-.877-.221-1.192a1.495 1.495 0 00-.651-.713c-.285-.159-.639-.238-1.063-.238h-.966v4.297zm7.132 1.073c-.471 0-.877-.098-1.219-.293a1.989 1.989 0 01-.786-.838c-.183-.362-.275-.789-.275-1.28 0-.483.092-.907.275-1.272.186-.367.444-.652.776-.856.333-.205.723-.308 1.171-.308.289 0 .562.047.819.14.259.092.487.235.685.428.2.194.356.44.471.74.114.297.171.652.171 1.063v.34h-3.848v-.746h2.787a1.195 1.195 0 00-.137-.565 1 1 0 00-.376-.395 1.057 1.057 0 00-.557-.143 1.08 1.08 0 00-.596.165c-.171.108-.304.25-.4.428a1.224 1.224 0 00-.144.577v.651c0 .273.05.508.15.703.1.194.24.343.419.446.179.102.389.153.629.153.161 0 .307-.022.438-.067a.972.972 0 00.339-.205.842.842 0 00.217-.333l1.033.116c-.065.273-.19.512-.373.715a1.814 1.814 0 01-.697.471 2.67 2.67 0 01-.972.165zm7.083-4.786l-1.672 4.694h-1.223l-1.672-4.694h1.18l1.079 3.487h.049l1.082-3.487h1.177zm1.872 1.944v2.75h-1.107v-4.694h1.058v.798h.055c.108-.263.28-.472.516-.627.239-.155.533-.232.884-.232.324 0 .606.069.846.208.243.138.43.339.563.602.134.262.2.581.198.956v2.989h-1.106v-2.818c0-.313-.082-.559-.245-.736-.161-.177-.384-.266-.669-.266-.194 0-.366.043-.516.128a.895.895 0 00-.352.364 1.225 1.225 0 00-.125.578zm6.216 2.842c-.47 0-.877-.098-1.219-.293a1.995 1.995 0 01-.786-.838c-.183-.362-.275-.789-.275-1.28 0-.483.092-.907.275-1.272.186-.367.445-.652.777-.856.332-.205.722-.308 1.17-.308.29 0 .563.047.82.14.258.092.487.235.684.428.2.194.357.44.471.74.114.297.171.652.171 1.063v.34h-3.848v-.746h2.787a1.183 1.183 0 00-.137-.565 1 1 0 00-.376-.395 1.053 1.053 0 00-.556-.143c-.226 0-.425.055-.596.165-.171.108-.305.25-.401.428a1.235 1.235 0 00-.143.577v.651c0 .273.05.508.149.703.1.194.24.343.419.446.179.102.389.153.63.153.161 0 .306-.022.437-.067a.972.972 0 00.339-.205.842.842 0 00.217-.333l1.033.116a1.598 1.598 0 01-.373.715 1.807 1.807 0 01-.697.471 2.67 2.67 0 01-.972.165zm5.368-4.786v.856h-2.698v-.856h2.698zm-2.032-1.125h1.106v4.407a.72.72 0 00.067.343c.047.077.108.13.184.159a.713.713 0 00.25.042c.07 0 .133-.005.19-.015.059-.01.104-.019.134-.027l.187.865a2.101 2.101 0 01-.651.11 1.803 1.803 0 01-.749-.126 1.162 1.162 0 01-.529-.434c-.128-.195-.191-.44-.189-.733v-4.591z" fill="#637282"/><rect x="192.826" y="211.635" width="9.683" height="11.296" rx="2.152" fill="#EEF3F5"/><path d="M197.41 220.169a2.65 2.65 0 01-1.059-.2 1.764 1.764 0 01-.722-.548 1.289 1.289 0 01-.257-.795 1.31 1.31 0 01.15-.634c.101-.192.239-.353.411-.481.175-.13.37-.213.584-.249v-.037a1.161 1.161 0 01-.685-.431 1.239 1.239 0 01-.257-.783 1.248 1.248 0 01.235-.754c.159-.222.377-.395.653-.522.276-.128.592-.193.947-.193.351 0 .664.065.938.193.277.127.494.3.653.522.16.221.241.472.241.754 0 .296-.089.557-.265.783-.175.225-.4.368-.677.431v.037c.214.036.407.119.578.249.173.128.31.289.412.481.103.193.155.404.155.634 0 .296-.087.561-.262.795a1.777 1.777 0 01-.722.548c-.305.133-.655.2-1.051.2zm0-.765c.205 0 .383-.034.535-.104a.838.838 0 00.353-.299.822.822 0 00.128-.444.834.834 0 00-.136-.463.9.9 0 00-.361-.318 1.132 1.132 0 00-.519-.115 1.15 1.15 0 00-.524.115.91.91 0 00-.364.318.814.814 0 00-.129.463.786.786 0 00.124.444.843.843 0 00.353.297c.153.071.333.106.54.106zm0-2.495a.95.95 0 00.444-.101.779.779 0 00.422-.704.786.786 0 00-.112-.412.726.726 0 00-.305-.275.98.98 0 00-.449-.099c-.173 0-.326.033-.458.099a.724.724 0 00-.409.687.778.778 0 00.107.42c.075.12.178.214.308.284a.983.983 0 00.452.101z" fill="#637282"/><path d="M215.419 211.635h.538v10.759h-.538v-10.759z" fill="#DBDEE5"/><path d="M228.868 215.058v-.95h4.994v.95h-1.935v5.309h-1.125v-5.309h-1.934zm7.305 5.401c-.47 0-.877-.098-1.219-.293a1.989 1.989 0 01-.786-.838c-.183-.362-.275-.789-.275-1.28 0-.483.092-.907.275-1.272a2.08 2.08 0 01.777-.856c.332-.205.722-.308 1.17-.308.29 0 .563.047.819.14.259.092.487.235.685.428.2.194.357.44.471.74.114.297.171.652.171 1.063v.34h-3.848v-.746h2.787a1.195 1.195 0 00-.137-.565 1 1 0 00-.376-.395 1.057 1.057 0 00-.557-.143 1.08 1.08 0 00-.596.165c-.171.108-.304.25-.4.428a1.224 1.224 0 00-.144.577v.651c0 .273.05.508.15.703.1.194.24.343.419.446.179.102.389.153.63.153.161 0 .306-.022.437-.067a.972.972 0 00.339-.205.842.842 0 00.217-.333l1.033.116c-.065.273-.19.512-.373.715a1.814 1.814 0 01-.697.471 2.67 2.67 0 01-.972.165zm6.734-3.545l-1.008.11a.829.829 0 00-.15-.288.749.749 0 00-.281-.217 1.025 1.025 0 00-.434-.082c-.23 0-.424.05-.581.15-.155.1-.231.229-.229.388a.407.407 0 00.15.333c.103.086.275.156.513.211l.801.171c.444.096.774.248.99.455.218.208.328.48.33.817a1.27 1.27 0 01-.26.782 1.67 1.67 0 01-.706.526 2.675 2.675 0 01-1.039.189c-.574 0-1.037-.12-1.387-.361a1.445 1.445 0 01-.627-1.011l1.079-.104a.76.76 0 00.312.48c.159.108.365.162.62.162.263 0 .474-.054.633-.162.161-.108.241-.242.241-.401a.418.418 0 00-.156-.333c-.101-.087-.26-.155-.476-.202l-.801-.168c-.45-.093-.784-.251-1-.473-.216-.224-.323-.508-.321-.85-.002-.289.077-.54.236-.752a1.54 1.54 0 01.669-.495c.287-.118.619-.177.993-.177.551 0 .984.117 1.299.351.318.234.515.551.59.951zm3.358-1.241v.856h-2.699v-.856h2.699zm-2.033-1.125h1.107v4.407a.71.71 0 00.067.343c.047.077.108.13.183.159a.718.718 0 00.251.042c.069 0 .132-.005.189-.015.06-.01.104-.019.135-.027l.186.865a2.113 2.113 0 01-.651.11 1.798 1.798 0 01-.748-.126 1.152 1.152 0 01-.529-.434c-.129-.195-.192-.44-.19-.733v-4.591zm4.065 3.069v2.75h-1.107v-4.694h1.058v.798h.055c.108-.263.28-.472.516-.627.239-.155.533-.232.884-.232.324 0 .606.069.846.208.243.138.43.339.563.602.134.262.2.581.198.956v2.989h-1.106v-2.818c0-.313-.082-.559-.245-.736-.161-.177-.384-.266-.669-.266-.194 0-.366.043-.517.128a.893.893 0 00-.351.364 1.225 1.225 0 00-.125.578zm6.216 2.842c-.47 0-.877-.098-1.219-.293a1.995 1.995 0 01-.786-.838c-.183-.362-.275-.789-.275-1.28 0-.483.092-.907.275-1.272.186-.367.445-.652.777-.856.332-.205.722-.308 1.17-.308.29 0 .563.047.819.14.259.092.487.235.685.428.2.194.357.44.471.74.114.297.171.652.171 1.063v.34h-3.848v-.746h2.787a1.195 1.195 0 00-.137-.565 1 1 0 00-.376-.395 1.056 1.056 0 00-.556-.143c-.227 0-.425.055-.596.165a1.13 1.13 0 00-.401.428 1.223 1.223 0 00-.143.577v.651c0 .273.049.508.149.703.1.194.24.343.419.446.179.102.389.153.63.153.161 0 .306-.022.437-.067a.972.972 0 00.339-.205.842.842 0 00.217-.333l1.033.116a1.598 1.598 0 01-.373.715 1.807 1.807 0 01-.697.471 2.67 2.67 0 01-.972.165zm5.368-4.786v.856h-2.699v-.856h2.699zm-2.032-1.125h1.106v4.407a.72.72 0 00.067.343c.047.077.108.13.184.159a.713.713 0 00.25.042c.07 0 .133-.005.19-.015.059-.01.104-.019.134-.027l.187.865a2.101 2.101 0 01-.651.11 1.803 1.803 0 01-.749-.126 1.162 1.162 0 01-.529-.434c-.128-.195-.191-.44-.189-.733v-4.591z" fill="#212225"/><rect x="264.27" y="211.635" width="9.145" height="11.296" rx="2.152" fill="#EEF3F5"/><path d="M268.873 220.169c-.385 0-.727-.066-1.027-.198a1.72 1.72 0 01-.706-.551 1.42 1.42 0 01-.275-.816h1.005a.667.667 0 00.147.388.873.873 0 00.356.254c.148.061.314.091.497.091.197 0 .37-.034.522-.101a.868.868 0 00.356-.289.715.715 0 00.125-.426.738.738 0 00-.128-.438.852.852 0 00-.38-.297 1.49 1.49 0 00-.594-.107h-.484v-.765h.484c.191 0 .358-.033.501-.099a.805.805 0 00.339-.278.722.722 0 00.121-.42.732.732 0 00-.105-.404.696.696 0 00-.297-.27.974.974 0 00-.446-.096c-.168 0-.323.03-.466.091a.86.86 0 00-.345.259.667.667 0 00-.139.396h-.954c.007-.307.095-.576.264-.808.172-.233.4-.415.685-.545.285-.132.605-.198.96-.198.366 0 .683.069.952.206.271.135.481.318.629.548.148.23.222.484.222.762.001.309-.089.567-.273.776a1.278 1.278 0 01-.717.409v.043c.385.053.68.196.885.428.207.23.31.516.308.858 0 .307-.087.581-.262.824-.173.241-.412.43-.717.567a2.508 2.508 0 01-1.043.206z" fill="#637282"/><path fill="#5452CE" d="M228.868 229.924h31.738V231h-31.738z"/><g filter="url(#filter0_d_2414_95999)"><rect x="215.51" y="62.704" width="168.631" height="121.296" rx="10" fill="#fff"/><path d="M374.04 73.399a1.675 1.675 0 00-2.379.016l-6.673 6.672-.814 3.178 3.177-.815 6.673-6.673a1.686 1.686 0 00.504-1.186 1.678 1.678 0 00-.488-1.192v0z" stroke="#9C9AFF" stroke-width="1.183" stroke-linecap="round" stroke-linejoin="round"/><rect x="277.625" y="76.905" width="44.991" height="44.991" rx="8.045" fill="#98BFE2"/><mask id="mask2_2414_95999" style="mask-type:alpha" maskUnits="userSpaceOnUse" x="277" y="76" width="46" height="46"><rect x="277.625" y="76.905" width="44.991" height="44.991" rx="8.045" fill="#4EF8CF"/></mask><g mask="url(#mask2_2414_95999)"><path d="M321.965 92.75c-8.581-5.157-19.716-2.38-24.872 6.2-5.156 8.581-2.379 19.716 6.201 24.872 8.581 5.156 19.716 2.379 24.872-6.201 5.156-8.581 2.379-19.716-6.201-24.872z" fill="#13315E"/><path opacity=".5" d="M330.948 81.574c-15.455-9.286-35.513-4.285-44.799 11.17-9.287 15.455-4.286 35.513 11.169 44.799 15.456 9.287 35.513 4.286 44.8-11.169 9.286-15.456 4.285-35.513-11.17-44.8z" fill="#387BB8"/><path opacity=".5" d="M311.182 62.546c-13.221-7.944-30.378-3.666-38.322 9.554-7.943 13.22-3.666 30.378 9.555 38.321 13.22 7.944 30.377 3.666 38.321-9.554 7.944-13.22 3.666-30.378-9.554-38.321z" fill="#332B88"/></g><path d="M300.291 97.278h-2.278a2.201 2.201 0 00-.255-.785 1.979 1.979 0 00-.494-.593 2.172 2.172 0 00-.696-.374 2.667 2.667 0 00-.848-.13c-.551 0-1.031.136-1.441.41-.409.27-.726.666-.951 1.186-.226.517-.338 1.144-.338 1.883 0 .759.112 1.397.338 1.913.229.517.548.907.957 1.17.409.264.882.396 1.419.396.302 0 .581-.04.838-.12.26-.08.49-.196.691-.348.201-.156.368-.345.499-.567.136-.222.229-.475.281-.759l2.278.01a4.245 4.245 0 01-1.383 2.626 4.43 4.43 0 01-1.404.843c-.541.204-1.153.306-1.836.306-.95 0-1.799-.215-2.548-.644-.746-.43-1.335-1.053-1.768-1.867-.43-.815-.645-1.801-.645-2.96 0-1.16.218-2.149.655-2.964.437-.814 1.03-1.435 1.779-1.861.748-.43 1.591-.645 2.527-.645.617 0 1.189.087 1.716.26.531.173 1 .426 1.409.76.409.328.742.732.999 1.21a4.52 4.52 0 01.499 1.644zm3.789 2.304v4.618h-2.216V93.55h2.153v4.071h.094c.18-.471.471-.84.873-1.107.403-.27.907-.406 1.514-.406.554 0 1.038.121 1.451.364.416.24.738.584.967 1.035.232.447.347.983.343 1.607v5.086h-2.215v-4.691c.003-.492-.122-.875-.375-1.15-.249-.273-.599-.41-1.05-.41a1.63 1.63 0 00-.801.192 1.365 1.365 0 00-.541.562 1.899 1.899 0 00-.197.879z" fill="#fff"/><path d="M292.493 137.622h-1.656a1.62 1.62 0 00-.186-.571 1.443 1.443 0 00-.359-.431 1.586 1.586 0 00-.507-.273 1.936 1.936 0 00-.616-.094c-.401 0-.75.1-1.048.299-.298.196-.528.484-.692.862-.164.376-.246.832-.246 1.369 0 .552.082 1.016.246 1.392.166.376.398.659.696.851.297.192.641.287 1.032.287.22 0 .423-.029.609-.087a1.464 1.464 0 00.866-.665c.099-.162.167-.346.205-.552l1.656.007c-.043.356-.15.699-.321 1.029a3.102 3.102 0 01-.685.881 3.238 3.238 0 01-1.021.613 3.745 3.745 0 01-1.335.223c-.691 0-1.309-.156-1.853-.469a3.322 3.322 0 01-1.286-1.358c-.313-.592-.469-1.31-.469-2.152 0-.845.159-1.563.476-2.156a3.324 3.324 0 011.294-1.354 3.629 3.629 0 011.838-.469c.449 0 .865.063 1.248.189.386.127.727.311 1.025.553.297.239.539.533.726.881.189.348.31.746.363 1.195zm2.755 1.676v3.358h-1.611v-7.746h1.566v2.962h.068c.131-.343.343-.612.635-.806.293-.197.66-.295 1.101-.295.403 0 .755.088 1.055.265.303.174.537.425.704.752.169.326.252.715.249 1.169v3.699h-1.611v-3.411c.003-.358-.088-.637-.272-.836-.182-.199-.436-.299-.764-.299-.22 0-.414.047-.583.14a.992.992 0 00-.393.408c-.093.177-.141.39-.144.64zm6.692 3.468a2.43 2.43 0 01-.991-.193 1.586 1.586 0 01-.688-.579c-.167-.257-.25-.577-.25-.961 0-.322.059-.593.178-.813.118-.219.28-.396.484-.529.204-.134.436-.235.696-.303.262-.068.537-.116.824-.143.338-.036.61-.069.817-.099.207-.033.357-.08.45-.144a.316.316 0 00.14-.279v-.023c0-.24-.075-.425-.227-.556-.149-.131-.36-.197-.635-.197-.29 0-.521.065-.692.193a.888.888 0 00-.341.477l-1.49-.121c.076-.353.225-.658.446-.916.222-.259.509-.458.859-.597a3.285 3.285 0 011.225-.212c.323 0 .632.038.927.114.298.075.561.192.79.351.232.159.415.363.549.613.133.247.2.543.2.889v3.918h-1.528v-.806h-.045a1.64 1.64 0 01-.374.481 1.745 1.745 0 01-.564.321 2.319 2.319 0 01-.76.114zm.461-1.112c.237 0 .447-.047.628-.14a1.11 1.11 0 00.427-.386.988.988 0 00.155-.548v-.617a.843.843 0 01-.208.091 3.876 3.876 0 01-.291.072c-.108.02-.217.039-.325.057l-.295.041a2.023 2.023 0 00-.495.132.803.803 0 00-.33.246.601.601 0 00-.117.379c0 .219.08.387.239.503.161.113.365.17.612.17zm4.06 1.002v-5.809h1.611v5.809h-1.611zm.81-6.558a.88.88 0 01-.617-.238.774.774 0 01-.253-.579c0-.222.084-.412.253-.571a.867.867 0 01.617-.242c.239 0 .443.08.612.242a.769.769 0 010 1.15.865.865 0 01-.612.238zm3.703 3.2v3.358h-1.611v-5.809h1.536v1.025h.068a1.62 1.62 0 01.646-.802c.303-.199.67-.299 1.101-.299.403 0 .755.088 1.055.265.3.176.534.428.7.756.166.325.25.714.25 1.165v3.699h-1.612v-3.411c.003-.356-.088-.633-.272-.833-.184-.201-.437-.302-.76-.302-.217 0-.409.047-.575.14a.97.97 0 00-.386.408c-.091.177-.137.39-.14.64z" fill="#212225"/><g clip-path="url(#clip5_2414_95999)"><g clip-path="url(#clip6_2414_95999)" stroke="#212225" stroke-width="1.183" stroke-linecap="round" stroke-linejoin="round"><path d="M247.461 159.064a.18.18 0 00-.165.11.177.177 0 00.039.194.177.177 0 00.274-.027.177.177 0 00-.022-.224.178.178 0 00-.126-.053zm0 4.261c-.036 0-.07.01-.099.03a.178.178 0 10.099-.03z" stroke-dasharray="2.37 2.37"/><path d="M254.207 157.112a2.13 2.13 0 110 4.26h-6.39a2.127 2.127 0 01-2.13-2.13 2.13 2.13 0 012.13-2.13h6.39z"/><path d="M254.207 161.372a2.136 2.136 0 011.507.624 2.147 2.147 0 01.623 1.506 2.127 2.127 0 01-2.13 2.13h-6.39a2.127 2.127 0 01-2.13-2.13 2.13 2.13 0 012.13-2.13h6.39zm-3.905-2.13h3.906m-3.906 4.26h3.906"/></g><path d="M264.338 164.307c-.437 0-.826-.074-1.165-.221a1.937 1.937 0 01-.794-.603 1.417 1.417 0 01-.283-.873 1.447 1.447 0 01.165-.698c.112-.211.263-.388.453-.529.192-.143.406-.234.641-.274v-.041a1.276 1.276 0 01-.753-.473 1.369 1.369 0 01-.282-.862 1.37 1.37 0 01.259-.83c.174-.243.414-.434.718-.573a2.433 2.433 0 011.041-.212c.386 0 .73.07 1.032.212.304.139.544.33.718.573.177.243.265.52.265.83 0 .325-.097.613-.291.862a1.272 1.272 0 01-.745.473v.041c.236.04.448.131.636.274.19.141.341.318.453.529.114.212.17.445.17.698 0 .325-.096.616-.288.873a1.937 1.937 0 01-.794.603 2.855 2.855 0 01-1.156.221zm0-.841c.225 0 .422-.039.588-.115a.915.915 0 00.389-.33.89.89 0 00.141-.488.915.915 0 00-.15-.509.994.994 0 00-.397-.35 1.253 1.253 0 00-.571-.126c-.216 0-.408.042-.577.126a1.016 1.016 0 00-.4.35.893.893 0 00-.141.509.854.854 0 00.135.488c.093.14.222.249.389.327.168.078.366.118.594.118zm0-2.745c.184 0 .347-.037.488-.112a.846.846 0 00.465-.773.853.853 0 00-.124-.453.787.787 0 00-.335-.303 1.073 1.073 0 00-.494-.109c-.19 0-.358.036-.503.109a.787.787 0 00-.45.756.864.864 0 00.117.462.885.885 0 00.339.311c.145.075.311.112.497.112zm8.593-.865a.8.8 0 00-.347-.6c-.202-.143-.465-.215-.788-.215-.228 0-.423.035-.586.103a.863.863 0 00-.373.28.676.676 0 00-.047.729.766.766 0 00.238.236c.1.062.211.115.332.159.122.043.244.079.368.108l.565.142c.227.053.446.124.656.214.212.091.401.204.567.342.169.137.302.303.401.497.098.194.147.421.147.682 0 .353-.091.664-.271.933a1.79 1.79 0 01-.782.626c-.34.149-.751.224-1.233.224-.469 0-.876-.073-1.221-.218a1.82 1.82 0 01-.806-.635c-.192-.279-.296-.618-.312-1.018h1.074c.016.21.08.384.194.524.114.139.262.243.444.311.185.069.391.103.618.103.237 0 .445-.035.624-.106.18-.072.321-.172.423-.3a.723.723 0 00.156-.453.576.576 0 00-.138-.388 1.02 1.02 0 00-.379-.259 3.771 3.771 0 00-.565-.188l-.686-.177c-.496-.127-.888-.32-1.176-.579-.287-.261-.43-.607-.43-1.038 0-.355.096-.666.289-.933.194-.267.457-.474.791-.621a2.746 2.746 0 011.132-.223c.428 0 .802.074 1.124.223.324.147.578.352.762.615.184.261.279.561.285.9h-1.05zm4.059 4.457c-.453 0-.844-.094-1.174-.283a1.912 1.912 0 01-.756-.806c-.176-.349-.265-.759-.265-1.232 0-.465.089-.873.265-1.224.179-.353.428-.627.747-.823.32-.199.695-.298 1.127-.298.278 0 .541.046.788.136.249.088.469.225.659.412.192.186.343.423.453.711.11.287.165.628.165 1.024v.327h-3.704v-.718h2.683a1.149 1.149 0 00-.132-.544.96.96 0 00-.362-.38 1.017 1.017 0 00-.535-.138c-.218 0-.409.053-.574.159a1.088 1.088 0 00-.385.412 1.175 1.175 0 00-.139.556v.626c0 .263.048.488.145.677.096.186.23.329.403.429.172.098.374.147.606.147.154 0 .295-.021.42-.064a.844.844 0 00.536-.518l.994.112a1.56 1.56 0 01-.359.688 1.755 1.755 0 01-.671.453 2.563 2.563 0 01-.935.159zm2.91-.088v-4.519h1.032v.753h.047c.083-.26.224-.462.424-.603.202-.143.432-.214.691-.214a2.893 2.893 0 01.383.029v.98a2.085 2.085 0 00-.495-.062c-.194 0-.368.042-.523.126a.929.929 0 00-.494.853v2.657H279.9zm7.458-4.519l-1.61 4.519h-1.176l-1.609-4.519h1.135l1.039 3.357h.047l1.041-3.357h1.133zm2.583 4.607c-.453 0-.844-.094-1.174-.283a1.912 1.912 0 01-.756-.806c-.176-.349-.264-.759-.264-1.232 0-.465.088-.873.264-1.224.179-.353.428-.627.748-.823.319-.199.695-.298 1.126-.298.279 0 .541.046.789.136.249.088.468.225.658.412.193.186.344.423.453.711.11.287.165.628.165 1.024v.327h-3.703v-.718h2.682a1.149 1.149 0 00-.132-.544.96.96 0 00-.362-.38 1.017 1.017 0 00-.535-.138c-.218 0-.409.053-.574.159a1.096 1.096 0 00-.385.412c-.09.168-.136.354-.138.556v.626c0 .263.048.488.144.677.096.186.23.329.403.429.172.098.374.147.606.147.155 0 .295-.021.42-.064a.947.947 0 00.327-.197.832.832 0 00.209-.321l.994.112a1.55 1.55 0 01-.359.688 1.747 1.747 0 01-.671.453 2.563 2.563 0 01-.935.159zm2.91-.088v-4.519h1.033v.753h.047a1.126 1.126 0 011.115-.817 2.944 2.944 0 01.382.029v.98a2.082 2.082 0 00-.494-.062c-.194 0-.369.042-.524.126a.936.936 0 00-.362.344.975.975 0 00-.132.509v2.657h-1.065zm6.856-3.324l-.971.105a.795.795 0 00-.144-.276.721.721 0 00-.271-.209.987.987 0 00-.418-.079c-.221 0-.408.048-.559.144-.149.096-.222.22-.22.373a.39.39 0 00.144.321c.1.082.265.15.494.203l.771.165c.427.092.745.238.953.438.21.2.316.462.318.785a1.236 1.236 0 01-.25.754c-.163.215-.39.384-.68.505-.29.122-.624.183-1 .183-.553 0-.998-.116-1.336-.347a1.399 1.399 0 01-.603-.974l1.039-.1a.732.732 0 00.3.462c.153.104.352.156.597.156.253 0 .456-.052.609-.156.155-.104.232-.232.232-.385a.4.4 0 00-.15-.321c-.098-.084-.251-.149-.459-.194l-.77-.162c-.434-.09-.754-.242-.962-.456a1.12 1.12 0 01-.309-.818 1.156 1.156 0 01.226-.723c.155-.206.37-.365.645-.477a2.49 2.49 0 01.956-.171c.529 0 .946.113 1.25.339.306.225.495.53.568.915z" fill="#637282"/><g clip-path="url(#clip7_2414_95999)"><g clip-path="url(#clip8_2414_95999)" stroke="#289548" stroke-width="1.183"><path d="M325.566 166.579a5.325 5.325 0 100-10.65 5.325 5.325 0 000 10.65z" stroke-miterlimit="10"/><path d="M327.696 159.183l-2.958 4.024a.386.386 0 01-.533.118l-.059-.059-.71-.829" stroke-linecap="round" stroke-linejoin="round"/></g><path d="M338.255 164.156h-2.041v-6.024h2.082c.598 0 1.112.12 1.542.362.431.239.762.583.994 1.032.231.449.347.987.347 1.612 0 .628-.117 1.167-.35 1.618a2.417 2.417 0 01-1.003 1.038c-.436.242-.959.362-1.571.362zm-.95-.944h.897c.42 0 .77-.076 1.05-.229.281-.155.491-.386.633-.692.141-.308.211-.692.211-1.153 0-.461-.07-.843-.211-1.147a1.445 1.445 0 00-.627-.685c-.274-.153-.616-.23-1.024-.23h-.929v4.136zm6.864 1.033c-.453 0-.844-.095-1.174-.283a1.918 1.918 0 01-.756-.806c-.176-.349-.264-.76-.264-1.232 0-.465.088-.873.264-1.224.179-.353.428-.628.748-.824.319-.198.695-.297 1.126-.297.279 0 .541.045.789.135.249.089.468.226.659.412.192.187.343.424.453.712.109.286.164.628.164 1.024v.326h-3.703v-.717h2.683a1.153 1.153 0 00-.133-.545.963.963 0 00-.362-.379 1.017 1.017 0 00-.535-.138c-.218 0-.409.053-.574.159a1.093 1.093 0 00-.385.411c-.09.169-.136.354-.138.556v.627c0 .263.048.488.144.676.096.187.23.33.403.43.172.098.374.147.606.147.155 0 .295-.022.42-.065a.932.932 0 00.327-.197.821.821 0 00.209-.32l.994.111a1.548 1.548 0 01-.359.689 1.75 1.75 0 01-.67.453 2.572 2.572 0 01-.936.159zm2.91 1.606v-6.213h1.047v.747h.062c.055-.11.132-.226.233-.35.1-.125.235-.232.405-.321.171-.09.389-.135.653-.135.35 0 .664.089.945.268.282.176.506.438.67.785.167.345.25.769.25 1.271 0 .496-.081.918-.244 1.265a1.853 1.853 0 01-.664.794 1.71 1.71 0 01-.954.274c-.258 0-.473-.043-.644-.13a1.31 1.31 0 01-.412-.312 1.995 1.995 0 01-.238-.35h-.044v2.407h-1.065zm1.044-3.954c0 .292.042.548.124.768.084.22.205.391.362.515a.924.924 0 00.576.182.928.928 0 00.592-.188c.158-.128.278-.301.358-.521a2.14 2.14 0 00.124-.756c0-.28-.04-.529-.121-.747-.08-.218-.2-.388-.358-.512a.943.943 0 00-.595-.185.94.94 0 00-.579.179c-.159.12-.28.288-.362.503-.08.216-.121.47-.121.762zm4.789 2.324a.634.634 0 01-.459-.188.613.613 0 01-.188-.459.603.603 0 01.188-.453.63.63 0 01.459-.188c.173 0 .323.062.45.188a.616.616 0 01.103.779.672.672 0 01-.235.236.61.61 0 01-.318.085z" fill="#637282"/></g></g></g><g filter="url(#filter1_d_2414_95999)"><rect x="11.611" y="75.541" width="195.273" height="140.459" rx="12" fill="#fff"/><path d="M195.186 87.925a1.95 1.95 0 00-1.382-.565 1.939 1.939 0 00-1.374.584l-7.727 7.727-.943 3.68 3.68-.944 7.727-7.727a1.937 1.937 0 00.019-2.755v0z" stroke="#9C9AFF" stroke-width="1.37" stroke-linecap="round" stroke-linejoin="round"/><rect x="83.715" y="91.985" width="52.435" height="52.435" rx="9.376" fill="#C9292C"/><mask id="mask3_2414_95999" style="mask-type:alpha" maskUnits="userSpaceOnUse" x="83" y="91" width="54" height="54"><rect x="83.714" y="91.985" width="52.435" height="52.435" rx="9.376" fill="#4EF8CF"/></mask><g mask="url(#mask3_2414_95999)"><path d="M135.39 110.451c-10-6.009-22.978-2.773-28.987 7.227-6.009 10-2.773 22.978 7.227 28.986 10 6.009 22.978 2.773 28.987-7.227 6.009-10 2.773-22.978-7.227-28.986z" fill="#95250C"/><path opacity=".5" d="M147.823 66.36c-18.012-10.822-41.388-4.994-52.211 13.018-10.823 18.013-4.995 41.388 13.018 52.211 18.012 10.823 41.388 4.995 52.211-13.017 10.823-18.013 4.994-41.388-13.018-52.211z" fill="#863456"/><path opacity=".5" d="M150.229 68.398c-15.408-9.257-35.404-4.272-44.662 11.136-9.258 15.408-4.272 35.403 11.136 44.661 15.407 9.258 35.403 4.273 44.661-11.135 9.258-15.408 4.272-35.404-11.135-44.662z" fill="#350731"/></g><path d="M102.955 124.087v-12.412h4.97c.913 0 1.675.135 2.285.406.61.271 1.069.646 1.376 1.127.307.477.461 1.026.461 1.649 0 .485-.097.911-.291 1.279a2.526 2.526 0 01-.8.897c-.336.23-.72.393-1.152.49v.122c.473.02.915.153 1.327.4a2.83 2.83 0 011.013 1.036c.258.44.387.966.387 1.576 0 .658-.163 1.246-.49 1.764-.324.513-.803.919-1.437 1.218-.634.299-1.416.448-2.345.448h-5.304zm2.625-2.145h2.139c.732 0 1.265-.14 1.6-.418.336-.283.503-.659.503-1.128 0-.343-.083-.646-.248-.909a1.684 1.684 0 00-.709-.618c-.303-.15-.665-.224-1.085-.224h-2.2v3.297zm0-5.073h1.945c.36 0 .679-.063.958-.188.283-.129.505-.311.667-.545a1.43 1.43 0 00.248-.843c0-.448-.16-.81-.479-1.085-.315-.275-.763-.412-1.345-.412h-1.994v3.073zm11.192-5.194v12.412h-2.581v-12.412h2.581z" fill="#fff"/><path d="M90.013 167.778v-8.97h3.59c.66 0 1.211.098 1.652.294.44.195.772.467.994.814.222.345.333.742.333 1.191 0 .351-.07.659-.21.925a1.82 1.82 0 01-.579.648c-.242.166-.52.284-.832.354v.088a2.048 2.048 0 011.69 1.038c.188.318.281.698.281 1.139 0 .476-.118.9-.355 1.274-.233.371-.58.664-1.037.88-.459.217-1.024.325-1.695.325h-3.832zm1.896-1.551h1.546c.528 0 .914-.101 1.156-.302.242-.204.364-.476.364-.815 0-.248-.06-.467-.18-.657a1.223 1.223 0 00-.512-.446 1.756 1.756 0 00-.784-.162h-1.59v2.382zm0-3.666h1.406c.26 0 .49-.045.692-.135.204-.094.365-.225.481-.394.12-.17.18-.373.18-.609a.983.983 0 00-.346-.784c-.228-.199-.552-.298-.972-.298h-1.441v2.22zm8.088-3.753v8.97H98.13v-8.97h1.866zm4.534 9.101c-.68 0-1.269-.145-1.765-.434a2.956 2.956 0 01-1.143-1.217c-.269-.523-.403-1.129-.403-1.818 0-.695.134-1.302.403-1.822a2.926 2.926 0 011.143-1.217c.496-.292 1.085-.438 1.765-.438.68 0 1.267.146 1.76.438.497.289.879.695 1.148 1.217.269.52.403 1.127.403 1.822 0 .689-.134 1.295-.403 1.818-.269.52-.651.925-1.148 1.217-.493.289-1.08.434-1.76.434zm.009-1.445c.309 0 .568-.088.775-.263.207-.178.363-.421.468-.727.108-.307.163-.656.163-1.047 0-.391-.055-.74-.163-1.047a1.639 1.639 0 00-.468-.727 1.148 1.148 0 00-.775-.267c-.313 0-.576.089-.789.267-.21.179-.369.421-.477.727a3.226 3.226 0 00-.158 1.047c0 .391.053.74.158 1.047.108.306.267.549.477.727.213.175.476.263.789.263zm7.554 1.445c-.689 0-1.281-.146-1.778-.438a2.961 2.961 0 01-1.138-1.226c-.263-.523-.395-1.124-.395-1.805 0-.689.133-1.293.399-1.813.269-.523.65-.93 1.143-1.222.494-.295 1.08-.442 1.761-.442.587 0 1.1.106 1.541.32.441.213.79.512 1.047.897.257.386.399.838.425 1.358h-1.761c-.049-.336-.181-.606-.394-.81-.21-.207-.486-.311-.828-.311-.289 0-.541.079-.757.236-.213.155-.38.381-.5.679-.119.298-.179.659-.179 1.082 0 .429.058.794.175 1.095.12.301.288.53.504.688.216.157.468.236.757.236.214 0 .405-.044.574-.131.172-.088.314-.215.425-.381.114-.17.188-.373.223-.609h1.761a2.75 2.75 0 01-.421 1.358 2.53 2.53 0 01-1.029.91c-.438.219-.956.329-1.555.329zm5.89-2.067l.004-2.238h.272l2.155-2.554h2.141l-2.895 3.382h-.442l-1.235 1.41zm-1.691 1.936v-8.97h1.866v8.97h-1.866zm4.205 0l-1.98-2.93 1.244-1.319 2.921 4.249h-2.185zm4.234 2.522c-.237 0-.459-.019-.666-.057a2.456 2.456 0 01-.508-.135l.421-1.393c.219.067.416.103.591.109a.755.755 0 00.46-.122c.131-.088.238-.237.319-.447l.11-.285-2.413-6.92h1.962l1.393 4.941h.07l1.405-4.941h1.976l-2.615 7.455a3.146 3.146 0 01-.512.946c-.214.271-.484.48-.811.626-.327.149-.721.223-1.182.223z" fill="#212225"/><g clip-path="url(#clip9_2414_95999)"><g clip-path="url(#clip10_2414_95999)" stroke="#212225" stroke-width="1.37" stroke-linecap="round" stroke-linejoin="round"><path d="M47.925 189.005a.203.203 0 00-.19.128.206.206 0 10.335-.067.205.205 0 00-.145-.061zm0 4.933a.207.207 0 00-.146.352.21.21 0 00.224.045.208.208 0 00.128-.191.204.204 0 00-.06-.145.205.205 0 00-.146-.061z" stroke-dasharray="2.74 2.74"/><path d="M55.735 186.744a2.465 2.465 0 012.466 2.467 2.467 2.467 0 01-2.466 2.466h-7.4a2.469 2.469 0 01-2.467-2.466 2.466 2.466 0 012.467-2.467h7.4z"/><path d="M55.735 191.677a2.466 2.466 0 010 4.933h-7.4a2.465 2.465 0 01-1.744-4.21 2.465 2.465 0 011.744-.723h7.4zm-4.522-2.467h4.522m-4.522 4.934h4.522"/></g><path d="M67.826 187.74v6.976h-1.264v-5.746h-.04l-1.632 1.042v-1.158l1.733-1.114h1.203zm4.197 7.072a2.8 2.8 0 01-1.22-.256 2.175 2.175 0 01-.855-.708 1.88 1.88 0 01-.334-1.029h1.227c.022.286.146.52.37.702.226.179.496.269.811.269.248 0 .468-.057.661-.171.193-.113.345-.271.457-.473a1.38 1.38 0 00.163-.692 1.392 1.392 0 00-.167-.701 1.247 1.247 0 00-.466-.481 1.302 1.302 0 00-.681-.177 1.637 1.637 0 00-.617.116c-.202.08-.362.184-.48.314l-1.141-.188.364-3.597h4.047v1.056H71.16l-.201 1.85H71c.13-.152.313-.278.549-.378.236-.103.495-.154.777-.154.422 0 .8.1 1.13.3.332.198.593.47.784.818.19.347.286.744.286 1.192 0 .461-.106.872-.32 1.233a2.266 2.266 0 01-.882.848c-.375.204-.809.307-1.302.307zm9.883-5.154a.93.93 0 00-.402-.695c-.234-.166-.538-.249-.913-.249-.263 0-.49.04-.678.12a1 1 0 00-.432.323.787.787 0 00-.055.845.9.9 0 00.276.272c.116.073.244.134.385.184.14.05.283.092.426.126l.654.164c.263.061.517.144.76.249.245.104.464.236.657.395.195.159.35.351.463.575.114.225.17.489.17.791 0 .408-.104.768-.313 1.079-.209.309-.51.551-.906.726-.393.173-.869.259-1.427.259-.543 0-1.014-.084-1.414-.252a2.102 2.102 0 01-.933-.736c-.223-.322-.343-.715-.361-1.179h1.243c.018.243.093.446.225.607.132.161.303.281.514.361.214.079.452.119.716.119.274 0 .515-.041.722-.123.209-.084.372-.199.49-.347a.84.84 0 00.18-.525.666.666 0 00-.16-.449 1.172 1.172 0 00-.439-.3 4.252 4.252 0 00-.654-.218l-.793-.204c-.575-.148-1.03-.372-1.363-.671-.331-.302-.497-.703-.497-1.203a1.8 1.8 0 01.334-1.08 2.2 2.2 0 01.916-.718 3.174 3.174 0 011.311-.259c.495 0 .93.086 1.301.259.375.17.67.407.883.711.213.303.323.65.33 1.043h-1.216zm4.7 5.16c-.524 0-.978-.109-1.36-.327a2.212 2.212 0 01-.874-.933c-.205-.404-.307-.88-.307-1.427 0-.538.102-1.011.306-1.417.207-.409.496-.727.866-.954.37-.229.805-.344 1.304-.344.323 0 .627.052.913.157.289.102.543.261.763.477.223.215.398.49.525.824.127.331.19.727.19 1.185v.378h-4.288v-.831h3.107a1.327 1.327 0 00-.154-.63 1.11 1.11 0 00-.419-.439 1.175 1.175 0 00-.62-.16c-.252 0-.473.061-.664.184-.19.12-.34.279-.446.476-.105.196-.158.41-.16.644v.726c0 .304.055.565.167.783.111.216.267.382.466.498.2.113.434.17.702.17.18 0 .342-.025.487-.075.145-.052.272-.128.378-.228a.951.951 0 00.242-.372l1.151.13c-.072.304-.21.57-.415.797-.202.225-.461.4-.777.525a2.99 2.99 0 01-1.083.183zm3.37-.102v-5.232h1.195v.872h.055c.095-.302.259-.535.49-.698a1.35 1.35 0 01.801-.249 3.274 3.274 0 01.443.034v1.135a1.258 1.258 0 00-.249-.048 2.273 2.273 0 00-.323-.024c-.225 0-.427.049-.607.147a1.07 1.07 0 00-.419.398c-.102.17-.153.367-.153.589v3.076h-1.233zm8.636-5.232l-1.863 5.232h-1.363l-1.863-5.232h1.315l1.202 3.887h.054l1.206-3.887h1.312zm2.991 5.334c-.524 0-.977-.109-1.359-.327a2.213 2.213 0 01-.875-.933c-.204-.404-.307-.88-.307-1.427 0-.538.103-1.011.307-1.417a2.32 2.32 0 01.865-.954c.37-.229.805-.344 1.305-.344.322 0 .626.052.913.157.288.102.542.261.763.477.222.215.397.49.524.824.127.331.191.727.191 1.185v.378h-4.289v-.831h3.107a1.322 1.322 0 00-.153-.63c-.1-.186-.24-.333-.419-.439a1.176 1.176 0 00-.62-.16c-.252 0-.474.061-.664.184-.191.12-.34.279-.447.476-.104.196-.158.41-.16.644v.726c0 .304.056.565.167.783.111.216.267.382.467.498.2.113.434.17.701.17.18 0 .342-.025.488-.075a1.08 1.08 0 00.378-.228.965.965 0 00.242-.372l1.151.13c-.073.304-.211.57-.416.797-.202.225-.461.4-.776.525a2.993 2.993 0 01-1.084.183zm3.37-.102v-5.232h1.196v.872h.054c.096-.302.259-.535.491-.698a1.35 1.35 0 01.8-.249 3.298 3.298 0 01.443.034v1.135a1.253 1.253 0 00-.248-.048 2.292 2.292 0 00-.324-.024 1.24 1.24 0 00-.606.147 1.063 1.063 0 00-.419.398c-.103.17-.154.367-.154.589v3.076h-1.233zm7.939-3.849l-1.124.123a.902.902 0 00-.167-.32.824.824 0 00-.314-.242 1.128 1.128 0 00-.483-.092c-.257 0-.473.055-.648.167-.172.111-.257.255-.255.432a.455.455 0 00.167.372c.116.095.306.173.572.235l.893.19c.495.107.863.276 1.103.508.243.232.366.535.368.909-.002.33-.099.62-.289.872-.189.25-.451.446-.787.586a2.971 2.971 0 01-1.158.211c-.641 0-1.156-.133-1.547-.401a1.618 1.618 0 01-.698-1.128l1.202-.116a.85.85 0 00.348.535c.177.12.407.181.691.181.293 0 .528-.061.705-.181.18-.12.269-.269.269-.446a.468.468 0 00-.173-.372c-.114-.097-.291-.172-.532-.224l-.892-.188c-.502-.104-.873-.28-1.114-.528-.241-.249-.36-.565-.358-.947a1.34 1.34 0 01.263-.838c.179-.238.428-.422.746-.551.32-.132.689-.198 1.107-.198.613 0 1.095.131 1.447.392.355.261.574.614.658 1.059z" fill="#637282"/><g clip-path="url(#clip11_2414_95999)"><g clip-path="url(#clip12_2414_95999)" stroke="#289548" stroke-width="1.37"><path d="M140.425 197.707a6.167 6.167 0 100-12.333 6.167 6.167 0 000 12.333z" stroke-miterlimit="10"/><path d="M142.891 189.143l-3.426 4.659a.447.447 0 01-.617.137l-.068-.069-.822-.959" stroke-linecap="round" stroke-linejoin="round"/></g><path d="M155.119 194.733c2.126 0 3.386-1.315 3.386-3.495 0-2.174-1.26-3.482-3.338-3.482h-2.412v6.977h2.364zm-1.1-1.094v-4.789h1.076c1.417 0 2.156.79 2.156 2.388 0 1.604-.739 2.401-2.193 2.401h-1.039zm7.949 1.196c1.219 0 2.057-.596 2.275-1.506l-1.151-.129c-.167.443-.576.674-1.107.674-.798 0-1.326-.524-1.336-1.42h3.645v-.378c0-1.836-1.104-2.644-2.391-2.644-1.499 0-2.477 1.101-2.477 2.715 0 1.642.964 2.688 2.542 2.688zm-1.315-3.212c.037-.668.531-1.23 1.267-1.23.708 0 1.185.518 1.192 1.23h-2.459zm4.684 5.072h1.233v-2.787h.051c.195.382.6.917 1.499.917 1.233 0 2.157-.978 2.157-2.702 0-1.744-.951-2.691-2.16-2.691-.923 0-1.308.556-1.496.934h-.071v-.866h-1.213v7.195zm1.21-4.578c0-1.016.436-1.673 1.229-1.673.821 0 1.244.698 1.244 1.673 0 .981-.43 1.696-1.244 1.696-.787 0-1.229-.681-1.229-1.696zm5.545 2.691a.76.76 0 00.75-.75.757.757 0 00-.75-.742.743.743 0 00-.749.742.745.745 0 00.749.75z" fill="#637282"/></g></g></g></g><defs><clipPath id="clip0_2414_95999"><path fill="#fff" transform="translate(426.448 136.406)" d="M0 0h104.584v10.727H0z"/></clipPath><clipPath id="clip1_2414_95999"><path fill="#fff" transform="translate(426.448 136.406)" d="M0 0h10.727v10.727H0z"/></clipPath><clipPath id="clip2_2414_95999"><path fill="#fff" transform="translate(496.218 136.406)" d="M0 0h32.18v10.727H0z"/></clipPath><clipPath id="clip3_2414_95999"><path fill="#fff" transform="translate(496.218 136.406)" d="M0 0h10.727v10.727H0z"/></clipPath><clipPath id="clip4_2414_95999"><path fill="#fff" transform="translate(529.192 214.325)" d="M0 0h5.379v5.379H0z"/></clipPath><clipPath id="clip5_2414_95999"><path fill="#fff" transform="translate(245.094 155.337)" d="M0 0h110.054v11.834H0z"/></clipPath><clipPath id="clip6_2414_95999"><path fill="#fff" transform="translate(245.094 155.337)" d="M0 0h11.834v11.834H0z"/></clipPath><clipPath id="clip7_2414_95999"><path fill="#fff" transform="translate(319.646 155.337)" d="M0 0h35.501v11.834H0z"/></clipPath><clipPath id="clip8_2414_95999"><path fill="#fff" transform="translate(319.646 155.337)" d="M0 0h11.834v11.834H0z"/></clipPath><clipPath id="clip9_2414_95999"><path fill="#fff" transform="translate(45.184 184.688)" d="M0 0h129.497v13.703H0z"/></clipPath><clipPath id="clip10_2414_95999"><path fill="#fff" transform="translate(45.184 184.688)" d="M0 0h13.703v13.703H0z"/></clipPath><clipPath id="clip11_2414_95999"><path fill="#fff" transform="translate(133.57 184.688)" d="M0 0h41.11v13.703H0z"/></clipPath><clipPath id="clip12_2414_95999"><path fill="#fff" transform="translate(133.57 184.688)" d="M0 0h13.703v13.703H0z"/></clipPath><filter id="filter0_d_2414_95999" x="196.642" y="51.922" width="206.367" height="159.032" filterUnits="userSpaceOnUse" color-interpolation-filters="sRGB"><feFlood flood-opacity="0" result="BackgroundImageFix"/><feColorMatrix in="SourceAlpha" values="0 0 0 0 0 0 0 0 0 0 0 0 0 0 0 0 0 0 127 0" result="hardAlpha"/><feOffset dy="8.086"/><feGaussianBlur stdDeviation="9.434"/><feColorMatrix values="0 0 0 0 0.129412 0 0 0 0 0.133333 0 0 0 0 0.145098 0 0 0 0.08 0"/><feBlend in2="BackgroundImageFix" result="effect1_dropShadow_2414_95999"/><feBlend in="SourceGraphic" in2="effect1_dropShadow_2414_95999" result="shape"/></filter><filter id="filter1_d_2414_95999" x="-10.189" y="63.083" width="238.874" height="184.061" filterUnits="userSpaceOnUse" color-interpolation-filters="sRGB"><feFlood flood-opacity="0" result="BackgroundImageFix"/><feColorMatrix in="SourceAlpha" values="0 0 0 0 0 0 0 0 0 0 0 0 0 0 0 0 0 0 127 0" result="hardAlpha"/><feOffset dy="9.343"/><feGaussianBlur stdDeviation="10.9"/><feColorMatrix values="0 0 0 0 0.129412 0 0 0 0 0.133333 0 0 0 0 0.145098 0 0 0 0.08 0"/><feBlend in2="BackgroundImageFix" result="effect1_dropShadow_2414_95999"/><feBlend in="SourceGraphic" in2="effect1_dropShadow_2414_95999" result="shape"/></filter></defs></svg>